<svg width="74" height="31" viewBox="0 0 74 31" fill="none" xmlns="http://www.w3.org/2000/svg">
<rect y="0.5" width="74" height="30" rx="15" fill="#B2ED82"/>
<path d="M18.3164 19.5H19.4238L16.3066 11.0449H15.2637L12.1465 19.5H13.2539L14.1035 17.0801H17.4668L18.3164 19.5ZM15.7676 12.3281H15.8027L17.1562 16.1836H14.4141L15.7676 12.3281ZM25.2977 15.4043C25.1688 14.3086 24.2606 13.3008 22.7372 13.3008C21.0555 13.3008 19.9364 14.5312 19.9364 16.4531C19.9364 18.416 21.0614 19.6055 22.7489 19.6055C24.1317 19.6055 25.1512 18.75 25.3095 17.5371H24.3075C24.1317 18.2695 23.5868 18.709 22.7548 18.709C21.7001 18.709 20.9735 17.8711 20.9735 16.4531C20.9735 15.0703 21.6884 14.1973 22.743 14.1973C23.6395 14.1973 24.1552 14.7422 24.3016 15.4043H25.2977ZM31.4295 15.4043C31.3005 14.3086 30.3923 13.3008 28.8689 13.3008C27.1873 13.3008 26.0681 14.5312 26.0681 16.4531C26.0681 18.416 27.1931 19.6055 28.8806 19.6055C30.2634 19.6055 31.283 18.75 31.4412 17.5371H30.4392C30.2634 18.2695 29.7185 18.709 28.8865 18.709C27.8318 18.709 27.1052 17.8711 27.1052 16.4531C27.1052 15.0703 27.8201 14.1973 28.8748 14.1973C29.7712 14.1973 30.2869 14.7422 30.4334 15.4043H31.4295ZM34.942 14.1855C35.903 14.1855 36.5416 14.9121 36.5651 15.9316H33.2545C33.319 14.918 33.987 14.1855 34.942 14.1855ZM36.5416 17.7539C36.3717 18.3281 35.8034 18.7207 35.0299 18.7207C33.9342 18.7207 33.2487 17.9531 33.2487 16.7871V16.7285H37.6198V16.3418C37.6198 14.4961 36.6061 13.3008 34.9596 13.3008C33.278 13.3008 32.1998 14.584 32.1998 16.4766C32.1998 18.3926 33.2604 19.6055 35.0065 19.6055C36.3366 19.6055 37.3678 18.8203 37.5436 17.7539H36.5416ZM41.73 13.3008C40.8452 13.3008 40.1362 13.752 39.7612 14.4375H39.7378V13.4062H38.771V21.5332H39.7905V18.5098H39.814C40.1773 19.1777 40.8804 19.6055 41.7534 19.6055C43.2886 19.6055 44.3374 18.3633 44.3374 16.4531C44.3374 14.543 43.2827 13.3008 41.73 13.3008ZM41.5308 18.709C40.4878 18.709 39.7847 17.8125 39.7847 16.4531C39.7847 15.0996 40.4878 14.1973 41.5308 14.1973C42.6148 14.1973 43.2945 15.0762 43.2945 16.4531C43.2945 17.8359 42.6148 18.709 41.5308 18.709ZM45.8168 11.9355V13.4062H44.9086V14.2441H45.8168V17.918C45.8168 19.0898 46.2504 19.5469 47.3695 19.5469C47.6098 19.5469 47.891 19.5293 48.0141 19.5V18.6445C47.9437 18.6562 47.7094 18.6738 47.5922 18.6738C47.0707 18.6738 46.8363 18.4219 46.8363 17.8652V14.2441H48.0199V13.4062H46.8363V11.9355H45.8168ZM51.4973 14.1855C52.4583 14.1855 53.097 14.9121 53.1204 15.9316H49.8098C49.8743 14.918 50.5423 14.1855 51.4973 14.1855ZM53.097 17.7539C52.927 18.3281 52.3587 18.7207 51.5852 18.7207C50.4895 18.7207 49.804 17.9531 49.804 16.7871V16.7285H54.1751V16.3418C54.1751 14.4961 53.1614 13.3008 51.5149 13.3008C49.8333 13.3008 48.7552 14.584 48.7552 16.4766C48.7552 18.3926 49.8157 19.6055 51.5618 19.6055C52.8919 19.6055 53.9231 18.8203 54.0989 17.7539H53.097ZM57.6349 19.6055C58.5138 19.6055 59.2111 19.1719 59.6037 18.4688H59.6213V19.5H60.5939V11.0449H59.5744V14.3965H59.5509C59.1877 13.7285 58.4845 13.3008 57.6115 13.3008C56.0763 13.3008 55.0275 14.543 55.0275 16.4531C55.0275 18.3633 56.0822 19.6055 57.6349 19.6055ZM57.8283 14.1973C58.8771 14.1973 59.5802 15.0938 59.5802 16.4531C59.5802 17.8184 58.8771 18.709 57.8283 18.709C56.7502 18.709 56.0705 17.8359 56.0705 16.4531C56.0705 15.0762 56.7502 14.1973 57.8283 14.1973Z" fill="#1B720F"/>
</svg>
