<svg width="327" height="49" viewBox="0 0 327 49" fill="none" xmlns="http://www.w3.org/2000/svg">
<rect x="0.5" y="0.5" width="326" height="48" rx="24" stroke="#D1D5DB"/>
<path d="M27.3333 33.4583H20.6667C15.875 33.4583 15.875 30.9167 15.875 28.6667V27.8333C15.875 25.975 15.875 23.875 19.8333 23.875C20.825 23.875 21.1917 24.1167 21.7083 24.5C21.7333 24.525 21.7667 24.5417 21.7917 24.575L22.6417 25.475C23.3583 26.2333 24.6583 26.2333 25.375 25.475L26.225 24.575C26.25 24.55 26.275 24.525 26.3083 24.5C26.825 24.1083 27.1917 23.875 28.1833 23.875C32.1417 23.875 32.1417 25.975 32.1417 27.8333V28.6667C32.125 31.85 30.5167 33.4583 27.3333 33.4583ZM19.8333 25.125C17.125 25.125 17.125 25.975 17.125 27.8333V28.6667C17.125 30.95 17.125 32.2083 20.6667 32.2083H27.3333C29.8167 32.2083 30.875 31.15 30.875 28.6667V27.8333C30.875 25.975 30.875 25.125 28.1667 25.125C27.5667 25.125 27.4417 25.2 27.0833 25.4667L26.275 26.325C25.675 26.9583 24.8667 27.3083 24 27.3083C23.1333 27.3083 22.325 26.9583 21.725 26.325L20.9167 25.4667C20.5583 25.2 20.4333 25.125 19.8333 25.125Z" fill="#111827"/>
<path d="M29.8334 25.1251C29.4917 25.1251 29.2084 24.8417 29.2084 24.5001V19.5001C29.2084 17.6417 29.2084 16.7917 26.5001 16.7917H21.5001C18.7917 16.7917 18.7917 17.6417 18.7917 19.5001V24.5001C18.7917 24.8417 18.5084 25.1251 18.1667 25.1251C17.8251 25.1251 17.5417 24.8417 17.5417 24.5001V19.5001C17.5417 17.6417 17.5417 15.5417 21.5001 15.5417H26.5001C30.4584 15.5417 30.4584 17.6417 30.4584 19.5001V24.5001C30.4584 24.8417 30.1751 25.1251 29.8334 25.1251Z" fill="#111827"/>
<path d="M25.5667 22.8167H22.7917C22.4501 22.8167 22.1667 22.5333 22.1667 22.1917C22.1667 21.85 22.4501 21.5667 22.7917 21.5667H25.5667C25.9084 21.5667 26.1917 21.85 26.1917 22.1917C26.1917 22.5333 25.9167 22.8167 25.5667 22.8167Z" fill="#111827"/>
<path d="M26.2668 20.3167H22.1001C21.7584 20.3167 21.4751 20.0333 21.4751 19.6917C21.4751 19.35 21.7584 19.0667 22.1001 19.0667H26.2668C26.6084 19.0667 26.8918 19.35 26.8918 19.6917C26.8918 20.0333 26.6168 20.3167 26.2668 20.3167Z" fill="#111827"/>
<path d="M56.3828 30H58.2344L54.1641 18.7266H52.2734L48.2031 30H50.0234L51.0547 26.9531H55.3516L56.3828 30ZM53.1797 20.6016H53.2266L54.9062 25.5469H51.5L53.1797 20.6016ZM63.7147 21.6484C62.5272 21.6484 61.5819 22.25 61.0975 23.1953H61.0662V21.7812H59.4334V32.7188H61.1209V28.6484H61.16C61.6287 29.5625 62.5662 30.1406 63.7459 30.1406C65.8084 30.1406 67.1756 28.4922 67.1756 25.8906C67.1756 23.2891 65.8006 21.6484 63.7147 21.6484ZM63.2694 28.7109C61.9725 28.7109 61.1131 27.6016 61.1131 25.8906C61.1131 24.1953 61.9803 23.0703 63.2694 23.0703C64.6053 23.0703 65.4412 24.1719 65.4412 25.8906C65.4412 27.6172 64.6053 28.7109 63.2694 28.7109ZM72.9216 21.6484C71.7341 21.6484 70.7887 22.25 70.3044 23.1953H70.2731V21.7812H68.6403V32.7188H70.3278V28.6484H70.3669C70.8356 29.5625 71.7731 30.1406 72.9528 30.1406C75.0153 30.1406 76.3825 28.4922 76.3825 25.8906C76.3825 23.2891 75.0075 21.6484 72.9216 21.6484ZM72.4762 28.7109C71.1794 28.7109 70.32 27.6016 70.32 25.8906C70.32 24.1953 71.1872 23.0703 72.4762 23.0703C73.8122 23.0703 74.6481 24.1719 74.6481 25.8906C74.6481 27.6172 73.8122 28.7109 72.4762 28.7109ZM77.9097 30H79.5972V18.7266H77.9097V30ZM82.3041 33.0625C84.015 33.0625 84.8197 32.4219 85.5228 30.4297L88.6087 21.7812H86.8275L84.7416 28.4688H84.7181L82.6322 21.7812H80.8041L83.7728 30.0078C83.7728 30.0156 83.6244 30.5 83.6244 30.5156C83.3666 31.3594 82.9525 31.6875 82.1634 31.6875C82.0228 31.6875 81.7416 31.6875 81.6166 31.6562V33.0234C81.7416 33.0469 82.1712 33.0625 82.3041 33.0625ZM92.6319 27.1094C92.6319 28.9844 94.0147 30.25 96.0459 30.25C98.2412 30.25 99.5537 28.9531 99.5537 26.7188V18.7266H97.8037V26.7109C97.8037 28 97.1787 28.6875 96.0303 28.6875C95.0537 28.6875 94.3741 28.0469 94.3506 27.1094H92.6319ZM105.143 30.1562C107.495 30.1562 109.042 28.5391 109.042 25.8906C109.042 23.25 107.487 21.6328 105.143 21.6328C102.8 21.6328 101.245 23.25 101.245 25.8906C101.245 28.5391 102.792 30.1562 105.143 30.1562ZM105.143 28.7656C103.823 28.7656 102.964 27.7188 102.964 25.8906C102.964 24.0703 103.823 23.0234 105.143 23.0234C106.464 23.0234 107.323 24.0703 107.323 25.8906C107.323 27.7188 106.472 28.7656 105.143 28.7656ZM114.882 30.1406C116.967 30.1406 118.311 28.5 118.311 25.8906C118.311 23.2891 116.96 21.6484 114.889 21.6484C113.725 21.6484 112.788 22.2266 112.296 23.1797H112.257V18.7266H110.569V30H112.21V28.6016H112.241C112.749 29.5547 113.678 30.1406 114.882 30.1406ZM114.428 23.0703C115.757 23.0703 116.577 24.1641 116.577 25.8906C116.577 27.6328 115.757 28.7109 114.428 28.7109C113.147 28.7109 112.249 27.6016 112.249 25.8906C112.249 24.1953 113.147 23.0703 114.428 23.0703Z" fill="#111827"/>
<path d="M302.94 30.28C302.813 30.28 302.687 30.2333 302.587 30.1333C302.393 29.94 302.393 29.62 302.587 29.4267L306.933 25.08C307.253 24.76 307.253 24.24 306.933 23.92L302.587 19.5733C302.393 19.38 302.393 19.06 302.587 18.8667C302.78 18.6733 303.1 18.6733 303.293 18.8667L307.64 23.2133C307.98 23.5533 308.173 24.0133 308.173 24.5C308.173 24.9867 307.987 25.4467 307.64 25.7867L303.293 30.1333C303.193 30.2267 303.067 30.28 302.94 30.28Z" fill="#111827"/>
</svg>
