<svg width="25" height="24" viewBox="0 0 25 24" fill="none" xmlns="http://www.w3.org/2000/svg">
<path d="M16.5 22.75H8.49998C3.87998 22.75 3.01998 20.6 2.79998 18.51L2.04998 10.5C1.93998 9.45 1.90998 7.9 2.94998 6.74C3.84998 5.74 5.33998 5.26 7.49998 5.26H17.5C19.67 5.26 21.16 5.75 22.05 6.74C23.09 7.9 23.06 9.45 22.95 10.51L22.2 18.5C21.98 20.6 21.12 22.75 16.5 22.75ZM7.49998 6.75C5.80998 6.75 4.64998 7.08 4.05998 7.74C3.56998 8.28 3.40998 9.11 3.53998 10.35L4.28998 18.36C4.45998 19.94 4.88998 21.25 8.49998 21.25H16.5C20.1 21.25 20.54 19.94 20.71 18.35L21.46 10.36C21.59 9.11 21.43 8.28 20.94 7.74C20.35 7.08 19.19 6.75 17.5 6.75H7.49998Z" fill="#9CA3AF"/>
<path d="M16.5 6.75C16.09 6.75 15.75 6.41 15.75 6V5.2C15.75 3.42 15.75 2.75 13.3 2.75H11.7C9.25 2.75 9.25 3.42 9.25 5.2V6C9.25 6.41 8.91 6.75 8.5 6.75C8.09 6.75 7.75 6.41 7.75 6V5.2C7.75 3.44 7.75 1.25 11.7 1.25H13.3C17.25 1.25 17.25 3.44 17.25 5.2V6C17.25 6.41 16.91 6.75 16.5 6.75Z" fill="#9CA3AF"/>
<path d="M12.5 16.75C9.75 16.75 9.75 15.05 9.75 14.03V13C9.75 11.59 10.09 11.25 11.5 11.25H13.5C14.91 11.25 15.25 11.59 15.25 13V14C15.25 15.04 15.25 16.75 12.5 16.75ZM11.25 12.75C11.25 12.83 11.25 12.92 11.25 13V14.03C11.25 15.06 11.25 15.25 12.5 15.25C13.75 15.25 13.75 15.09 13.75 14.02V13C13.75 12.92 13.75 12.83 13.75 12.75C13.67 12.75 13.58 12.75 13.5 12.75H11.5C11.42 12.75 11.33 12.75 11.25 12.75Z" fill="#9CA3AF"/>
<path d="M14.5 14.77C14.13 14.77 13.8 14.49 13.76 14.11C13.71 13.7 14 13.32 14.41 13.27C17.05 12.94 19.58 11.94 21.71 10.39C22.04 10.14 22.51 10.22 22.76 10.56C23 10.89 22.93 11.36 22.59 11.61C20.25 13.31 17.49 14.4 14.59 14.77C14.56 14.77 14.53 14.77 14.5 14.77Z" fill="#9CA3AF"/>
<path d="M10.5 14.78C10.47 14.78 10.44 14.78 10.41 14.78C7.66999 14.47 4.99999 13.47 2.68999 11.89C2.34999 11.66 2.25999 11.19 2.48999 10.85C2.71999 10.51 3.18999 10.42 3.52999 10.65C5.63999 12.09 8.06999 13 10.57 13.29C10.98 13.34 11.28 13.71 11.23 14.12C11.2 14.5 10.88 14.78 10.5 14.78Z" fill="#9CA3AF"/>
</svg>
