<svg width="327" height="52" viewBox="0 0 327 52" fill="none" xmlns="http://www.w3.org/2000/svg">
<rect x="0.5" y="0.5" width="326" height="51" rx="25.5" stroke="#D1D5DB"/>
<path d="M29.26 36.2498H22.74C17.83 36.2498 15.73 34.1498 15.73 29.2398V29.1098C15.73 24.6698 17.48 22.5298 21.4 22.1598C21.8 22.1298 22.18 22.4298 22.22 22.8398C22.26 23.2498 21.96 23.6198 21.54 23.6598C18.4 23.9498 17.23 25.4298 17.23 29.1198V29.2498C17.23 33.3198 18.67 34.7598 22.74 34.7598H29.26C33.33 34.7598 34.77 33.3198 34.77 29.2498V29.1198C34.77 25.4098 33.58 23.9298 30.38 23.6598C29.97 23.6198 29.66 23.2598 29.7 22.8498C29.74 22.4398 30.09 22.1298 30.51 22.1698C34.49 22.5098 36.27 24.6598 36.27 29.1298V29.2598C36.27 34.1498 34.17 36.2498 29.26 36.2498Z" fill="#374151"/>
<path d="M26 29.63C25.59 29.63 25.25 29.29 25.25 28.88V16C25.25 15.59 25.59 15.25 26 15.25C26.41 15.25 26.75 15.59 26.75 16V28.88C26.75 29.3 26.41 29.63 26 29.63Z" fill="#374151"/>
<path d="M25.9998 30.7498C25.8098 30.7498 25.6198 30.6798 25.4698 30.5298L22.1198 27.1798C21.8298 26.8898 21.8298 26.4098 22.1198 26.1198C22.4098 25.8298 22.8898 25.8298 23.1798 26.1198L25.9998 28.9398L28.8198 26.1198C29.1098 25.8298 29.5898 25.8298 29.8798 26.1198C30.1698 26.4098 30.1698 26.8898 29.8798 27.1798L26.5298 30.5298C26.3798 30.6798 26.1898 30.7498 25.9998 30.7498Z" fill="#374151"/>
<path d="M58.3828 31.5H60.2344L56.1641 20.2266H54.2734L50.2031 31.5H52.0234L53.0547 28.4531H57.3516L58.3828 31.5ZM55.1797 22.1016H55.2266L56.9062 27.0469H53.5L55.1797 22.1016ZM61.4334 31.5H63.1209V26.5781C63.1209 25.4141 63.7928 24.6875 64.8787 24.6875C65.2069 24.6875 65.5037 24.7266 65.6366 24.7812V23.2109C65.5116 23.1875 65.3006 23.1484 65.0584 23.1484C64.0897 23.1484 63.3553 23.7188 63.0819 24.6797H63.0428V23.2812H61.4334V31.5ZM73.5387 26.1094C73.3903 24.4922 72.1012 23.1328 69.9841 23.1328C67.6481 23.1328 66.1169 24.7812 66.1169 27.3906C66.1169 30.0469 67.6481 31.6562 69.9997 31.6562C71.9762 31.6562 73.3747 30.4688 73.5544 28.7188H71.9294C71.7341 29.6719 71.0544 30.2422 70.0153 30.2422C68.7028 30.2422 67.8356 29.1953 67.8356 27.3906C67.8356 25.625 68.695 24.5391 69.9997 24.5391C71.1012 24.5391 71.7575 25.2344 71.9294 26.1094H73.5387ZM74.9722 31.5H76.6597V26.75C76.6597 25.4531 77.4253 24.5938 78.6753 24.5938C79.8628 24.5938 80.4722 25.3203 80.4722 26.5312V31.5H82.1675V26.2031C82.1675 24.3438 81.0894 23.1406 79.2847 23.1406C78.0347 23.1406 77.1362 23.6953 76.6831 24.6562H76.6441V20.2266H74.9722V31.5ZM84.015 31.5H85.7025V23.2812H84.015V31.5ZM84.8587 22.0781C85.4056 22.0781 85.8431 21.6484 85.8431 21.1172C85.8431 20.5781 85.4056 20.1484 84.8587 20.1484C84.3197 20.1484 83.8822 20.5781 83.8822 21.1172C83.8822 21.6484 84.3197 22.0781 84.8587 22.0781ZM94.6047 23.2812H92.8391L90.7766 29.8516H90.7453L88.6828 23.2812H86.8859L89.8469 31.5H91.6594L94.6047 23.2812ZM98.9366 24.4922C100.116 24.4922 100.913 25.375 100.952 26.6328H96.8428C96.9287 25.3906 97.7569 24.4922 98.9366 24.4922ZM100.944 29.0859C100.718 29.8047 100.007 30.2891 99.0459 30.2891C97.6944 30.2891 96.835 29.3438 96.835 27.9141V27.8125H102.64V27.2344C102.64 24.7422 101.218 23.1328 98.9366 23.1328C96.6162 23.1328 95.1319 24.8516 95.1319 27.4297C95.1319 30.0234 96.5928 31.6562 99.0069 31.6562C100.89 31.6562 102.312 30.5859 102.546 29.0859H100.944Z" fill="#374151"/>
<path d="M302.94 31.78C302.814 31.78 302.687 31.7333 302.587 31.6333C302.394 31.44 302.394 31.12 302.587 30.9267L306.934 26.58C307.254 26.26 307.254 25.74 306.934 25.42L302.587 21.0733C302.394 20.88 302.394 20.56 302.587 20.3667C302.78 20.1733 303.1 20.1733 303.294 20.3667L307.64 24.7133C307.98 25.0533 308.174 25.5133 308.174 26C308.174 26.4867 307.987 26.9467 307.64 27.2867L303.294 31.6333C303.194 31.7267 303.067 31.78 302.94 31.78Z" fill="#111827"/>
</svg>
