<svg width="327" height="49" viewBox="0 0 327 49" fill="none" xmlns="http://www.w3.org/2000/svg">
<rect x="0.5" y="0.5" width="326" height="48" rx="24" stroke="#D1D5DB"/>
<path d="M22.3828 30H24.2344L20.1641 18.7266H18.2734L14.2031 30H16.0234L17.0547 26.9531H21.3516L22.3828 30ZM19.1797 20.6016H19.2266L20.9062 25.5469H17.5L19.1797 20.6016ZM25.4334 30H27.1209V25.0781C27.1209 23.9141 27.7928 23.1875 28.8787 23.1875C29.2069 23.1875 29.5037 23.2266 29.6366 23.2812V21.7109C29.5116 21.6875 29.3006 21.6484 29.0584 21.6484C28.0897 21.6484 27.3553 22.2188 27.0819 23.1797H27.0428V21.7812H25.4334V30ZM37.5387 24.6094C37.3903 22.9922 36.1012 21.6328 33.9841 21.6328C31.6481 21.6328 30.1169 23.2812 30.1169 25.8906C30.1169 28.5469 31.6481 30.1562 33.9997 30.1562C35.9762 30.1562 37.3747 28.9688 37.5544 27.2188H35.9294C35.7341 28.1719 35.0544 28.7422 34.0153 28.7422C32.7028 28.7422 31.8356 27.6953 31.8356 25.8906C31.8356 24.125 32.695 23.0391 33.9997 23.0391C35.1012 23.0391 35.7575 23.7344 35.9294 24.6094H37.5387ZM38.9722 30H40.6597V25.25C40.6597 23.9531 41.4253 23.0938 42.6753 23.0938C43.8628 23.0938 44.4722 23.8203 44.4722 25.0312V30H46.1675V24.7031C46.1675 22.8438 45.0894 21.6406 43.2847 21.6406C42.0347 21.6406 41.1362 22.1953 40.6831 23.1562H40.6441V18.7266H38.9722V30ZM48.015 30H49.7025V21.7812H48.015V30ZM48.8587 20.5781C49.4056 20.5781 49.8431 20.1484 49.8431 19.6172C49.8431 19.0781 49.4056 18.6484 48.8587 18.6484C48.3197 18.6484 47.8822 19.0781 47.8822 19.6172C47.8822 20.1484 48.3197 20.5781 48.8587 20.5781ZM58.6047 21.7812H56.8391L54.7766 28.3516H54.7453L52.6828 21.7812H50.8859L53.8469 30H55.6594L58.6047 21.7812ZM62.9366 22.9922C64.1162 22.9922 64.9131 23.875 64.9522 25.1328H60.8428C60.9287 23.8906 61.7569 22.9922 62.9366 22.9922ZM64.9444 27.5859C64.7178 28.3047 64.0069 28.7891 63.0459 28.7891C61.6944 28.7891 60.835 27.8438 60.835 26.4141V26.3125H66.6397V25.7344C66.6397 23.2422 65.2178 21.6328 62.9366 21.6328C60.6162 21.6328 59.1319 23.3516 59.1319 25.9297C59.1319 28.5234 60.5928 30.1562 63.0069 30.1562C64.8897 30.1562 66.3116 29.0859 66.5459 27.5859H64.9444ZM71.1981 30.1406C72.3934 30.1406 73.3309 29.5391 73.8153 28.6016H73.8466V30H75.4872V18.7266H73.7919V23.1484H73.7606C73.2997 22.2422 72.3622 21.6484 71.1825 21.6484C69.12 21.6484 67.745 23.2969 67.745 25.8906C67.745 28.4844 69.12 30.1406 71.1981 30.1406ZM71.6434 23.0703C72.9403 23.0703 73.8075 24.1875 73.8075 25.8906C73.8075 27.6094 72.9403 28.7109 71.6434 28.7109C70.3075 28.7109 69.4716 27.625 69.4716 25.8906C69.4716 24.1641 70.3075 23.0703 71.6434 23.0703Z" fill="#374151"/>
<path d="M302.94 32.78C302.813 32.78 302.687 32.7333 302.587 32.6333C302.393 32.44 302.393 32.12 302.587 31.9267L306.933 27.58C307.253 27.26 307.253 26.74 306.933 26.42L302.587 22.0733C302.393 21.88 302.393 21.56 302.587 21.3667C302.78 21.1733 303.1 21.1733 303.293 21.3667L307.64 25.7133C307.98 26.0533 308.173 26.5133 308.173 27C308.173 27.4867 307.987 27.9467 307.64 28.2867L303.293 32.6333C303.193 32.7267 303.067 32.78 302.94 32.78Z" fill="#111827"/>
</svg>
