<svg width="40" height="41" viewBox="0 0 40 41" fill="none" xmlns="http://www.w3.org/2000/svg">
<rect y="0.5" width="40" height="40" rx="8" fill="#105DFB"/>
<circle cx="20" cy="21" r="14" fill="#105DFB"/>
<path fill-rule="evenodd" clip-rule="evenodd" d="M10.876 26.9595V14.7435H16.5232C18.3372 14.7435 19.8076 16.2139 19.8076 18.0278C19.8076 19.1805 19.4532 19.8945 18.1536 20.627C19.7088 21.3356 20.1407 22.3177 20.1407 23.6875C20.1407 25.5406 18.4944 26.9595 16.6414 26.9595H10.876ZM13.2657 16.7656V19.7031H16.0625C16.0625 19.7031 17.4219 19.7031 17.4219 18.2344C17.4219 16.7656 16.0625 16.7656 16.0625 16.7656H13.2657ZM13.2657 24.8906V21.7188H16.2657C16.75 21.7188 17.7657 21.9688 17.7657 23.4688C17.7657 24.5813 16.7657 24.8802 16.2657 24.8906H13.2657Z" fill="white"/>
<path fill-rule="evenodd" clip-rule="evenodd" d="M25.25 18.1094C23.5313 18.1094 20.9844 19.3438 20.9844 22.625C20.9844 24.623 22.0782 27.1875 25.3594 27.1875C27.9844 27.1875 29.1927 25.2604 29.4688 24.2969H27C26.875 24.7344 26.3907 25.2188 25.3594 25.2188C23.8594 25.2188 23.3282 23.9375 23.25 23.2969H29.4688V22.625C29.4688 19.3438 26.9688 18.1094 25.25 18.1094ZM25.25 19.9844C23.85 19.9844 23.3334 21.1406 23.25 21.7188H27C27 21.1406 26.65 19.9844 25.25 19.9844Z" fill="white"/>
<path d="M22.2657 15.4375V16.9531H28.1563V15.4375H22.2657Z" fill="white"/>
</svg>
