<svg width="94" height="32" viewBox="0 0 94 32" fill="none" xmlns="http://www.w3.org/2000/svg">
<rect width="94" height="32" rx="16" fill="#091A7A"/>
<path d="M16.4928 20V16.4609H20.1257V15.3535H16.4928V12.6758H20.4596V11.5449H15.1803V20H16.4928ZM26.603 13.8359H25.3374V17.4277C25.3374 18.3887 24.7866 19.0215 23.8726 19.0215C22.9995 19.0215 22.5542 18.5176 22.5542 17.5801V13.8359H21.2886V17.8262C21.2886 19.2383 22.1089 20.1113 23.4507 20.1113C24.394 20.1113 25.021 19.6953 25.3608 18.957H25.3901V20H26.603V13.8359ZM27.7718 20H29.0374V11.5449H27.7718V20ZM30.2531 20H31.5187V11.5449H30.2531V20ZM38.5555 20V12.6758H41.1395V11.5449H34.6532V12.6758H37.243V20H38.5555ZM41.6872 20H42.9528V13.8359H41.6872V20ZM42.32 12.9336C42.7301 12.9336 43.0583 12.6113 43.0583 12.2129C43.0583 11.8086 42.7301 11.4863 42.32 11.4863C41.9157 11.4863 41.5876 11.8086 41.5876 12.2129C41.5876 12.6113 41.9157 12.9336 42.32 12.9336ZM44.1157 20H45.3813V16.1914C45.3813 15.4004 45.9145 14.8145 46.6645 14.8145C47.3794 14.8145 47.8306 15.2656 47.8306 15.9746V20H49.0728V16.1504C49.0728 15.3711 49.5942 14.8145 50.3442 14.8145C51.0942 14.8145 51.522 15.2715 51.522 16.0684V20H52.7935V15.7637C52.7935 14.5391 51.9966 13.7305 50.7778 13.7305C49.8989 13.7305 49.1724 14.1875 48.856 14.9375H48.8267C48.5806 14.1699 47.9595 13.7305 47.104 13.7305C46.272 13.7305 45.6274 14.1875 45.352 14.873H45.3228V13.8359H44.1157V20ZM56.4642 14.7441C57.349 14.7441 57.9466 15.4062 57.9759 16.3496H54.8939C54.9583 15.418 55.5794 14.7441 56.4642 14.7441ZM57.97 18.1895C57.8001 18.7285 57.2669 19.0918 56.5462 19.0918C55.5325 19.0918 54.888 18.3828 54.888 17.3105V17.2344H59.2415V16.8008C59.2415 14.9316 58.1751 13.7246 56.4642 13.7246C54.724 13.7246 53.6107 15.0137 53.6107 16.9473C53.6107 18.8926 54.7064 20.1172 56.5169 20.1172C57.929 20.1172 58.9954 19.3145 59.1712 18.1895H57.97Z" fill="white"/>
<path d="M77.2802 13.9667L72.9335 18.3133C72.4202 18.8267 71.5802 18.8267 71.0669 18.3133L66.7202 13.9667" stroke="#F4F4F5" stroke-width="1.5" stroke-miterlimit="10" stroke-linecap="round" stroke-linejoin="round"/>
</svg>
