<svg width="96" height="32" viewBox="0 0 96 32" fill="none" xmlns="http://www.w3.org/2000/svg">
<rect x="0.5" y="0.5" width="95" height="31" rx="15.5" fill="white"/>
<rect x="0.5" y="0.5" width="95" height="31" rx="15.5" stroke="#D1D5DB"/>
<path d="M15.0202 11.5449V20H16.3327V17.1113H18.1491C19.8073 17.1113 20.9733 15.9746 20.9733 14.3223C20.9733 12.6758 19.8307 11.5449 18.1901 11.5449H15.0202ZM16.3327 12.6523H17.8444C18.9811 12.6523 19.6315 13.2617 19.6315 14.3281C19.6315 15.3945 18.9811 16.0098 17.8385 16.0098H16.3327V12.6523ZM24.2163 20.1172C25.98 20.1172 27.1401 18.9043 27.1401 16.918C27.1401 14.9375 25.9741 13.7246 24.2163 13.7246C22.4585 13.7246 21.2925 14.9375 21.2925 16.918C21.2925 18.9043 22.4526 20.1172 24.2163 20.1172ZM24.2163 19.0742C23.2261 19.0742 22.5815 18.2891 22.5815 16.918C22.5815 15.5527 23.2261 14.7676 24.2163 14.7676C25.2065 14.7676 25.8511 15.5527 25.8511 16.918C25.8511 18.2891 25.2124 19.0742 24.2163 19.0742ZM27.8753 15.582C27.8753 16.4434 28.4378 17.0234 29.5511 17.293L30.6527 17.5625C31.2972 17.7266 31.5316 17.9434 31.5316 18.3359C31.5316 18.834 31.0628 19.1504 30.3011 19.1504C29.5277 19.1504 29.0706 18.8223 28.971 18.2305H27.7171C27.8167 19.3613 28.7835 20.1172 30.2425 20.1172C31.7542 20.1172 32.8031 19.3438 32.8031 18.2188C32.8031 17.3105 32.3343 16.8418 31.0921 16.543L30.055 16.3027C29.4163 16.1445 29.1117 15.8867 29.1117 15.5059C29.1117 15.0195 29.5687 14.6855 30.2542 14.6855C30.9632 14.6855 31.4144 15.0312 31.473 15.5879H32.6624C32.6214 14.4922 31.6605 13.7246 30.2894 13.7246C28.848 13.7246 27.8753 14.4805 27.8753 15.582ZM34.0246 12.377V13.8359H33.1281V14.8379H34.0246V18.377C34.0246 19.5664 34.5109 20.041 35.759 20.041C36.0402 20.041 36.3215 20.0176 36.4621 19.9824V18.9805C36.38 18.998 36.175 19.0098 36.0461 19.0098C35.5304 19.0098 35.2961 18.7695 35.2961 18.2363V14.8379H36.4679V13.8359H35.2961V12.377H34.0246ZM41.9989 20.1055C42.8953 20.1055 43.5985 19.6543 43.9618 18.9512H43.9852V20H45.2157V11.5449H43.9442V14.8613H43.9207C43.575 14.1816 42.8719 13.7363 41.9871 13.7363C40.4403 13.7363 39.409 14.9727 39.409 16.918C39.409 18.8633 40.4403 20.1055 41.9989 20.1055ZM42.3328 14.8027C43.3055 14.8027 43.9559 15.6406 43.9559 16.918C43.9559 18.207 43.3055 19.0332 42.3328 19.0332C41.3309 19.0332 40.7039 18.2188 40.7039 16.918C40.7039 15.623 41.3309 14.8027 42.3328 14.8027ZM48.5407 19.1035C47.861 19.1035 47.4157 18.752 47.4157 18.2129C47.4157 17.6855 47.8434 17.3516 48.5993 17.2988L50.1169 17.2051V17.6914C50.1169 18.4941 49.4255 19.1035 48.5407 19.1035ZM48.1891 20.1055C48.9977 20.1055 49.777 19.6719 50.1344 18.9863H50.1637V20H51.3766V15.752C51.3766 14.5156 50.4215 13.7246 48.9274 13.7246C47.404 13.7246 46.4548 14.5449 46.3844 15.6582H47.5798C47.6911 15.1074 48.1481 14.7559 48.8805 14.7559C49.654 14.7559 50.1169 15.166 50.1169 15.8516V16.3262L48.4294 16.4258C46.9645 16.5078 46.1383 17.1699 46.1383 18.248C46.1383 19.3555 46.9821 20.1055 48.1891 20.1055ZM52.8442 12.377V13.8359H51.9478V14.8379H52.8442V18.377C52.8442 19.5664 53.3306 20.041 54.5786 20.041C54.8599 20.041 55.1411 20.0176 55.2817 19.9824V18.9805C55.1997 18.998 54.9946 19.0098 54.8657 19.0098C54.3501 19.0098 54.1157 18.7695 54.1157 18.2363V14.8379H55.2876V13.8359H54.1157V12.377H52.8442ZM58.6243 14.7441C59.5091 14.7441 60.1068 15.4062 60.1361 16.3496H57.054C57.1185 15.418 57.7396 14.7441 58.6243 14.7441ZM60.1302 18.1895C59.9603 18.7285 59.4271 19.0918 58.7064 19.0918C57.6927 19.0918 57.0482 18.3828 57.0482 17.3105V17.2344H61.4017V16.8008C61.4017 14.9316 60.3353 13.7246 58.6243 13.7246C56.8841 13.7246 55.7708 15.0137 55.7708 16.9473C55.7708 18.8926 56.8665 20.1172 58.6771 20.1172C60.0892 20.1172 61.1556 19.3145 61.3314 18.1895H60.1302Z" fill="#6B7280"/>
<path d="M79.2802 13.9667L74.9335 18.3133C74.4202 18.8267 73.5802 18.8267 73.0669 18.3133L68.7202 13.9667" stroke="#6B7280" stroke-width="1.5" stroke-miterlimit="10" stroke-linecap="round" stroke-linejoin="round"/>
</svg>
