<svg width="88" height="32" viewBox="0 0 88 32" fill="none" xmlns="http://www.w3.org/2000/svg">
<rect width="88" height="32" rx="16" fill="#091A7A"/>
<path d="M16.33 12.6465H18.1347C19.1484 12.6465 19.7636 13.2207 19.7636 14.1641C19.7636 15.1309 19.1835 15.6875 18.1698 15.6875H16.33V12.6465ZM16.33 16.748H18.1347L19.8573 20H21.3691L19.4765 16.543C20.5077 16.1973 21.1171 15.2715 21.1171 14.1289C21.1171 12.5527 20.0331 11.5449 18.2929 11.5449H15.0175V20H16.33V16.748ZM24.6589 14.7441C25.5437 14.7441 26.1414 15.4062 26.1707 16.3496H23.0886C23.1531 15.418 23.7742 14.7441 24.6589 14.7441ZM26.1648 18.1895C25.9949 18.7285 25.4617 19.0918 24.741 19.0918C23.7273 19.0918 23.0828 18.3828 23.0828 17.3105V17.2344H27.4363V16.8008C27.4363 14.9316 26.3699 13.7246 24.6589 13.7246C22.9187 13.7246 21.8054 15.0137 21.8054 16.9473C21.8054 18.8926 22.9011 20.1172 24.7117 20.1172C26.1238 20.1172 27.1902 19.3145 27.366 18.1895H26.1648ZM28.2887 20H29.5543V16.1914C29.5543 15.4004 30.0875 14.8145 30.8375 14.8145C31.5523 14.8145 32.0035 15.2656 32.0035 15.9746V20H33.2457V16.1504C33.2457 15.3711 33.7672 14.8145 34.5172 14.8145C35.2672 14.8145 35.6949 15.2715 35.6949 16.0684V20H36.9664V15.7637C36.9664 14.5391 36.1695 13.7305 34.9508 13.7305C34.0719 13.7305 33.3453 14.1875 33.0289 14.9375H32.9996C32.7535 14.1699 32.1324 13.7305 31.2769 13.7305C30.4449 13.7305 29.8004 14.1875 29.525 14.873H29.4957V13.8359H28.2887V20ZM40.7074 20.1172C42.4711 20.1172 43.6313 18.9043 43.6313 16.918C43.6313 14.9375 42.4653 13.7246 40.7074 13.7246C38.9496 13.7246 37.7836 14.9375 37.7836 16.918C37.7836 18.9043 38.9438 20.1172 40.7074 20.1172ZM40.7074 19.0742C39.7172 19.0742 39.0727 18.2891 39.0727 16.918C39.0727 15.5527 39.7172 14.7676 40.7074 14.7676C41.6977 14.7676 42.3422 15.5527 42.3422 16.918C42.3422 18.2891 41.7035 19.0742 40.7074 19.0742ZM44.8469 12.377V13.8359H43.9504V14.8379H44.8469V18.377C44.8469 19.5664 45.3333 20.041 46.5813 20.041C46.8625 20.041 47.1438 20.0176 47.2844 19.9824V18.9805C47.2024 18.998 46.9973 19.0098 46.8684 19.0098C46.3528 19.0098 46.1184 18.7695 46.1184 18.2363V14.8379H47.2903V13.8359H46.1184V12.377H44.8469ZM50.627 14.7441C51.5118 14.7441 52.1095 15.4062 52.1387 16.3496H49.0567C49.1212 15.418 49.7423 14.7441 50.627 14.7441ZM52.1329 18.1895C51.963 18.7285 51.4298 19.0918 50.7091 19.0918C49.6954 19.0918 49.0509 18.3828 49.0509 17.3105V17.2344H53.4044V16.8008C53.4044 14.9316 52.338 13.7246 50.627 13.7246C48.8868 13.7246 47.7735 15.0137 47.7735 16.9473C47.7735 18.8926 48.8692 20.1172 50.6798 20.1172C52.0919 20.1172 53.1583 19.3145 53.3341 18.1895H52.1329Z" fill="white"/>
<path d="M71.2802 13.9667L66.9335 18.3133C66.4202 18.8267 65.5802 18.8267 65.0669 18.3133L60.7202 13.9667" stroke="#F4F4F5" stroke-width="1.5" stroke-miterlimit="10" stroke-linecap="round" stroke-linejoin="round"/>
</svg>
