<svg width="327" height="49" viewBox="0 0 327 49" fill="none" xmlns="http://www.w3.org/2000/svg">
<rect x="0.5" y="0.5" width="326" height="48" rx="24" stroke="#D1D5DB"/>
<path d="M26.0834 24H21.9167C21.5751 24 21.2917 23.7167 21.2917 23.375C21.2917 23.0333 21.5751 22.75 21.9167 22.75H26.0834C26.4251 22.75 26.7084 23.0333 26.7084 23.375C26.7084 23.7167 26.4251 24 26.0834 24Z" fill="#111827"/>
<path d="M18.1083 33.4584C17.7583 33.4584 17.4333 33.3751 17.1416 33.2084C16.5 32.8334 16.1333 32.0751 16.1333 31.1334V19.3834C16.1333 17.2667 17.8583 15.5417 19.975 15.5417H28.0166C30.1333 15.5417 31.8583 17.2667 31.8583 19.3834V31.1251C31.8583 32.0667 31.4916 32.8251 30.85 33.2001C30.2083 33.5751 29.3666 33.5334 28.5416 33.0751L24.475 30.8167C24.2333 30.6834 23.7583 30.6834 23.5166 30.8167L19.45 33.0751C19 33.3251 18.5416 33.4584 18.1083 33.4584ZM19.9833 16.7917C18.5583 16.7917 17.3916 17.9584 17.3916 19.3834V31.1251C17.3916 31.6167 17.5333 31.9834 17.7833 32.1251C18.0333 32.2751 18.425 32.2251 18.85 31.9834L22.9166 29.7251C23.5333 29.3834 24.4666 29.3834 25.0833 29.7251L29.15 31.9834C29.575 32.2251 29.9666 32.2751 30.2166 32.1251C30.4666 31.9751 30.6083 31.6084 30.6083 31.1251V19.3834C30.6083 17.9584 29.4416 16.7917 28.0166 16.7917H19.9833Z" fill="#111827"/>
<path d="M53.7969 30.1875C56.3906 30.1875 58.1562 28.8203 58.5859 26.4922H56.8438C56.4922 27.8516 55.375 28.6562 53.8047 28.6562C51.7344 28.6562 50.4219 26.9922 50.4219 24.3594C50.4219 21.75 51.75 20.0703 53.7969 20.0703C55.3281 20.0703 56.5312 21.0156 56.8438 22.4609H58.5781C58.2812 20.1094 56.3516 18.5391 53.7969 18.5391C50.6484 18.5391 48.6328 20.7891 48.6328 24.3594C48.6328 27.9531 50.6328 30.1875 53.7969 30.1875ZM62.9959 28.8047C62.0897 28.8047 61.4959 28.3359 61.4959 27.6172C61.4959 26.9141 62.0662 26.4688 63.0741 26.3984L65.0975 26.2734V26.9219C65.0975 27.9922 64.1756 28.8047 62.9959 28.8047ZM62.5272 30.1406C63.6053 30.1406 64.6444 29.5625 65.1209 28.6484H65.16V30H66.7772V24.3359C66.7772 22.6875 65.5037 21.6328 63.5116 21.6328C61.4803 21.6328 60.2147 22.7266 60.1209 24.2109H61.7147C61.8631 23.4766 62.4725 23.0078 63.4491 23.0078C64.4803 23.0078 65.0975 23.5547 65.0975 24.4688V25.1016L62.8475 25.2344C60.8944 25.3438 59.7928 26.2266 59.7928 27.6641C59.7928 29.1406 60.9178 30.1406 62.5272 30.1406ZM68.5778 30H70.2653V25.2109C70.2653 23.9375 71.0309 23.0938 72.2184 23.0938C73.3903 23.0938 73.9684 23.7734 73.9684 25.0078V30H75.6637V24.6797C75.6637 22.7969 74.6247 21.6406 72.8122 21.6406C71.5466 21.6406 70.6716 22.2188 70.2262 23.1562H70.1872V21.7812H68.5778V30ZM84.5112 24.6094C84.3628 22.9922 83.0737 21.6328 80.9566 21.6328C78.6206 21.6328 77.0894 23.2812 77.0894 25.8906C77.0894 28.5469 78.6206 30.1562 80.9722 30.1562C82.9487 30.1562 84.3472 28.9688 84.5269 27.2188H82.9019C82.7066 28.1719 82.0269 28.7422 80.9878 28.7422C79.6753 28.7422 78.8081 27.6953 78.8081 25.8906C78.8081 24.125 79.6675 23.0391 80.9722 23.0391C82.0737 23.0391 82.73 23.7344 82.9019 24.6094H84.5112ZM89.3197 22.9922C90.4994 22.9922 91.2962 23.875 91.3353 25.1328H87.2259C87.3119 23.8906 88.14 22.9922 89.3197 22.9922ZM91.3275 27.5859C91.1009 28.3047 90.39 28.7891 89.4291 28.7891C88.0775 28.7891 87.2181 27.8438 87.2181 26.4141V26.3125H93.0228V25.7344C93.0228 23.2422 91.6009 21.6328 89.3197 21.6328C86.9994 21.6328 85.515 23.3516 85.515 25.9297C85.515 28.5234 86.9759 30.1562 89.39 30.1562C91.2728 30.1562 92.6947 29.0859 92.9291 27.5859H91.3275ZM94.5578 30H96.2453V18.7266H94.5578V30ZM101.401 24.1094C101.401 25.2578 102.151 26.0312 103.636 26.3906L105.104 26.75C105.964 26.9688 106.276 27.2578 106.276 27.7812C106.276 28.4453 105.651 28.8672 104.636 28.8672C103.604 28.8672 102.995 28.4297 102.862 27.6406H101.19C101.323 29.1484 102.612 30.1562 104.557 30.1562C106.573 30.1562 107.972 29.125 107.972 27.625C107.972 26.4141 107.347 25.7891 105.69 25.3906L104.307 25.0703C103.456 24.8594 103.05 24.5156 103.05 24.0078C103.05 23.3594 103.659 22.9141 104.573 22.9141C105.518 22.9141 106.12 23.375 106.198 24.1172H107.784C107.729 22.6562 106.448 21.6328 104.62 21.6328C102.698 21.6328 101.401 22.6406 101.401 24.1094ZM112.319 28.8047C111.413 28.8047 110.819 28.3359 110.819 27.6172C110.819 26.9141 111.389 26.4688 112.397 26.3984L114.421 26.2734V26.9219C114.421 27.9922 113.499 28.8047 112.319 28.8047ZM111.85 30.1406C112.928 30.1406 113.967 29.5625 114.444 28.6484H114.483V30H116.1V24.3359C116.1 22.6875 114.827 21.6328 112.835 21.6328C110.803 21.6328 109.538 22.7266 109.444 24.2109H111.038C111.186 23.4766 111.796 23.0078 112.772 23.0078C113.803 23.0078 114.421 23.5547 114.421 24.4688V25.1016L112.171 25.2344C110.217 25.3438 109.116 26.2266 109.116 27.6641C109.116 29.1406 110.241 30.1406 111.85 30.1406ZM124.917 21.7812H123.151L121.088 28.3516H121.057L118.995 21.7812H117.198L120.159 30H121.971L124.917 21.7812ZM129.248 22.9922C130.428 22.9922 131.225 23.875 131.264 25.1328H127.155C127.241 23.8906 128.069 22.9922 129.248 22.9922ZM131.256 27.5859C131.03 28.3047 130.319 28.7891 129.358 28.7891C128.006 28.7891 127.147 27.8438 127.147 26.4141V26.3125H132.952V25.7344C132.952 23.2422 131.53 21.6328 129.248 21.6328C126.928 21.6328 125.444 23.3516 125.444 25.9297C125.444 28.5234 126.905 30.1562 129.319 30.1562C131.202 30.1562 132.623 29.0859 132.858 27.5859H131.256Z" fill="#111827"/>
<path d="M302.94 30.28C302.813 30.28 302.687 30.2333 302.587 30.1333C302.393 29.94 302.393 29.62 302.587 29.4267L306.933 25.08C307.253 24.76 307.253 24.24 306.933 23.92L302.587 19.5733C302.393 19.38 302.393 19.06 302.587 18.8667C302.78 18.6733 303.1 18.6733 303.293 18.8667L307.64 23.2133C307.98 23.5533 308.173 24.0133 308.173 24.5C308.173 24.9867 307.987 25.4467 307.64 25.7867L303.293 30.1333C303.193 30.2267 303.067 30.28 302.94 30.28Z" fill="#111827"/>
</svg>
