<svg width="137" height="38" viewBox="0 0 137 38" fill="none" xmlns="http://www.w3.org/2000/svg">
<rect x="0.5" y="0.5" width="136" height="37" rx="18.5" stroke="#D1D5DB"/>
<path d="M17.875 14.5449H16.8203V20.0352C16.8203 21.8398 18.0801 23.1406 20.1777 23.1406C22.2754 23.1406 23.5352 21.8398 23.5352 20.0352V14.5449H22.4805V19.9648C22.4805 21.2422 21.6426 22.168 20.1777 22.168C18.7129 22.168 17.875 21.2422 17.875 19.9648V14.5449ZM26.3505 23V14.5449H25.2958V23H26.3505ZM28.1638 24.7988L31.158 14.5449H30.2849L27.2908 24.7988H28.1638ZM33.153 14.5449H32.0983V20.0352C32.0983 21.8398 33.358 23.1406 35.4557 23.1406C37.5534 23.1406 38.8131 21.8398 38.8131 20.0352V14.5449H37.7584V19.9648C37.7584 21.2422 36.9205 22.168 35.4557 22.168C33.9909 22.168 33.153 21.2422 33.153 19.9648V14.5449ZM40.0171 23H41.2124L43.4917 19.6309H43.5327L45.7769 23H47.0425L44.189 18.8105V18.7754L47.107 14.5449H45.9058L43.6206 17.9434H43.5796L41.3237 14.5449H40.0523L42.8941 18.7227V18.7637L40.0171 23ZM50.8919 14.5449V23H53.7337C56.2473 23 57.7239 21.4355 57.7239 18.7695C57.7239 16.1094 56.2415 14.5449 53.7337 14.5449H50.8919ZM51.9466 15.4941H53.6634C55.5852 15.4941 56.6458 16.666 56.6458 18.7812C56.6458 20.8789 55.5794 22.0508 53.6634 22.0508H51.9466V15.4941ZM61.4416 17.6855C62.4025 17.6855 63.0412 18.4121 63.0646 19.4316H59.7541C59.8185 18.418 60.4865 17.6855 61.4416 17.6855ZM63.0412 21.2539C62.8713 21.8281 62.3029 22.2207 61.5295 22.2207C60.4338 22.2207 59.7482 21.4531 59.7482 20.2871V20.2285H64.1193V19.8418C64.1193 17.9961 63.1056 16.8008 61.4591 16.8008C59.7775 16.8008 58.6994 18.084 58.6994 19.9766C58.6994 21.8926 59.7599 23.1055 61.506 23.1055C62.8361 23.1055 63.8673 22.3203 64.0431 21.2539H63.0412ZM65.1651 18.5879C65.1651 19.4199 65.6924 19.9707 66.7647 20.2461L67.837 20.5215C68.5225 20.7031 68.7745 20.9375 68.7745 21.3711C68.7745 21.9219 68.2647 22.2734 67.4385 22.2734C66.6123 22.2734 66.1319 21.9336 66.0205 21.3008H65.001C65.1065 22.3789 66.0381 23.1055 67.3741 23.1055C68.7979 23.1055 69.7998 22.3555 69.7998 21.2949C69.7998 20.3984 69.3545 19.9531 68.1241 19.6426L67.1807 19.4141C66.4893 19.2383 66.167 18.957 66.167 18.5352C66.167 18.002 66.6592 17.6328 67.4034 17.6328C68.1534 17.6328 68.628 17.9961 68.6983 18.582H69.6709C69.6241 17.5508 68.6983 16.8008 67.4385 16.8008C66.0967 16.8008 65.1651 17.5449 65.1651 18.5879ZM71.0331 23H72.0527V16.9062H71.0331V23ZM71.5429 15.8809C71.8945 15.8809 72.1816 15.5938 72.1816 15.248C72.1816 14.8965 71.8945 14.6152 71.5429 14.6152C71.1972 14.6152 70.9101 14.8965 70.9101 15.248C70.9101 15.5938 71.1972 15.8809 71.5429 15.8809ZM76.0281 22.1504C74.9793 22.1504 74.2938 21.2949 74.2938 19.9297C74.2938 18.5645 74.9793 17.6973 76.0281 17.6973C77.0887 17.6973 77.7977 18.5879 77.7977 19.9297C77.7977 21.2715 77.0887 22.1504 76.0281 22.1504ZM76.0633 25.2969C77.7449 25.2969 78.8172 24.3301 78.8172 22.877V16.9062H77.8445V17.9316H77.827C77.4227 17.2227 76.7078 16.8008 75.8465 16.8008C74.2703 16.8008 73.2508 18.0195 73.2508 19.9297C73.2508 21.8223 74.2703 23.0469 75.823 23.0469C76.6785 23.0469 77.3992 22.6133 77.7742 21.9512H77.7977V22.9121C77.7977 23.8203 77.159 24.4297 76.1043 24.4297C75.3426 24.4297 74.7391 24.0605 74.5398 23.5039H73.491C73.6609 24.541 74.7215 25.2969 76.0633 25.2969ZM80.2673 23H81.2868V19.4141C81.2868 18.3828 81.9137 17.7031 82.8747 17.7031C83.8122 17.7031 84.2751 18.2422 84.2751 19.2266V23H85.2946V19.0449C85.2946 17.6621 84.5212 16.8008 83.1852 16.8008C82.2419 16.8008 81.5915 17.2227 81.2516 17.8789H81.2282V16.9062H80.2673V23ZM89.1588 17.6855C90.1197 17.6855 90.7584 18.4121 90.7818 19.4316H87.4713C87.5357 18.418 88.2037 17.6855 89.1588 17.6855ZM90.7584 21.2539C90.5884 21.8281 90.0201 22.2207 89.2466 22.2207C88.1509 22.2207 87.4654 21.4531 87.4654 20.2871V20.2285H91.8365V19.8418C91.8365 17.9961 90.8228 16.8008 89.1763 16.8008C87.4947 16.8008 86.4166 18.084 86.4166 19.9766C86.4166 21.8926 87.4771 23.1055 89.2232 23.1055C90.5533 23.1055 91.5845 22.3203 91.7603 21.2539H90.7584ZM92.9877 23H94.0073V19.2031C94.0073 18.3418 94.5229 17.7734 95.3139 17.7734C95.56 17.7734 95.7768 17.8027 95.8588 17.832V16.8418C95.7768 16.8301 95.6245 16.8008 95.4487 16.8008C94.7338 16.8008 94.1713 17.2285 93.9721 17.9023H93.9487V16.9062H92.9877V23Z" fill="#111827"/>
<path d="M113 22.2C112.533 22.2 112.067 22.0201 111.713 21.6667L107.367 17.3201C107.173 17.1267 107.173 16.8067 107.367 16.6134C107.56 16.4201 107.88 16.4201 108.073 16.6134L112.42 20.9601C112.74 21.2801 113.26 21.2801 113.58 20.9601L117.927 16.6134C118.12 16.4201 118.44 16.4201 118.633 16.6134C118.827 16.8067 118.827 17.1267 118.633 17.3201L114.287 21.6667C113.933 22.0201 113.467 22.2 113 22.2Z" fill="#111827"/>
</svg>
