<svg width="40" height="40" viewBox="0 0 40 40" fill="none" xmlns="http://www.w3.org/2000/svg">
<rect width="40" height="40" rx="20" fill="#D6E4FF"/>
<path d="M20.1331 19.6833C20.1081 19.6833 20.0915 19.6833 20.0665 19.6833C20.0248 19.675 19.9665 19.675 19.9165 19.6833C17.4998 19.6083 15.6748 17.7083 15.6748 15.3667C15.6748 12.9833 17.6165 11.0417 19.9998 11.0417C22.3831 11.0417 24.3248 12.9833 24.3248 15.3667C24.3165 17.7083 22.4831 19.6083 20.1581 19.6833C20.1498 19.6833 20.1415 19.6833 20.1331 19.6833ZM19.9998 12.2917C18.3081 12.2917 16.9248 13.675 16.9248 15.3667C16.9248 17.0333 18.2248 18.375 19.8831 18.4333C19.9248 18.425 20.0415 18.425 20.1498 18.4333C21.7831 18.3583 23.0665 17.0167 23.0748 15.3667C23.0748 13.675 21.6915 12.2917 19.9998 12.2917Z" fill="#3366FF"/>
<path d="M20.1413 28.7917C18.508 28.7917 16.8663 28.375 15.6247 27.5417C14.4663 26.775 13.833 25.725 13.833 24.5833C13.833 23.4417 14.4663 22.3833 15.6247 21.6083C18.1247 19.95 22.1747 19.95 24.658 21.6083C25.808 22.375 26.4497 23.425 26.4497 24.5667C26.4497 25.7083 25.8163 26.7667 24.658 27.5417C23.408 28.375 21.7747 28.7917 20.1413 28.7917ZM16.3163 22.6583C15.5163 23.1917 15.083 23.875 15.083 24.5917C15.083 25.3 15.5247 25.9833 16.3163 26.5083C18.3913 27.9 21.8913 27.9 23.9663 26.5083C24.7663 25.975 25.1997 25.2917 25.1997 24.575C25.1997 23.8667 24.758 23.1833 23.9663 22.6583C21.8913 21.275 18.3913 21.275 16.3163 22.6583Z" fill="#3366FF"/>
</svg>
