<svg width="48" height="48" viewBox="0 0 48 48" fill="none" xmlns="http://www.w3.org/2000/svg">
<rect x="0.5" y="0.5" width="47" height="47" rx="23.5" stroke="#D1D5DB"/>
<path d="M34 19.25H28C27.59 19.25 27.25 18.91 27.25 18.5C27.25 18.09 27.59 17.75 28 17.75H34C34.41 17.75 34.75 18.09 34.75 18.5C34.75 18.91 34.41 19.25 34 19.25Z" fill="#292D32"/>
<path d="M18 19.25H14C13.59 19.25 13.25 18.91 13.25 18.5C13.25 18.09 13.59 17.75 14 17.75H18C18.41 17.75 18.75 18.09 18.75 18.5C18.75 18.91 18.41 19.25 18 19.25Z" fill="#292D32"/>
<path d="M22 22.75C19.66 22.75 17.75 20.84 17.75 18.5C17.75 16.16 19.66 14.25 22 14.25C24.34 14.25 26.25 16.16 26.25 18.5C26.25 20.84 24.34 22.75 22 22.75ZM22 15.75C20.48 15.75 19.25 16.98 19.25 18.5C19.25 20.02 20.48 21.25 22 21.25C23.52 21.25 24.75 20.02 24.75 18.5C24.75 16.98 23.52 15.75 22 15.75Z" fill="#292D32"/>
<path d="M34 30.25H30C29.59 30.25 29.25 29.91 29.25 29.5C29.25 29.09 29.59 28.75 30 28.75H34C34.41 28.75 34.75 29.09 34.75 29.5C34.75 29.91 34.41 30.25 34 30.25Z" fill="#292D32"/>
<path d="M20 30.25H14C13.59 30.25 13.25 29.91 13.25 29.5C13.25 29.09 13.59 28.75 14 28.75H20C20.41 28.75 20.75 29.09 20.75 29.5C20.75 29.91 20.41 30.25 20 30.25Z" fill="#292D32"/>
<path d="M26 33.75C23.66 33.75 21.75 31.84 21.75 29.5C21.75 27.16 23.66 25.25 26 25.25C28.34 25.25 30.25 27.16 30.25 29.5C30.25 31.84 28.34 33.75 26 33.75ZM26 26.75C24.48 26.75 23.25 27.98 23.25 29.5C23.25 31.02 24.48 32.25 26 32.25C27.52 32.25 28.75 31.02 28.75 29.5C28.75 27.98 27.52 26.75 26 26.75Z" fill="#292D32"/>
</svg>
