<svg width="25" height="24" viewBox="0 0 25 24" fill="none" xmlns="http://www.w3.org/2000/svg">
<path d="M21.5299 8.01L14.9799 2.77C13.6999 1.75 11.6999 1.74 10.4299 2.76L3.87991 8.01C2.93991 8.76 2.36991 10.26 2.56991 11.44L3.82991 18.98C4.11991 20.67 5.68991 22 7.39991 22H17.9999C19.6899 22 21.2899 20.64 21.5799 18.97L22.8399 11.43C23.0199 10.26 22.4499 8.76 21.5299 8.01ZM13.4499 18C13.4499 18.41 13.1099 18.75 12.6999 18.75C12.2899 18.75 11.9499 18.41 11.9499 18V15C11.9499 14.59 12.2899 14.25 12.6999 14.25C13.1099 14.25 13.4499 14.59 13.4499 15V18Z" fill="#3366FF"/>
</svg>
