<svg width="25" height="24" viewBox="0 0 25 24" fill="none" xmlns="http://www.w3.org/2000/svg">
<path d="M12.7 18.75C12.29 18.75 11.95 18.41 11.95 18V15C11.95 14.59 12.29 14.25 12.7 14.25C13.11 14.25 13.45 14.59 13.45 15V18C13.45 18.41 13.11 18.75 12.7 18.75Z" fill="#9CA3AF"/>
<path d="M18.2999 22.5601H7.09991C5.27991 22.5601 3.61991 21.1601 3.31991 19.3701L1.98991 11.4001C1.76991 10.1601 2.37991 8.57007 3.36991 7.78007L10.2999 2.23007C11.6399 1.15007 13.7499 1.16007 15.0999 2.24007L22.0299 7.78007C23.0099 8.57007 23.6099 10.1601 23.4099 11.4001L22.0799 19.3601C21.7799 21.1301 20.0799 22.5601 18.2999 22.5601ZM12.6899 2.93007C12.1599 2.93007 11.6299 3.09007 11.2399 3.40007L4.30991 8.96007C3.74991 9.41007 3.34991 10.4501 3.46991 11.1601L4.79991 19.1201C4.97991 20.1701 6.02991 21.0601 7.09991 21.0601H18.2999C19.3699 21.0601 20.4199 20.1701 20.5999 19.1101L21.9299 11.1501C22.0399 10.4501 21.6399 9.39007 21.0899 8.95007L14.1599 3.41007C13.7599 3.09007 13.2199 2.93007 12.6899 2.93007Z" fill="#9CA3AF"/>
</svg>
