<svg width="40" height="41" viewBox="0 0 40 41" fill="none" xmlns="http://www.w3.org/2000/svg">
<rect y="0.5" width="40" height="40" rx="8" fill="#FF3366"/>
<circle cx="20" cy="21" r="14" fill="#FF3366"/>
<path d="M15.3594 15.8594C16.3259 15.8594 17.1094 15.0759 17.1094 14.1094C17.1094 13.1429 16.3259 12.3594 15.3594 12.3594C14.3929 12.3594 13.6094 13.1429 13.6094 14.1094C13.6094 15.0759 14.3929 15.8594 15.3594 15.8594Z" fill="white"/>
<path d="M11.7031 17.3594L11.0938 19.5938H13.0938C12.6927 21.224 11.8531 24.6531 11.7031 25.3281C11.5156 26.1719 11.4843 28.5781 14.0156 28.5781C15.7824 28.5781 16.9093 27.4368 17.5379 26.5048L17.0625 28.4062H19.9062L21.3906 22.3981C21.6016 21.3984 22.0981 19.4688 23.8906 19.4688C26.0225 19.4688 25.2404 21.9933 24.8571 23.2305C24.8415 23.2809 24.8266 23.3291 24.8125 23.375C24.525 24.3125 24.2188 25.4062 24.2188 26.1562C24.2188 27 24.6094 28.5781 26.7969 28.5781C28.9844 28.5781 29.9167 26.4115 30.1094 25.3281L29 24.875C28.9219 25.4531 28.2188 26.7031 27.5625 26.7031C26.6641 26.7031 27.1154 25.1885 27.597 23.5721C27.8106 22.8551 28.0302 22.1181 28.1406 21.4844C28.4198 19.8821 28.1406 17.1562 25.3594 17.1562C23.632 17.1562 22.2756 18.6955 21.6303 19.7641L22.1719 17.3594H17.8438L17.25 19.5938H19.2656C19.2656 19.5938 18.0695 24.4683 17.9922 24.6211C17.1797 26.2266 15.9508 26.7655 15.0312 26.7031C14.2938 26.6531 14.3802 25.7656 14.5156 25.3281L16.5156 17.3594H11.7031Z" fill="white"/>
</svg>
