<svg width="40" height="40" viewBox="0 0 40 40" fill="none" xmlns="http://www.w3.org/2000/svg">
<circle cx="20" cy="20" r="20" fill="#D6E4FF"/>
<path d="M28 13.75H22C21.59 13.75 21.25 13.41 21.25 13C21.25 12.59 21.59 12.25 22 12.25H28C28.41 12.25 28.75 12.59 28.75 13C28.75 13.41 28.41 13.75 28 13.75Z" fill="#3366FF"/>
<path d="M25 16.75H22C21.59 16.75 21.25 16.41 21.25 16C21.25 15.59 21.59 15.25 22 15.25H25C25.41 15.25 25.75 15.59 25.75 16C25.75 16.41 25.41 16.75 25 16.75Z" fill="#3366FF"/>
<path d="M19.5 29.75C13.85 29.75 9.25 25.15 9.25 19.5C9.25 13.85 13.85 9.25 19.5 9.25C19.91 9.25 20.25 9.59 20.25 10C20.25 10.41 19.91 10.75 19.5 10.75C14.67 10.75 10.75 14.68 10.75 19.5C10.75 24.32 14.67 28.25 19.5 28.25C24.33 28.25 28.25 24.32 28.25 19.5C28.25 19.09 28.59 18.75 29 18.75C29.41 18.75 29.75 19.09 29.75 19.5C29.75 25.15 25.15 29.75 19.5 29.75Z" fill="#3366FF"/>
<path d="M29.9999 30.7499C29.8099 30.7499 29.6199 30.6799 29.4699 30.5299L27.4699 28.5299C27.1799 28.2399 27.1799 27.7599 27.4699 27.4699C27.7599 27.1799 28.2399 27.1799 28.5299 27.4699L30.5299 29.4699C30.8199 29.7599 30.8199 30.2399 30.5299 30.5299C30.3799 30.6799 30.1899 30.7499 29.9999 30.7499Z" fill="#3366FF"/>
</svg>
