<svg width="40" height="40" viewBox="0 0 40 40" fill="none" xmlns="http://www.w3.org/2000/svg">
<rect width="40" height="40" rx="20" fill="#D6E4FF"/>
<path d="M19.9998 28.9583C15.0582 28.9583 11.0415 24.9417 11.0415 20C11.0415 15.0583 15.0582 11.0417 19.9998 11.0417C24.9415 11.0417 28.9582 15.0583 28.9582 20C28.9582 24.9417 24.9415 28.9583 19.9998 28.9583ZM19.9998 12.2917C15.7498 12.2917 12.2915 15.75 12.2915 20C12.2915 24.25 15.7498 27.7083 19.9998 27.7083C24.2498 27.7083 27.7082 24.25 27.7082 20C27.7082 15.75 24.2498 12.2917 19.9998 12.2917Z" fill="#3366FF"/>
<path d="M17.5002 28.125H16.6669C16.3252 28.125 16.0419 27.8417 16.0419 27.5C16.0419 27.1583 16.3085 26.8833 16.6502 26.875C15.3419 22.4083 15.3419 17.5917 16.6502 13.125C16.3085 13.1167 16.0419 12.8417 16.0419 12.5C16.0419 12.1583 16.3252 11.875 16.6669 11.875H17.5002C17.7002 11.875 17.8919 11.975 18.0085 12.1333C18.1252 12.3 18.1585 12.5083 18.0919 12.7C16.5252 17.4083 16.5252 22.5917 18.0919 27.3083C18.1585 27.5 18.1252 27.7083 18.0085 27.875C17.8919 28.025 17.7002 28.125 17.5002 28.125Z" fill="#3366FF"/>
<path d="M22.5 28.125C22.4333 28.125 22.3667 28.1167 22.3 28.0917C21.975 27.9833 21.7917 27.625 21.9083 27.3C23.475 22.5917 23.475 17.4083 21.9083 12.6917C21.8 12.3667 21.975 12.0083 22.3 11.9C22.6333 11.7917 22.9833 11.9667 23.0917 12.2917C24.75 17.2583 24.75 22.725 23.0917 27.6833C23.0083 27.9583 22.7583 28.125 22.5 28.125Z" fill="#3366FF"/>
<path d="M20 24.3333C17.675 24.3333 15.3583 24.0083 13.125 23.35C13.1167 23.6833 12.8417 23.9583 12.5 23.9583C12.1583 23.9583 11.875 23.675 11.875 23.3333V22.5C11.875 22.3 11.975 22.1083 12.1333 21.9917C12.3 21.875 12.5083 21.8417 12.7 21.9083C17.4083 23.475 22.6 23.475 27.3083 21.9083C27.5 21.8417 27.7083 21.875 27.875 21.9917C28.0417 22.1083 28.1333 22.3 28.1333 22.5V23.3333C28.1333 23.675 27.85 23.9583 27.5083 23.9583C27.1667 23.9583 26.8917 23.6917 26.8833 23.35C24.6417 24.0083 22.325 24.3333 20 24.3333Z" fill="#3366FF"/>
<path d="M27.5001 18.125C27.4335 18.125 27.3668 18.1167 27.3001 18.0917C22.5918 16.525 17.4001 16.525 12.6918 18.0917C12.3585 18.2 12.0085 18.025 11.9001 17.7C11.8001 17.3667 11.9751 17.0167 12.3001 16.9083C17.2668 15.25 22.7335 15.25 27.6918 16.9083C28.0168 17.0167 28.2001 17.375 28.0835 17.7C28.0085 17.9583 27.7585 18.125 27.5001 18.125Z" fill="#3366FF"/>
</svg>
