<svg width="20" height="21" viewBox="0 0 20 21" fill="none" xmlns="http://www.w3.org/2000/svg">
<path d="M9.9999 12.3084C8.2249 12.3084 6.7749 10.8667 6.7749 9.08337C6.7749 7.30003 8.2249 5.8667 9.9999 5.8667C11.7749 5.8667 13.2249 7.30837 13.2249 9.0917C13.2249 10.875 11.7749 12.3084 9.9999 12.3084ZM9.9999 7.1167C8.91657 7.1167 8.0249 8.00003 8.0249 9.0917C8.0249 10.1834 8.90824 11.0667 9.9999 11.0667C11.0916 11.0667 11.9749 10.1834 11.9749 9.0917C11.9749 8.00003 11.0832 7.1167 9.9999 7.1167Z" fill="#111827"/>
<path d="M9.9999 19.4665C8.76657 19.4665 7.5249 18.9998 6.55824 18.0748C4.0999 15.7082 1.38324 11.9332 2.40824 7.4415C3.33324 3.3665 6.89157 1.5415 9.9999 1.5415C9.9999 1.5415 9.9999 1.5415 10.0082 1.5415C13.1166 1.5415 16.6749 3.3665 17.5999 7.44984C18.6166 11.9415 15.8999 15.7082 13.4416 18.0748C12.4749 18.9998 11.2332 19.4665 9.9999 19.4665ZM9.9999 2.7915C7.5749 2.7915 4.45824 4.08317 3.63324 7.7165C2.73324 11.6415 5.1999 15.0248 7.43324 17.1665C8.8749 18.5582 11.1332 18.5582 12.5749 17.1665C14.7999 15.0248 17.2666 11.6415 16.3832 7.7165C15.5499 4.08317 12.4249 2.7915 9.9999 2.7915Z" fill="#111827"/>
</svg>
