<svg width="20" height="20" viewBox="0 0 20 20" fill="none" xmlns="http://www.w3.org/2000/svg">
<path d="M15 8.45829C14.9699 8.45829 14.9386 8.44601 14.9129 8.42036C14.8873 8.39472 14.875 8.36344 14.875 8.33329V6.66663C14.875 5.3316 14.6924 4.08243 13.9337 3.1742C13.1579 2.24546 11.8854 1.79163 10 1.79163C8.11455 1.79163 6.84211 2.24546 6.06627 3.1742C5.30756 4.08243 5.125 5.3316 5.125 6.66663V8.33329C5.125 8.36344 5.11272 8.39472 5.08707 8.42036C5.06143 8.44601 5.03015 8.45829 5 8.45829C4.96985 8.45829 4.93857 8.44601 4.91293 8.42036C4.88728 8.39472 4.875 8.36344 4.875 8.33329V6.66663C4.875 5.47951 5.02312 4.20693 5.70595 3.23538C6.36327 2.30014 7.59282 1.54163 10 1.54163C12.4072 1.54163 13.6367 2.30014 14.2941 3.23538C14.9769 4.20693 15.125 5.47951 15.125 6.66663V8.33329C15.125 8.36344 15.1127 8.39472 15.0871 8.42036C15.0614 8.44601 15.0301 8.45829 15 8.45829Z" fill="#292D32" stroke="#9CA3AF"/>
<path d="M9.99984 15.5417C8.78431 15.5417 7.7915 14.5489 7.7915 13.3333C7.7915 12.1178 8.78431 11.125 9.99984 11.125C11.2154 11.125 12.2082 12.1178 12.2082 13.3333C12.2082 14.5489 11.2154 15.5417 9.99984 15.5417ZM9.99984 11.375C8.92369 11.375 8.0415 12.2572 8.0415 13.3333C8.0415 14.4095 8.92369 15.2917 9.99984 15.2917C11.076 15.2917 11.9582 14.4095 11.9582 13.3333C11.9582 12.2572 11.076 11.375 9.99984 11.375Z" fill="#292D32" stroke="#9CA3AF"/>
<path d="M14.1665 18.4584H5.83317C4.01289 18.4584 2.99921 18.1736 2.41277 17.5871C1.82632 17.0007 1.5415 15.987 1.5415 14.1667V12.5C1.5415 10.6798 1.82632 9.66608 2.41277 9.07964C2.99921 8.49319 4.01289 8.20837 5.83317 8.20837H14.1665C15.9868 8.20837 17.0005 8.49319 17.5869 9.07964C18.1734 9.66608 18.4582 10.6798 18.4582 12.5V14.1667C18.4582 15.987 18.1734 17.0007 17.5869 17.5871C17.0005 18.1736 15.9868 18.4584 14.1665 18.4584ZM5.83317 8.45837C5.07851 8.45837 4.44211 8.49353 3.91792 8.60418C3.38816 8.71601 2.93711 8.91225 2.58968 9.26039C2.2423 9.60847 2.04708 10.0598 1.93602 10.5889C1.82612 11.1125 1.7915 11.7477 1.7915 12.5V14.1667C1.7915 14.9191 1.82612 15.5543 1.93602 16.0779C2.04708 16.607 2.2423 17.0583 2.58968 17.4064C2.93711 17.7545 3.38816 17.9507 3.91792 18.0626C4.44211 18.1732 5.07851 18.2084 5.83317 18.2084H14.1665C14.9212 18.2084 15.5576 18.1732 16.0818 18.0626C16.6115 17.9507 17.0626 17.7545 17.41 17.4064C17.7574 17.0583 17.9526 16.607 18.0637 16.0779C18.1736 15.5543 18.2082 14.9191 18.2082 14.1667V12.5C18.2082 11.7477 18.1736 11.1125 18.0637 10.5889C17.9526 10.0598 17.7574 9.60847 17.41 9.26039C17.0626 8.91225 16.6115 8.71601 16.0818 8.60418C15.5576 8.49353 14.9212 8.45837 14.1665 8.45837H5.83317Z" fill="#292D32" stroke="#9CA3AF"/>
</svg>
