<svg width="40" height="40" viewBox="0 0 40 40" fill="none" xmlns="http://www.w3.org/2000/svg">
<rect width="40" height="40" rx="20" fill="#D6E4FF"/>
<path d="M25 18.9583C24.6583 18.9583 24.375 18.675 24.375 18.3333V16.6667C24.375 14.0417 23.6333 12.2917 20 12.2917C16.3667 12.2917 15.625 14.0417 15.625 16.6667V18.3333C15.625 18.675 15.3417 18.9583 15 18.9583C14.6583 18.9583 14.375 18.675 14.375 18.3333V16.6667C14.375 14.25 14.9583 11.0417 20 11.0417C25.0417 11.0417 25.625 14.25 25.625 16.6667V18.3333C25.625 18.675 25.3417 18.9583 25 18.9583Z" fill="#3366FF"/>
<path d="M19.9998 26.0417C18.5082 26.0417 17.2915 24.825 17.2915 23.3333C17.2915 21.8417 18.5082 20.625 19.9998 20.625C21.4915 20.625 22.7082 21.8417 22.7082 23.3333C22.7082 24.825 21.4915 26.0417 19.9998 26.0417ZM19.9998 21.875C19.1998 21.875 18.5415 22.5333 18.5415 23.3333C18.5415 24.1333 19.1998 24.7917 19.9998 24.7917C20.7998 24.7917 21.4582 24.1333 21.4582 23.3333C21.4582 22.5333 20.7998 21.875 19.9998 21.875Z" fill="#3366FF"/>
<path d="M24.1665 28.9583H15.8332C12.1582 28.9583 11.0415 27.8417 11.0415 24.1667V22.5C11.0415 18.825 12.1582 17.7083 15.8332 17.7083H24.1665C27.8415 17.7083 28.9582 18.825 28.9582 22.5V24.1667C28.9582 27.8417 27.8415 28.9583 24.1665 28.9583ZM15.8332 18.9583C12.8498 18.9583 12.2915 19.525 12.2915 22.5V24.1667C12.2915 27.1417 12.8498 27.7083 15.8332 27.7083H24.1665C27.1498 27.7083 27.7082 27.1417 27.7082 24.1667V22.5C27.7082 19.525 27.1498 18.9583 24.1665 18.9583H15.8332Z" fill="#3366FF"/>
</svg>
