<svg width="327" height="52" viewBox="0 0 327 52" fill="none" xmlns="http://www.w3.org/2000/svg">
<rect x="0.5" y="0.5" width="326" height="51" rx="25.5" stroke="#D1D5DB"/>
<path d="M31 35.25H21C17.35 35.25 15.25 33.15 15.25 29.5V22.5C15.25 18.85 17.35 16.75 21 16.75H31C34.65 16.75 36.75 18.85 36.75 22.5V29.5C36.75 33.15 34.65 35.25 31 35.25ZM21 18.25C18.14 18.25 16.75 19.64 16.75 22.5V29.5C16.75 32.36 18.14 33.75 21 33.75H31C33.86 33.75 35.25 32.36 35.25 29.5V22.5C35.25 19.64 33.86 18.25 31 18.25H21Z" fill="#374151"/>
<path d="M25.9998 26.87C25.1598 26.87 24.3098 26.61 23.6598 26.08L20.5298 23.58C20.2098 23.32 20.1498 22.85 20.4098 22.53C20.6698 22.21 21.1398 22.15 21.4598 22.41L24.5898 24.91C25.3498 25.52 26.6398 25.52 27.3998 24.91L30.5298 22.41C30.8498 22.15 31.3298 22.2 31.5798 22.53C31.8398 22.85 31.7898 23.33 31.4598 23.58L28.3298 26.08C27.6898 26.61 26.8398 26.87 25.9998 26.87Z" fill="#374151"/>
<path d="M62.4453 31.5V20.2266H60.4141L56.7734 29.125H56.7109L53.0625 20.2266H51.0391V31.5H52.6328V23.2031H52.6875L56.0938 31.4141H57.3906L60.7891 23.2031H60.8438V31.5H62.4453ZM67.1366 30.3047C66.2303 30.3047 65.6366 29.8359 65.6366 29.1172C65.6366 28.4141 66.2069 27.9688 67.2147 27.8984L69.2381 27.7734V28.4219C69.2381 29.4922 68.3162 30.3047 67.1366 30.3047ZM66.6678 31.6406C67.7459 31.6406 68.785 31.0625 69.2616 30.1484H69.3006V31.5H70.9178V25.8359C70.9178 24.1875 69.6444 23.1328 67.6522 23.1328C65.6209 23.1328 64.3553 24.2266 64.2616 25.7109H65.8553C66.0037 24.9766 66.6131 24.5078 67.5897 24.5078C68.6209 24.5078 69.2381 25.0547 69.2381 25.9688V26.6016L66.9881 26.7344C65.035 26.8438 63.9334 27.7266 63.9334 29.1641C63.9334 30.6406 65.0584 31.6406 66.6678 31.6406ZM72.7184 31.5H74.4059V26.5781C74.4059 25.4141 75.0778 24.6875 76.1637 24.6875C76.4919 24.6875 76.7887 24.7266 76.9216 24.7812V23.2109C76.7966 23.1875 76.5856 23.1484 76.3434 23.1484C75.3747 23.1484 74.6403 23.7188 74.3669 24.6797H74.3278V23.2812H72.7184V31.5ZM79.8941 26.8047H79.8784V20.2266H78.1909V31.5H79.8784V28.5469L80.5816 27.8516L83.3706 31.5H85.3316L81.7925 26.8203L85.1987 23.2812H83.2144L79.8941 26.8047ZM92.6516 30.3047C91.7453 30.3047 91.1516 29.8359 91.1516 29.1172C91.1516 28.4141 91.7219 27.9688 92.7297 27.8984L94.7531 27.7734V28.4219C94.7531 29.4922 93.8312 30.3047 92.6516 30.3047ZM92.1828 31.6406C93.2609 31.6406 94.3 31.0625 94.7766 30.1484H94.8156V31.5H96.4328V25.8359C96.4328 24.1875 95.1594 23.1328 93.1672 23.1328C91.1359 23.1328 89.8703 24.2266 89.7766 25.7109H91.3703C91.5187 24.9766 92.1281 24.5078 93.1047 24.5078C94.1359 24.5078 94.7531 25.0547 94.7531 25.9688V26.6016L92.5031 26.7344C90.55 26.8438 89.4484 27.7266 89.4484 29.1641C89.4484 30.6406 90.5734 31.6406 92.1828 31.6406ZM98.085 25.6094C98.085 26.7578 98.835 27.5312 100.319 27.8906L101.788 28.25C102.647 28.4688 102.96 28.7578 102.96 29.2812C102.96 29.9453 102.335 30.3672 101.319 30.3672C100.288 30.3672 99.6787 29.9297 99.5459 29.1406H97.8741C98.0069 30.6484 99.2959 31.6562 101.241 31.6562C103.257 31.6562 104.655 30.625 104.655 29.125C104.655 27.9141 104.03 27.2891 102.374 26.8906L100.991 26.5703C100.14 26.3594 99.7334 26.0156 99.7334 25.5078C99.7334 24.8594 100.343 24.4141 101.257 24.4141C102.202 24.4141 102.804 24.875 102.882 25.6172H104.468C104.413 24.1562 103.132 23.1328 101.304 23.1328C99.3819 23.1328 98.085 24.1406 98.085 25.6094ZM116.585 23.2812H114.897V28.0703C114.897 29.3516 114.163 30.1953 112.944 30.1953C111.78 30.1953 111.186 29.5234 111.186 28.2734V23.2812H109.499V28.6016C109.499 30.4844 110.592 31.6484 112.382 31.6484C113.639 31.6484 114.475 31.0938 114.928 30.1094H114.967V31.5H116.585V23.2812ZM118.417 31.5H120.104V26.7109C120.104 25.4375 120.87 24.5938 122.057 24.5938C123.229 24.5938 123.807 25.2734 123.807 26.5078V31.5H125.503V26.1797C125.503 24.2969 124.463 23.1406 122.651 23.1406C121.385 23.1406 120.51 23.7188 120.065 24.6562H120.026V23.2812H118.417V31.5ZM127.295 31.5H128.983V26.5781C128.983 25.4141 129.655 24.6875 130.741 24.6875C131.069 24.6875 131.366 24.7266 131.498 24.7812V23.2109C131.373 23.1875 131.162 23.1484 130.92 23.1484C129.952 23.1484 129.217 23.7188 128.944 24.6797H128.905V23.2812H127.295V31.5ZM135.783 24.4922C136.963 24.4922 137.76 25.375 137.799 26.6328H133.69C133.776 25.3906 134.604 24.4922 135.783 24.4922ZM137.791 29.0859C137.565 29.8047 136.854 30.2891 135.893 30.2891C134.541 30.2891 133.682 29.3438 133.682 27.9141V27.8125H139.487V27.2344C139.487 24.7422 138.065 23.1328 135.783 23.1328C133.463 23.1328 131.979 24.8516 131.979 27.4297C131.979 30.0234 133.44 31.6562 135.854 31.6562C137.737 31.6562 139.158 30.5859 139.393 29.0859H137.791ZM143.834 30.3047C142.928 30.3047 142.334 29.8359 142.334 29.1172C142.334 28.4141 142.904 27.9688 143.912 27.8984L145.936 27.7734V28.4219C145.936 29.4922 145.014 30.3047 143.834 30.3047ZM143.365 31.6406C144.443 31.6406 145.482 31.0625 145.959 30.1484H145.998V31.5H147.615V25.8359C147.615 24.1875 146.342 23.1328 144.35 23.1328C142.318 23.1328 141.053 24.2266 140.959 25.7109H142.553C142.701 24.9766 143.311 24.5078 144.287 24.5078C145.318 24.5078 145.936 25.0547 145.936 25.9688V26.6016L143.686 26.7344C141.732 26.8438 140.631 27.7266 140.631 29.1641C140.631 30.6406 141.756 31.6406 143.365 31.6406ZM152.502 31.6406C153.697 31.6406 154.635 31.0391 155.119 30.1016H155.15V31.5H156.791V20.2266H155.096V24.6484H155.064C154.603 23.7422 153.666 23.1484 152.486 23.1484C150.424 23.1484 149.049 24.7969 149.049 27.3906C149.049 29.9844 150.424 31.6406 152.502 31.6406ZM152.947 24.5703C154.244 24.5703 155.111 25.6875 155.111 27.3906C155.111 29.1094 154.244 30.2109 152.947 30.2109C151.611 30.2109 150.775 29.125 150.775 27.3906C150.775 25.6641 151.611 24.5703 152.947 24.5703Z" fill="#374151"/>
<path d="M302.94 31.78C302.814 31.78 302.687 31.7333 302.587 31.6333C302.394 31.44 302.394 31.12 302.587 30.9267L306.934 26.58C307.254 26.26 307.254 25.74 306.934 25.42L302.587 21.0733C302.394 20.88 302.394 20.56 302.587 20.3667C302.78 20.1733 303.1 20.1733 303.294 20.3667L307.64 24.7133C307.98 25.0533 308.174 25.5133 308.174 26C308.174 26.4867 307.987 26.9467 307.64 27.2867L303.294 31.6333C303.194 31.7267 303.067 31.78 302.94 31.78Z" fill="#111827"/>
</svg>
