<svg width="25" height="24" viewBox="0 0 25 24" fill="none" xmlns="http://www.w3.org/2000/svg">
<path d="M12.0999 22.81C11.4099 22.81 10.7599 22.46 10.2999 21.85L8.79985 19.85C8.76985 19.81 8.64985 19.76 8.59985 19.75H8.09985C3.92985 19.75 1.34985 18.62 1.34985 13V8C1.34985 3.58 3.67985 1.25 8.09985 1.25H16.0999C20.5199 1.25 22.8499 3.58 22.8499 8V13C22.8499 17.42 20.5199 19.75 16.0999 19.75H15.5999C15.5199 19.75 15.4499 19.79 15.3999 19.85L13.8999 21.85C13.4399 22.46 12.7899 22.81 12.0999 22.81ZM8.09985 2.75C4.51985 2.75 2.84985 4.42 2.84985 8V13C2.84985 17.52 4.39985 18.25 8.09985 18.25H8.59985C9.10985 18.25 9.68985 18.54 9.99985 18.95L11.4999 20.95C11.8499 21.41 12.3499 21.41 12.6999 20.95L14.1999 18.95C14.5299 18.51 15.0499 18.25 15.5999 18.25H16.0999C19.6799 18.25 21.3499 16.58 21.3499 13V8C21.3499 4.42 19.6799 2.75 16.0999 2.75H8.09985Z" fill="#9CA3AF"/>
<path d="M12.0999 12C11.5399 12 11.0999 11.55 11.0999 11C11.0999 10.45 11.5499 10 12.0999 10C12.6499 10 13.0999 10.45 13.0999 11C13.0999 11.55 12.6599 12 12.0999 12Z" fill="#9CA3AF"/>
<path d="M16.0999 12C15.5399 12 15.0999 11.55 15.0999 11C15.0999 10.45 15.5499 10 16.0999 10C16.6499 10 17.0999 10.45 17.0999 11C17.0999 11.55 16.6599 12 16.0999 12Z" fill="#9CA3AF"/>
<path d="M8.09985 12C7.53985 12 7.09985 11.55 7.09985 11C7.09985 10.45 7.54985 10 8.09985 10C8.64985 10 9.09985 10.45 9.09985 11C9.09985 11.55 8.65985 12 8.09985 12Z" fill="#9CA3AF"/>
</svg>
