<svg width="25" height="24" viewBox="0 0 25 24" fill="none" xmlns="http://www.w3.org/2000/svg">
<path d="M17.1001 2H7.1001C4.3401 2 2.1001 4.23 2.1001 6.98V12.96V13.96C2.1001 16.71 4.3401 18.94 7.1001 18.94H8.6001C8.8701 18.94 9.2301 19.12 9.4001 19.34L10.9001 21.33C11.5601 22.21 12.6401 22.21 13.3001 21.33L14.8001 19.34C14.9901 19.09 15.2901 18.94 15.6001 18.94H17.1001C19.8601 18.94 22.1001 16.71 22.1001 13.96V6.98C22.1001 4.23 19.8601 2 17.1001 2ZM8.1001 12C7.5401 12 7.1001 11.55 7.1001 11C7.1001 10.45 7.5501 10 8.1001 10C8.6501 10 9.1001 10.45 9.1001 11C9.1001 11.55 8.6601 12 8.1001 12ZM12.1001 12C11.5401 12 11.1001 11.55 11.1001 11C11.1001 10.45 11.5501 10 12.1001 10C12.6501 10 13.1001 10.45 13.1001 11C13.1001 11.55 12.6601 12 12.1001 12ZM16.1001 12C15.5401 12 15.1001 11.55 15.1001 11C15.1001 10.45 15.5501 10 16.1001 10C16.6501 10 17.1001 10.45 17.1001 11C17.1001 11.55 16.6601 12 16.1001 12Z" fill="#3366FF"/>
</svg>
