<svg width="42" height="42" viewBox="0 0 42 42" fill="none" xmlns="http://www.w3.org/2000/svg">
<circle cx="21" cy="21" r="20.5" stroke="#D1D5DB"/>
<path d="M20.9198 24.4617C18.7364 24.4617 16.9614 22.6867 16.9614 20.5033V15.92C16.9614 13.7367 18.7364 11.9617 20.9198 11.9617C23.1031 11.9617 24.8781 13.7367 24.8781 15.92V20.5033C24.8781 22.6867 23.1031 24.4617 20.9198 24.4617ZM20.9198 13.2117C19.4281 13.2117 18.2114 14.4283 18.2114 15.92V20.5033C18.2114 21.995 19.4281 23.2117 20.9198 23.2117C22.4114 23.2117 23.6281 21.995 23.6281 20.5033V15.92C23.6281 14.4283 22.4114 13.2117 20.9198 13.2117Z" fill="#292D32"/>
<path d="M20.9199 27.3783C17.0616 27.3783 13.9199 24.2367 13.9199 20.3783V18.9617C13.9199 18.62 14.2033 18.3367 14.5449 18.3367C14.8866 18.3367 15.1699 18.62 15.1699 18.9617V20.3783C15.1699 23.545 17.7533 26.1283 20.9199 26.1283C24.0866 26.1283 26.6699 23.545 26.6699 20.3783V18.9617C26.6699 18.62 26.9533 18.3367 27.2949 18.3367C27.6366 18.3367 27.9199 18.62 27.9199 18.9617V20.3783C27.9199 24.2367 24.7783 27.3783 20.9199 27.3783Z" fill="#292D32"/>
<path d="M22.0783 16.9034C22.0116 16.9034 21.9366 16.895 21.8616 16.87C21.2533 16.645 20.5866 16.645 19.9783 16.87C19.6533 16.9867 19.295 16.82 19.1783 16.495C19.0616 16.17 19.2283 15.8117 19.5533 15.695C20.4366 15.3784 21.4116 15.3784 22.295 15.695C22.62 15.8117 22.7866 16.17 22.67 16.495C22.57 16.745 22.3283 16.9034 22.0783 16.9034Z" fill="#292D32"/>
<path d="M21.5865 18.67C21.5282 18.67 21.4782 18.6617 21.4198 18.645C21.0865 18.5534 20.7448 18.5534 20.4115 18.645C20.0782 18.7367 19.7365 18.5367 19.6448 18.2034C19.5532 17.8784 19.7532 17.5367 20.0865 17.445C20.6282 17.295 21.2115 17.295 21.7532 17.445C22.0865 17.5367 22.2865 17.8784 22.1948 18.2117C22.1198 18.4867 21.8615 18.67 21.5865 18.67Z" fill="#292D32"/>
<path d="M20.9199 29.8782C20.5783 29.8782 20.2949 29.5948 20.2949 29.2532V26.7532C20.2949 26.4115 20.5783 26.1282 20.9199 26.1282C21.2616 26.1282 21.5449 26.4115 21.5449 26.7532V29.2532C21.5449 29.5948 21.2616 29.8782 20.9199 29.8782Z" fill="#292D32"/>
</svg>
