<svg width="327" height="52" viewBox="0 0 327 52" fill="none" xmlns="http://www.w3.org/2000/svg">
<rect x="0.5" y="0.5" width="326" height="51" rx="25.5" stroke="#D1D5DB"/>
<path d="M26.0201 16.9102C22.7101 16.9102 20.0201 19.6002 20.0201 22.9102V25.8002C20.0201 26.4102 19.7601 27.3402 19.4501 27.8602L18.3001 29.7702C17.5901 30.9502 18.0801 32.2602 19.3801 32.7002C23.6901 34.1402 28.3401 34.1402 32.6501 32.7002C33.8601 32.3002 34.3901 30.8702 33.7301 29.7702L32.5801 27.8602C32.2801 27.3402 32.0201 26.4102 32.0201 25.8002V22.9102C32.0201 19.6102 29.3201 16.9102 26.0201 16.9102Z" stroke="#374151" stroke-width="1.5" stroke-miterlimit="10" stroke-linecap="round"/>
<path d="M27.8699 17.1999C27.5599 17.1099 27.2399 17.0399 26.9099 16.9999C25.9499 16.8799 25.0299 16.9499 24.1699 17.1999C24.4599 16.4599 25.1799 15.9399 26.0199 15.9399C26.8599 15.9399 27.5799 16.4599 27.8699 17.1999Z" stroke="#374151" stroke-width="1.5" stroke-miterlimit="10" stroke-linecap="round" stroke-linejoin="round"/>
<path d="M29.02 33.0601C29.02 34.7101 27.67 36.0601 26.02 36.0601C25.2 36.0601 24.44 35.7201 23.9 35.1801C23.36 34.6401 23.02 33.8801 23.02 33.0601" stroke="#374151" stroke-width="1.5" stroke-miterlimit="10"/>
<path d="M62.4453 31.5V20.2266H60.4141L56.7734 29.125H56.7109L53.0625 20.2266H51.0391V31.5H52.6328V23.2031H52.6875L56.0938 31.4141H57.3906L60.7891 23.2031H60.8438V31.5H62.4453ZM71.5272 23.2812H69.8397V28.0703C69.8397 29.3516 69.1053 30.1953 67.8866 30.1953C66.7225 30.1953 66.1287 29.5234 66.1287 28.2734V23.2812H64.4412V28.6016C64.4412 30.4844 65.535 31.6484 67.3241 31.6484C68.5819 31.6484 69.4178 31.0938 69.8709 30.1094H69.91V31.5H71.5272V23.2812ZM73.8512 21.3359V23.2812H72.6559V24.6172H73.8512V29.3359C73.8512 30.9219 74.4997 31.5547 76.1637 31.5547C76.5387 31.5547 76.9137 31.5234 77.1012 31.4766V30.1406C76.9919 30.1641 76.7184 30.1797 76.5466 30.1797C75.8591 30.1797 75.5466 29.8594 75.5466 29.1484V24.6172H77.1091V23.2812H75.5466V21.3359H73.8512ZM81.8941 24.4922C83.0737 24.4922 83.8706 25.375 83.9097 26.6328H79.8003C79.8862 25.3906 80.7144 24.4922 81.8941 24.4922ZM83.9019 29.0859C83.6753 29.8047 82.9644 30.2891 82.0034 30.2891C80.6519 30.2891 79.7925 29.3438 79.7925 27.9141V27.8125H85.5972V27.2344C85.5972 24.7422 84.1753 23.1328 81.8941 23.1328C79.5737 23.1328 78.0894 24.8516 78.0894 27.4297C78.0894 30.0234 79.5503 31.6562 81.9644 31.6562C83.8472 31.6562 85.2691 30.5859 85.5034 29.0859H83.9019Z" fill="#374151"/>
<path d="M302.94 31.78C302.814 31.78 302.687 31.7333 302.587 31.6333C302.394 31.44 302.394 31.12 302.587 30.9267L306.934 26.58C307.254 26.26 307.254 25.74 306.934 25.42L302.587 21.0733C302.394 20.88 302.394 20.56 302.587 20.3667C302.78 20.1733 303.1 20.1733 303.294 20.3667L307.64 24.7133C307.98 25.0533 308.174 25.5133 308.174 26C308.174 26.4867 307.987 26.9467 307.64 27.2867L303.294 31.6333C303.194 31.7267 303.067 31.78 302.94 31.78Z" fill="#111827"/>
</svg>
