<svg width="48" height="48" viewBox="0 0 48 48" fill="none" xmlns="http://www.w3.org/2000/svg">
<rect x="0.5" y="0.5" width="47" height="47" rx="23.5" stroke="#D1D5DB"/>
<path d="M24.0201 14.91C20.7101 14.91 18.0201 17.6 18.0201 20.91V23.8C18.0201 24.41 17.7601 25.34 17.4501 25.86L16.3001 27.77C15.5901 28.95 16.0801 30.26 17.3801 30.7C21.6901 32.14 26.3401 32.14 30.6501 30.7C31.8601 30.3 32.3901 28.87 31.7301 27.77L30.5801 25.86C30.2801 25.34 30.0201 24.41 30.0201 23.8V20.91C30.0201 17.61 27.3201 14.91 24.0201 14.91Z" stroke="#292D32" stroke-width="1.5" stroke-miterlimit="10" stroke-linecap="round"/>
<path d="M25.8699 15.2C25.5599 15.11 25.2399 15.04 24.9099 15C23.9499 14.88 23.0299 14.95 22.1699 15.2C22.4599 14.46 23.1799 13.94 24.0199 13.94C24.8599 13.94 25.5799 14.46 25.8699 15.2Z" stroke="#292D32" stroke-width="1.5" stroke-miterlimit="10" stroke-linecap="round" stroke-linejoin="round"/>
<path d="M27.02 31.06C27.02 32.71 25.67 34.06 24.02 34.06C23.2 34.06 22.44 33.72 21.9 33.18C21.36 32.64 21.02 31.88 21.02 31.06" stroke="#292D32" stroke-width="1.5" stroke-miterlimit="10"/>
</svg>
