<svg width="40" height="40" viewBox="0 0 40 40" fill="none" xmlns="http://www.w3.org/2000/svg">
<rect width="40" height="40" rx="20" fill="#D6E4FF"/>
<path d="M13.295 24.6374L13.295 24.6374L13.293 24.6321C13.111 24.1489 13.1652 23.6003 13.4778 23.0839L13.4784 23.0829L14.4367 21.4912L14.4371 21.4906C14.5699 21.2693 14.6803 20.971 14.7571 20.6921C14.834 20.4129 14.8917 20.1001 14.8917 19.8417V17.4333C14.8917 14.6095 17.1929 12.3083 20.0167 12.3083C22.8406 12.3083 25.1417 14.6095 25.1417 17.4333V19.8417C25.1417 20.0963 25.1996 20.4091 25.276 20.689C25.3526 20.9694 25.4625 21.2703 25.5935 21.4942L25.5935 21.4943L25.5963 21.4989L26.5458 23.0814C26.5458 23.0815 26.5459 23.0816 26.546 23.0817C26.8263 23.5513 26.879 24.1186 26.689 24.636C26.5007 25.1491 26.0922 25.5388 25.5771 25.7084L25.5771 25.7084L25.574 25.7094C23.7936 26.3082 21.9059 26.6083 20.0167 26.6083C18.1284 26.6083 16.2413 26.3085 14.4528 25.71C13.8775 25.5108 13.4701 25.1191 13.295 24.6374ZM13.6967 23.2087L13.6967 23.2087L13.6953 23.2111C13.4587 23.609 13.3557 24.0943 13.5316 24.5498C13.6972 25.0095 14.0878 25.3138 14.5301 25.4648L14.5329 25.4658C18.1192 26.6669 21.9222 26.6669 25.5085 25.4659C25.952 25.3179 26.3012 24.9818 26.462 24.5365C26.6188 24.1023 26.5851 23.619 26.3363 23.2081C26.3362 23.2079 26.3361 23.2077 26.336 23.2075L25.3802 21.62C25.1084 21.1534 24.8917 20.3508 24.8917 19.8333V17.4333C24.8917 14.7405 22.7095 12.5583 20.0167 12.5583C17.3329 12.5583 15.1417 14.7399 15.1417 17.4333V19.8417C15.1417 20.3578 14.9174 21.1689 14.6535 21.6196L13.6967 23.2087Z" fill="#3366FF" stroke="#3366FF"/>
<path d="M21.5292 12.7776L21.5292 12.7776L21.5248 12.7763C21.2655 12.7048 21.0122 12.6503 20.7651 12.6137L20.7651 12.6137L20.756 12.6125C19.9832 12.5125 19.2289 12.5661 18.5154 12.7793L18.5154 12.7792L18.5055 12.7823C18.4676 12.7945 18.4201 12.7838 18.3876 12.7479C18.3535 12.7102 18.3466 12.6627 18.3632 12.622L18.3633 12.622L18.3659 12.6152C18.633 11.9313 19.2819 11.4833 20.0252 11.4833C20.7692 11.4833 21.4148 11.9231 21.6822 12.6095C21.7031 12.6683 21.6886 12.7167 21.6656 12.7446C21.6421 12.7676 21.6046 12.7833 21.5668 12.7833C21.5568 12.7833 21.5447 12.782 21.5292 12.7776Z" fill="#3366FF" stroke="#3366FF"/>
<path d="M18.1618 27.7381C17.7911 27.3674 17.5406 26.8921 17.4405 26.3833H17.6957C17.7921 26.8255 18.0143 27.2381 18.338 27.5619C18.7816 28.0054 19.392 28.2583 20.0166 28.2583C21.1546 28.2583 22.1084 27.4536 22.3386 26.3833H22.594C22.3602 27.5934 21.2945 28.5083 20.0166 28.5083C19.325 28.5083 18.652 28.2282 18.1618 27.7381Z" fill="#292D32" stroke="#3366FF"/>
</svg>
