<svg width="42" height="42" viewBox="0 0 42 42" fill="none" xmlns="http://www.w3.org/2000/svg">
<circle cx="21" cy="21" r="20.5" stroke="#D1D5DB"/>
<path d="M21.2752 28.7834C20.3669 28.7834 19.4585 28.4417 18.7669 27.75C17.3835 26.3667 17.3835 24.125 18.7669 22.7417L20.8335 20.6834C21.0752 20.4417 21.4752 20.4417 21.7169 20.6834C21.9585 20.925 21.9585 21.325 21.7169 21.5667L19.6502 23.625C18.7585 24.5167 18.7585 25.975 19.6502 26.8667C20.5419 27.7584 22.0002 27.7584 22.8919 26.8667L26.1335 23.625C27.1169 22.6417 27.6585 21.3334 27.6585 19.9417C27.6585 18.55 27.1169 17.2417 26.1335 16.2584C24.1002 14.225 20.8002 14.225 18.7669 16.2584L15.2335 19.7917C14.4085 20.6167 13.9502 21.7167 13.9502 22.8834C13.9502 24.05 14.4085 25.15 15.2335 25.975C15.4752 26.2167 15.4752 26.6167 15.2335 26.8584C14.9919 27.1 14.5919 27.1 14.3502 26.8584C13.2919 25.7917 12.7002 24.3834 12.7002 22.8834C12.7002 21.3834 13.2835 19.9667 14.3502 18.9084L17.8835 15.375C20.4002 12.8584 24.5002 12.8584 27.0169 15.375C28.2335 16.5917 28.9085 18.2167 28.9085 19.9417C28.9085 21.6667 28.2335 23.2917 27.0169 24.5084L23.7752 27.75C23.0835 28.4417 22.1835 28.7834 21.2752 28.7834Z" fill="#292D32"/>
</svg>
