<svg width="40" height="40" viewBox="0 0 40 40" fill="none" xmlns="http://www.w3.org/2000/svg">
<path d="M13.7782 24.4667C13.4715 24.4667 13.2649 24.4967 13.1582 24.5267V26.4901C13.2849 26.5201 13.4432 26.5284 13.6615 26.5284C14.4599 26.5284 14.9515 26.1251 14.9515 25.4434C14.9515 24.8334 14.5282 24.4667 13.7782 24.4667ZM19.5899 24.4867C19.2565 24.4867 19.0399 24.5167 18.9115 24.5467V28.8967C19.0399 28.9267 19.2465 28.9267 19.4332 28.9267C20.7949 28.9367 21.6815 28.1867 21.6815 26.6001C21.6915 25.2167 20.8832 24.4867 19.5899 24.4867Z" fill="#DB291F"/>
<path d="M23.9194 3.91904C23.5444 3.54397 23.0357 3.33325 22.5052 3.33325H10.0003C9.11627 3.33325 8.26842 3.68444 7.6433 4.30956C7.01818 4.93468 6.66699 5.78253 6.66699 6.66659V33.3333C6.66699 34.2173 7.01818 35.0652 7.6433 35.6903C8.26842 36.3154 9.11627 36.6666 10.0003 36.6666H30.0003C30.8844 36.6666 31.7322 36.3154 32.3573 35.6903C32.9825 35.0652 33.3337 34.2173 33.3337 33.3333V14.1617C33.3337 13.6312 33.1229 13.1225 32.7479 12.7475L23.9194 3.91904ZM15.8303 26.9833C15.3153 27.4666 14.5553 27.6833 13.6703 27.6833C13.4987 27.6851 13.3272 27.6751 13.157 27.6533V30.0299H11.667V23.4699C12.3394 23.3696 13.0189 23.3239 13.6987 23.3333C14.627 23.3333 15.287 23.5099 15.732 23.8649C16.1553 24.2016 16.442 24.7533 16.442 25.4033C16.4403 26.0566 16.2237 26.6083 15.8303 26.9833ZM22.1753 29.2416C21.4753 29.8233 20.4103 30.0999 19.1087 30.0999C18.3287 30.0999 17.777 30.0499 17.402 29.9999V23.4716C18.0747 23.3734 18.7539 23.3272 19.4337 23.3333C20.6953 23.3333 21.5153 23.5599 22.1553 24.0433C22.847 24.5566 23.2803 25.3749 23.2803 26.5499C23.2803 27.8216 22.8153 28.6999 22.1753 29.2416ZM28.3337 24.6166H25.7803V26.1349H28.167V27.3583H25.7803V30.0316H24.2703V23.3833H28.3337V24.6166ZM23.3337 14.9999H21.667V6.66659L30.0003 14.9999H23.3337Z" fill="#DB291F"/>
</svg>
