<svg width="40" height="40" viewBox="0 0 40 40" fill="none" xmlns="http://www.w3.org/2000/svg">
<rect width="40" height="40" rx="20" fill="#D6E4FF"/>
<path d="M20.0002 24.9C19.7919 24.9 19.5752 24.825 19.4085 24.675L17.2585 22.7917C16.4502 22.0833 16.3419 20.8667 17.0169 20.025C17.7002 19.175 18.9169 19.0167 19.7919 19.675L20.0002 19.8333L20.2169 19.6667C21.0919 19.0083 22.3085 19.1667 22.9919 20.0167C23.6669 20.8583 23.5585 22.075 22.7502 22.7833L20.6002 24.6667C20.4252 24.825 20.2085 24.9 20.0002 24.9ZM18.0752 21.85L20.0002 23.5333L21.9252 21.85C22.2335 21.5833 22.2752 21.125 22.0169 20.8083C21.7585 20.4833 21.3002 20.425 20.9669 20.675L20.3752 21.1167C20.1502 21.2833 19.8502 21.2833 19.6252 21.1167L19.0335 20.675C18.7085 20.425 18.2419 20.4833 17.9835 20.8083C17.7335 21.125 17.7752 21.5833 18.0752 21.85Z" fill="#3366FF"/>
<path d="M24.1665 28.9583H15.8332C12.1582 28.9583 11.0415 27.8417 11.0415 24.1667V15.8333C11.0415 12.1583 12.1582 11.0417 15.8332 11.0417H17.0832C18.5415 11.0417 18.9998 11.5167 19.5832 12.2917L20.8332 13.9583C21.1082 14.325 21.1498 14.375 21.6665 14.375H24.1665C27.8415 14.375 28.9582 15.4917 28.9582 19.1667V24.1667C28.9582 27.8417 27.8415 28.9583 24.1665 28.9583ZM15.8332 12.2917C12.8498 12.2917 12.2915 12.8583 12.2915 15.8333V24.1667C12.2915 27.1417 12.8498 27.7083 15.8332 27.7083H24.1665C27.1498 27.7083 27.7082 27.1417 27.7082 24.1667V19.1667C27.7082 16.1917 27.1498 15.625 24.1665 15.625H21.6665C20.5998 15.625 20.2498 15.2583 19.8332 14.7083L18.5832 13.0417C18.1498 12.4667 18.0165 12.2917 17.0832 12.2917H15.8332Z" fill="#3366FF"/>
</svg>
