<svg width="25" height="24" viewBox="0 0 25 24" fill="none" xmlns="http://www.w3.org/2000/svg">
<path d="M12.4596 11.62C12.4296 11.62 12.4096 11.62 12.3796 11.62C12.3296 11.61 12.2596 11.61 12.1996 11.62C9.29962 11.53 7.10962 9.25 7.10962 6.44C7.10962 3.58 9.43962 1.25 12.2996 1.25C15.1596 1.25 17.4896 3.58 17.4896 6.44C17.4796 9.25 15.2796 11.53 12.4896 11.62C12.4796 11.62 12.4696 11.62 12.4596 11.62ZM12.2996 2.75C10.2696 2.75 8.60962 4.41 8.60962 6.44C8.60962 8.44 10.1696 10.05 12.1596 10.12C12.2096 10.11 12.3496 10.11 12.4796 10.12C14.4396 10.03 15.9796 8.42 15.9896 6.44C15.9896 4.41 14.3296 2.75 12.2996 2.75Z" fill="#9CA3AF"/>
<path d="M12.4697 22.55C10.5097 22.55 8.53966 22.05 7.04966 21.05C5.65966 20.13 4.89966 18.87 4.89966 17.5C4.89966 16.13 5.65966 14.86 7.04966 13.93C10.0497 11.94 14.9097 11.94 17.8897 13.93C19.2697 14.85 20.0397 16.11 20.0397 17.48C20.0397 18.85 19.2797 20.12 17.8897 21.05C16.3897 22.05 14.4297 22.55 12.4697 22.55ZM7.87966 15.19C6.91966 15.83 6.39966 16.65 6.39966 17.51C6.39966 18.36 6.92966 19.18 7.87966 19.81C10.3697 21.48 14.5697 21.48 17.0597 19.81C18.0197 19.17 18.5397 18.35 18.5397 17.49C18.5397 16.64 18.0097 15.82 17.0597 15.19C14.5697 13.53 10.3697 13.53 7.87966 15.19Z" fill="#9CA3AF"/>
</svg>
