<svg width="18" height="20" viewBox="0 0 18 20" fill="none" xmlns="http://www.w3.org/2000/svg">
<path d="M13.72 0H4.07997C1.94997 0 0.219971 1.74 0.219971 3.86V17.95C0.219971 19.75 1.50997 20.51 3.08997 19.64L7.96997 16.93C8.48997 16.64 9.32997 16.64 9.83997 16.93L14.72 19.64C16.3 20.52 17.59 19.76 17.59 17.95V3.86C17.58 1.74 15.85 0 13.72 0ZM11.4 9.4H6.39997C5.98997 9.4 5.64997 9.06 5.64997 8.65C5.64997 8.24 5.98997 7.9 6.39997 7.9H11.4C11.81 7.9 12.15 8.24 12.15 8.65C12.15 9.06 11.81 9.4 11.4 9.4Z" fill="#3366FF"/>
</svg>
