<svg width="25" height="24" viewBox="0 0 25 24" fill="none" xmlns="http://www.w3.org/2000/svg">
<path d="M15.3999 11.4H10.3999C9.9899 11.4 9.6499 11.06 9.6499 10.65C9.6499 10.24 9.9899 9.9 10.3999 9.9H15.3999C15.8099 9.9 16.1499 10.24 16.1499 10.65C16.1499 11.06 15.8099 11.4 15.3999 11.4Z" fill="#9CA3AF"/>
<path d="M5.82996 22.75C5.40996 22.75 5.01996 22.65 4.66996 22.45C3.89996 22 3.45996 21.09 3.45996 19.96V5.86C3.45996 3.32 5.52996 1.25 8.06996 1.25H17.72C20.26 1.25 22.33 3.32 22.33 5.86V19.95C22.33 21.08 21.89 21.99 21.12 22.44C20.35 22.89 19.34 22.84 18.35 22.29L13.47 19.58C13.18 19.42 12.61 19.42 12.32 19.58L7.43996 22.29C6.89996 22.59 6.34996 22.75 5.82996 22.75ZM8.07996 2.75C6.36996 2.75 4.96996 4.15 4.96996 5.86V19.95C4.96996 20.54 5.13996 20.98 5.43996 21.15C5.73996 21.33 6.20996 21.27 6.71996 20.98L11.6 18.27C12.34 17.86 13.46 17.86 14.2 18.27L19.08 20.98C19.59 21.27 20.06 21.33 20.36 21.15C20.66 20.97 20.83 20.53 20.83 19.95V5.86C20.83 4.15 19.43 2.75 17.72 2.75H8.07996Z" fill="#9CA3AF"/>
</svg>
