<svg width="16" height="16" viewBox="0 0 16 16" fill="none" xmlns="http://www.w3.org/2000/svg">
<path d="M13.3333 3.83334H9.33325C9.05992 3.83334 8.83325 3.60667 8.83325 3.33334C8.83325 3.06 9.05992 2.83334 9.33325 2.83334H13.3333C13.6066 2.83334 13.8333 3.06 13.8333 3.33334C13.8333 3.60667 13.6066 3.83334 13.3333 3.83334Z" fill="#111827"/>
<path d="M11.3333 5.83334H9.33325C9.05992 5.83334 8.83325 5.60667 8.83325 5.33334C8.83325 5.06 9.05992 4.83334 9.33325 4.83334H11.3333C11.6066 4.83334 11.8333 5.06 11.8333 5.33334C11.8333 5.60667 11.6066 5.83334 11.3333 5.83334Z" fill="#111827"/>
<path d="M7.66659 14.5C3.89992 14.5 0.833252 11.4333 0.833252 7.66667C0.833252 3.9 3.89992 0.833336 7.66659 0.833336C7.93992 0.833336 8.16659 1.06 8.16659 1.33334C8.16659 1.60667 7.93992 1.83334 7.66659 1.83334C4.44659 1.83334 1.83325 4.45334 1.83325 7.66667C1.83325 10.88 4.44659 13.5 7.66659 13.5C10.8866 13.5 13.4999 10.88 13.4999 7.66667C13.4999 7.39334 13.7266 7.16667 13.9999 7.16667C14.2733 7.16667 14.4999 7.39334 14.4999 7.66667C14.4999 11.4333 11.4333 14.5 7.66659 14.5Z" fill="#111827"/>
<path d="M14.6666 15.1667C14.54 15.1667 14.4133 15.12 14.3133 15.02L12.98 13.6867C12.7866 13.4933 12.7866 13.1733 12.98 12.98C13.1733 12.7867 13.4933 12.7867 13.6866 12.98L15.02 14.3133C15.2133 14.5067 15.2133 14.8267 15.02 15.02C14.92 15.12 14.7933 15.1667 14.6666 15.1667Z" fill="#111827"/>
</svg>
