<svg width="327" height="49" viewBox="0 0 327 49" fill="none" xmlns="http://www.w3.org/2000/svg">
<rect x="0.5" y="0.5" width="326" height="48" rx="24" stroke="#D1D5DB"/>
<path d="M26.7167 33.0417H21.2833C17.1917 33.0417 15.4417 31.2917 15.4417 27.2001V27.0917C15.4417 23.3917 16.9 21.6084 20.1667 21.3001C20.5 21.2751 20.8167 21.5251 20.85 21.8667C20.8833 22.2084 20.6333 22.5167 20.2833 22.5501C17.6667 22.7917 16.6917 24.0251 16.6917 27.1001V27.2084C16.6917 30.6001 17.8916 31.8001 21.2833 31.8001H26.7167C30.1083 31.8001 31.3083 30.6001 31.3083 27.2084V27.1001C31.3083 24.0084 30.3166 22.7751 27.65 22.5501C27.3083 22.5167 27.05 22.2167 27.0833 21.8751C27.1166 21.5334 27.4083 21.2751 27.7583 21.3084C31.075 21.5917 32.5583 23.3834 32.5583 27.1084V27.2167C32.5583 31.2917 30.8083 33.0417 26.7167 33.0417Z" fill="#111827"/>
<path d="M24 27.6249C23.6583 27.6249 23.375 27.3416 23.375 26.9999V17.5166C23.375 17.1749 23.6583 16.8916 24 16.8916C24.3417 16.8916 24.625 17.1749 24.625 17.5166V26.9999C24.625 27.3416 24.3417 27.6249 24 27.6249Z" fill="#111827"/>
<path d="M26.7917 20C26.6334 20 26.475 19.9417 26.35 19.8167L24 17.4667L21.65 19.8167C21.4084 20.0584 21.0084 20.0584 20.7667 19.8167C20.525 19.575 20.525 19.175 20.7667 18.9334L23.5584 16.1417C23.8 15.9 24.2 15.9 24.4417 16.1417L27.2334 18.9334C27.475 19.175 27.475 19.575 27.2334 19.8167C27.1167 19.9417 26.95 20 26.7917 20Z" fill="#111827"/>
<path d="M48.5391 26.8594C48.6484 28.8984 50.3359 30.1875 52.8359 30.1875C55.5078 30.1875 57.1875 28.8672 57.1875 26.7578C57.1875 25.1094 56.2266 24.1797 53.9141 23.6328L52.6719 23.3281C51.2188 22.9688 50.625 22.5 50.625 21.7031C50.625 20.7031 51.5547 20.0156 52.9141 20.0156C54.2734 20.0156 55.2031 20.6953 55.3047 21.8203H57.0078C56.9531 19.875 55.3203 18.5391 52.9375 18.5391C50.5312 18.5391 48.8359 19.875 48.8359 21.8203C48.8359 23.3906 49.7969 24.3594 51.8672 24.8594L53.3281 25.2109C54.7891 25.5703 55.4062 26.0938 55.4062 26.9688C55.4062 27.9766 54.3828 28.7109 52.9609 28.7109C51.4766 28.7109 50.3906 27.9766 50.2656 26.8594H48.5391ZM58.7772 30H60.4647V25.25C60.4647 23.9531 61.2303 23.0938 62.4803 23.0938C63.6678 23.0938 64.2772 23.8203 64.2772 25.0312V30H65.9725V24.7031C65.9725 22.8438 64.8944 21.6406 63.0897 21.6406C61.8397 21.6406 60.9412 22.1953 60.4881 23.1562H60.4491V18.7266H58.7772V30ZM70.6403 28.8047C69.7341 28.8047 69.1403 28.3359 69.1403 27.6172C69.1403 26.9141 69.7106 26.4688 70.7184 26.3984L72.7419 26.2734V26.9219C72.7419 27.9922 71.82 28.8047 70.6403 28.8047ZM70.1716 30.1406C71.2497 30.1406 72.2887 29.5625 72.7653 28.6484H72.8044V30H74.4216V24.3359C74.4216 22.6875 73.1481 21.6328 71.1559 21.6328C69.1247 21.6328 67.8591 22.7266 67.7653 24.2109H69.3591C69.5075 23.4766 70.1169 23.0078 71.0934 23.0078C72.1247 23.0078 72.7419 23.5547 72.7419 24.4688V25.1016L70.4919 25.2344C68.5387 25.3438 67.4372 26.2266 67.4372 27.6641C67.4372 29.1406 68.5622 30.1406 70.1716 30.1406ZM76.2222 30H77.9097V25.0781C77.9097 23.9141 78.5816 23.1875 79.6675 23.1875C79.9956 23.1875 80.2925 23.2266 80.4253 23.2812V21.7109C80.3003 21.6875 80.0894 21.6484 79.8472 21.6484C78.8784 21.6484 78.1441 22.2188 77.8706 23.1797H77.8316V21.7812H76.2222V30ZM84.7103 22.9922C85.89 22.9922 86.6869 23.875 86.7259 25.1328H82.6166C82.7025 23.8906 83.5306 22.9922 84.7103 22.9922ZM86.7181 27.5859C86.4916 28.3047 85.7806 28.7891 84.8197 28.7891C83.4681 28.7891 82.6087 27.8438 82.6087 26.4141V26.3125H88.4134V25.7344C88.4134 23.2422 86.9916 21.6328 84.7103 21.6328C82.39 21.6328 80.9056 23.3516 80.9056 25.9297C80.9056 28.5234 82.3666 30.1562 84.7806 30.1562C86.6634 30.1562 88.0853 29.0859 88.3197 27.5859H86.7181ZM100.312 21.7812H98.5459L96.4834 28.3516H96.4522L94.3897 21.7812H92.5928L95.5537 30H97.3662L100.312 21.7812ZM101.495 30H103.182V21.7812H101.495V30ZM102.339 20.5781C102.886 20.5781 103.323 20.1484 103.323 19.6172C103.323 19.0781 102.886 18.6484 102.339 18.6484C101.8 18.6484 101.362 19.0781 101.362 19.6172C101.362 20.1484 101.8 20.5781 102.339 20.5781ZM107.944 28.8047C107.038 28.8047 106.444 28.3359 106.444 27.6172C106.444 26.9141 107.014 26.4688 108.022 26.3984L110.046 26.2734V26.9219C110.046 27.9922 109.124 28.8047 107.944 28.8047ZM107.475 30.1406C108.553 30.1406 109.592 29.5625 110.069 28.6484H110.108V30H111.725V24.3359C111.725 22.6875 110.452 21.6328 108.46 21.6328C106.428 21.6328 105.163 22.7266 105.069 24.2109H106.663C106.811 23.4766 107.421 23.0078 108.397 23.0078C109.428 23.0078 110.046 23.5547 110.046 24.4688V25.1016L107.796 25.2344C105.842 25.3438 104.741 26.2266 104.741 27.6641C104.741 29.1406 105.866 30.1406 107.475 30.1406ZM114.792 30.0859C115.362 30.0859 115.815 29.6328 115.815 29.0625C115.815 28.4922 115.362 28.0391 114.792 28.0391C114.221 28.0391 113.768 28.4922 113.768 29.0625C113.768 29.6328 114.221 30.0859 114.792 30.0859ZM119.155 30.0859C119.725 30.0859 120.178 29.6328 120.178 29.0625C120.178 28.4922 119.725 28.0391 119.155 28.0391C118.584 28.0391 118.131 28.4922 118.131 29.0625C118.131 29.6328 118.584 30.0859 119.155 30.0859ZM123.518 30.0859C124.088 30.0859 124.541 29.6328 124.541 29.0625C124.541 28.4922 124.088 28.0391 123.518 28.0391C122.948 28.0391 122.494 28.4922 122.494 29.0625C122.494 29.6328 122.948 30.0859 123.518 30.0859Z" fill="#111827"/>
<path d="M302.94 30.28C302.813 30.28 302.687 30.2333 302.587 30.1333C302.393 29.94 302.393 29.62 302.587 29.4267L306.933 25.08C307.253 24.76 307.253 24.24 306.933 23.92L302.587 19.5733C302.393 19.38 302.393 19.06 302.587 18.8667C302.78 18.6733 303.1 18.6733 303.293 18.8667L307.64 23.2133C307.98 23.5533 308.173 24.0133 308.173 24.5C308.173 24.9867 307.987 25.4467 307.64 25.7867L303.293 30.1333C303.193 30.2267 303.067 30.28 302.94 30.28Z" fill="#111827"/>
</svg>
