<svg width="20" height="20" viewBox="0 0 20 20" fill="none" xmlns="http://www.w3.org/2000/svg">
<path d="M14.1665 17.2083H5.83317C4.40725 17.2083 3.35055 16.7998 2.65027 16.0995C1.94999 15.3993 1.5415 14.3426 1.5415 12.9166V7.08329C1.5415 5.65737 1.94999 4.60067 2.65027 3.90039C3.35055 3.20011 4.40725 2.79163 5.83317 2.79163H14.1665C15.5924 2.79163 16.6491 3.20011 17.3494 3.90039C18.0497 4.60067 18.4582 5.65737 18.4582 7.08329V12.9166C18.4582 14.3426 18.0497 15.3993 17.3494 16.0995C16.6491 16.7998 15.5924 17.2083 14.1665 17.2083ZM5.83317 3.04163C4.56802 3.04163 3.53115 3.34904 2.81503 4.06516C2.09892 4.78127 1.7915 5.81814 1.7915 7.08329V12.9166C1.7915 14.1818 2.09892 15.2187 2.81503 15.9348C3.53115 16.6509 4.56802 16.9583 5.83317 16.9583H14.1665C15.4317 16.9583 16.4685 16.6509 17.1846 15.9348C17.9008 15.2187 18.2082 14.1818 18.2082 12.9166V7.08329C18.2082 5.81814 17.9008 4.78127 17.1846 4.06516C16.4685 3.34904 15.4317 3.04163 14.1665 3.04163H5.83317Z" fill="#292D32" stroke="#9CA3AF"/>
<path d="M8.36595 9.67913L8.36597 9.67911L8.36202 9.67596L5.75588 7.59438C5.69372 7.54298 5.69609 7.46498 5.7297 7.4236C5.78109 7.36036 5.85974 7.36256 5.90135 7.39637L5.90134 7.39638L5.90461 7.39899L8.512 9.48158C8.51216 9.48171 8.51232 9.48184 8.51248 9.48196C8.93375 9.81987 9.47734 9.97289 9.99581 9.97289C10.5143 9.97289 11.0579 9.81987 11.4791 9.48196C11.4793 9.48184 11.4795 9.48171 11.4796 9.48158L14.087 7.39899L14.087 7.399L14.0903 7.39637C14.1445 7.35231 14.2193 7.36783 14.2514 7.41024L14.2566 7.41701L14.2619 7.4236C14.306 7.47783 14.2905 7.55264 14.2481 7.58476L14.248 7.58463L14.2379 7.59263L11.6296 9.67596L11.6296 9.6759L11.6227 9.68155C11.1932 10.0372 10.6033 10.225 9.99998 10.225C9.39752 10.225 8.80565 10.0377 8.36595 9.67913Z" fill="#292D32" stroke="#9CA3AF"/>
</svg>
