<svg width="327" height="49" viewBox="0 0 327 49" fill="none" xmlns="http://www.w3.org/2000/svg">
<rect x="0.5" y="0.5" width="326" height="48" rx="24" stroke="#D1D5DB"/>
<path d="M14.5391 26.8594C14.6484 28.8984 16.3359 30.1875 18.8359 30.1875C21.5078 30.1875 23.1875 28.8672 23.1875 26.7578C23.1875 25.1094 22.2266 24.1797 19.9141 23.6328L18.6719 23.3281C17.2188 22.9688 16.625 22.5 16.625 21.7031C16.625 20.7031 17.5547 20.0156 18.9141 20.0156C20.2734 20.0156 21.2031 20.6953 21.3047 21.8203H23.0078C22.9531 19.875 21.3203 18.5391 18.9375 18.5391C16.5312 18.5391 14.8359 19.875 14.8359 21.8203C14.8359 23.3906 15.7969 24.3594 17.8672 24.8594L19.3281 25.2109C20.7891 25.5703 21.4062 26.0938 21.4062 26.9688C21.4062 27.9766 20.3828 28.7109 18.9609 28.7109C17.4766 28.7109 16.3906 27.9766 16.2656 26.8594H14.5391ZM28.9959 21.6484C27.8084 21.6484 26.8631 22.25 26.3787 23.1953H26.3475V21.7812H24.7147V32.7188H26.4022V28.6484H26.4412C26.91 29.5625 27.8475 30.1406 29.0272 30.1406C31.0897 30.1406 32.4569 28.4922 32.4569 25.8906C32.4569 23.2891 31.0819 21.6484 28.9959 21.6484ZM28.5506 28.7109C27.2537 28.7109 26.3944 27.6016 26.3944 25.8906C26.3944 24.1953 27.2616 23.0703 28.5506 23.0703C29.8866 23.0703 30.7225 24.1719 30.7225 25.8906C30.7225 27.6172 29.8866 28.7109 28.5506 28.7109ZM36.7966 28.8047C35.8903 28.8047 35.2966 28.3359 35.2966 27.6172C35.2966 26.9141 35.8669 26.4688 36.8747 26.3984L38.8981 26.2734V26.9219C38.8981 27.9922 37.9762 28.8047 36.7966 28.8047ZM36.3278 30.1406C37.4059 30.1406 38.445 29.5625 38.9216 28.6484H38.9606V30H40.5778V24.3359C40.5778 22.6875 39.3044 21.6328 37.3122 21.6328C35.2809 21.6328 34.0153 22.7266 33.9216 24.2109H35.5153C35.6637 23.4766 36.2731 23.0078 37.2497 23.0078C38.2809 23.0078 38.8981 23.5547 38.8981 24.4688V25.1016L36.6481 25.2344C34.695 25.3438 33.5934 26.2266 33.5934 27.6641C33.5934 29.1406 34.7184 30.1406 36.3278 30.1406ZM42.3784 30H44.0659V24.9219C44.0659 23.8672 44.7769 23.0859 45.7769 23.0859C46.73 23.0859 47.3316 23.6875 47.3316 24.6328V30H48.9878V24.8672C48.9878 23.8281 49.6831 23.0859 50.6831 23.0859C51.6831 23.0859 52.2534 23.6953 52.2534 24.7578V30H53.9487V24.3516C53.9487 22.7188 52.8862 21.6406 51.2612 21.6406C50.0894 21.6406 49.1206 22.25 48.6987 23.25H48.6597C48.3316 22.2266 47.5034 21.6406 46.3628 21.6406C45.2534 21.6406 44.3941 22.25 44.0269 23.1641H43.9878V21.7812H42.3784V30Z" fill="#374151"/>
<path d="M302.94 32.78C302.813 32.78 302.687 32.7333 302.587 32.6333C302.393 32.44 302.393 32.12 302.587 31.9267L306.933 27.58C307.253 27.26 307.253 26.74 306.933 26.42L302.587 22.0733C302.393 21.88 302.393 21.56 302.587 21.3667C302.78 21.1733 303.1 21.1733 303.293 21.3667L307.64 25.7133C307.98 26.0533 308.173 26.5133 308.173 27C308.173 27.4867 307.987 27.9467 307.64 28.2867L303.293 32.6333C303.193 32.7267 303.067 32.78 302.94 32.78Z" fill="#111827"/>
</svg>
