<svg width="329" height="70" viewBox="0 0 329 70" fill="none" xmlns="http://www.w3.org/2000/svg">
<path d="M45.5 0C33.378 0 23.5 9.878 23.5 22C23.5 34.122 33.378 44 45.5 44C57.622 44 67.5 34.122 67.5 22C67.5 9.878 57.622 0 45.5 0ZM56.016 16.94L43.542 29.414C43.234 29.722 42.816 29.898 42.376 29.898C41.936 29.898 41.518 29.722 41.21 29.414L34.984 23.188C34.346 22.55 34.346 21.494 34.984 20.856C35.622 20.218 36.678 20.218 37.316 20.856L42.376 25.916L53.684 14.608C54.322 13.97 55.378 13.97 56.016 14.608C56.654 15.246 56.654 16.28 56.016 16.94Z" fill="#387FFB"/>
<path d="M30.017 65C31.8158 65 32.8822 64.1152 32.8822 62.627C32.8822 61.502 32.1439 60.6934 30.9955 60.5469V60.5C31.8099 60.3535 32.4545 59.5332 32.4545 58.6543C32.4545 57.3887 31.4759 56.5449 30.0287 56.5449H26.8236V65H30.017ZM27.8783 57.4766H29.7884C30.8138 57.4766 31.388 57.9395 31.388 58.7773C31.388 59.6914 30.7084 60.1895 29.4603 60.1895H27.8783V57.4766ZM27.8783 64.0684V61.0977H29.7591C31.1068 61.0977 31.7982 61.5957 31.7982 62.5742C31.7982 63.5527 31.1302 64.0684 29.8587 64.0684H27.8783ZM34.092 65H35.1116V58.9062H34.092V65ZM34.6018 57.8809C34.9534 57.8809 35.2405 57.5938 35.2405 57.248C35.2405 56.8965 34.9534 56.6152 34.6018 56.6152C34.2561 56.6152 33.969 56.8965 33.969 57.248C33.969 57.5938 34.2561 57.8809 34.6018 57.8809ZM39.1339 65.1055C40.8155 65.1055 41.9523 63.8926 41.9523 61.9531C41.9523 60.0078 40.8155 58.8008 39.1339 58.8008C37.4464 58.8008 36.3097 60.0078 36.3097 61.9531C36.3097 63.8926 37.4464 65.1055 39.1339 65.1055ZM39.1339 64.209C38.0558 64.209 37.3468 63.3887 37.3468 61.9531C37.3468 60.5176 38.0558 59.6973 39.1339 59.6973C40.212 59.6973 40.9152 60.5176 40.9152 61.9531C40.9152 63.3887 40.212 64.209 39.1339 64.209ZM45.4121 65.1055C46.291 65.1055 46.9883 64.6719 47.3809 63.9688H47.3984V65H48.3711V56.5449H47.3516V59.8965H47.3281C46.9648 59.2285 46.2617 58.8008 45.3887 58.8008C43.8535 58.8008 42.8047 60.043 42.8047 61.9531C42.8047 63.8633 43.8594 65.1055 45.4121 65.1055ZM45.6055 59.6973C46.6543 59.6973 47.3574 60.5938 47.3574 61.9531C47.3574 63.3184 46.6543 64.209 45.6055 64.209C44.5273 64.209 43.8477 63.3359 43.8477 61.9531C43.8477 60.5762 44.5273 59.6973 45.6055 59.6973ZM51.8778 64.2383C51.1454 64.2383 50.6591 63.8574 50.6591 63.2773C50.6591 62.7031 51.1278 62.3398 51.9481 62.2871L53.577 62.1875V62.6855C53.577 63.5645 52.8387 64.2383 51.8778 64.2383ZM51.6493 65.1055C52.4696 65.1055 53.243 64.6484 53.6063 63.9512H53.6298V65H54.5966V60.7871C54.5966 59.5742 53.6942 58.8008 52.2645 58.8008C50.8231 58.8008 49.9208 59.6094 49.8505 60.6641H50.8348C50.9637 60.0664 51.4559 59.6973 52.2411 59.6973C53.0848 59.6973 53.577 60.1426 53.577 60.8867V61.3965L51.8309 61.4961C50.4247 61.5781 49.622 62.2344 49.622 63.2773C49.622 64.373 50.4364 65.1055 51.6493 65.1055ZM56.3396 57.4355V58.9062H55.4314V59.7441H56.3396V63.418C56.3396 64.5898 56.7732 65.0469 57.8923 65.0469C58.1326 65.0469 58.4138 65.0293 58.5369 65V64.1445C58.4666 64.1562 58.2322 64.1738 58.115 64.1738C57.5935 64.1738 57.3591 63.9219 57.3591 63.3652V59.7441H58.5427V58.9062H57.3591V57.4355H56.3396ZM61.6452 64.2383C60.9127 64.2383 60.4264 63.8574 60.4264 63.2773C60.4264 62.7031 60.8952 62.3398 61.7155 62.2871L63.3444 62.1875V62.6855C63.3444 63.5645 62.6061 64.2383 61.6452 64.2383ZM61.4166 65.1055C62.237 65.1055 63.0104 64.6484 63.3737 63.9512H63.3971V65H64.3639V60.7871C64.3639 59.5742 63.4616 58.8008 62.0319 58.8008C60.5905 58.8008 59.6881 59.6094 59.6178 60.6641H60.6022C60.7311 60.0664 61.2233 59.6973 62.0084 59.6973C62.8522 59.6973 63.3444 60.1426 63.3444 60.8867V61.3965L61.5983 61.4961C60.192 61.5781 59.3893 62.2344 59.3893 63.2773C59.3893 64.373 60.2038 65.1055 61.4166 65.1055Z" fill="#3366FF"/>
<line x1="116.5" y1="35.5" x2="93.5" y2="35.5" stroke="#D1D5DB" stroke-linecap="round" stroke-dasharray="3 3"/>
<circle cx="164.5" cy="22" r="21.5" stroke="#9CA3AF"/>
<path d="M160.648 20.0312V20.0469H162.305V20.0234C162.305 18.8516 163.234 17.9609 164.469 17.9609C165.641 17.9609 166.547 18.7578 166.547 19.7578C166.547 20.6406 166.188 21.2344 164.812 22.6641L160.742 26.8125V28H168.453V26.5234H163.102V26.4844L165.922 23.6484C167.57 21.9609 168.273 20.9844 168.273 19.6719C168.273 17.8828 166.672 16.5156 164.523 16.5156C162.281 16.5156 160.648 18 160.648 20.0312Z" fill="#9CA3AF"/>
<path d="M136.061 65V57.4941H138.727V56.5449H132.34V57.4941H135.006V65H136.061ZM138.899 67.2793C140.001 67.2793 140.505 66.8516 141.026 65.4277L143.423 58.9062H142.351L140.663 63.9805H140.646L138.958 58.9062H137.868L140.118 65.0059L139.978 65.4336C139.743 66.1426 139.427 66.418 138.858 66.418C138.73 66.418 138.571 66.4121 138.46 66.3887V67.2441C138.571 67.2676 138.776 67.2793 138.899 67.2793ZM147.31 58.8008C146.426 58.8008 145.717 59.252 145.342 59.9375H145.318V58.9062H144.351V67.0332H145.371V64.0098H145.394C145.758 64.6777 146.461 65.1055 147.334 65.1055C148.869 65.1055 149.918 63.8633 149.918 61.9531C149.918 60.043 148.863 58.8008 147.31 58.8008ZM147.111 64.209C146.068 64.209 145.365 63.3125 145.365 61.9531C145.365 60.5996 146.068 59.6973 147.111 59.6973C148.195 59.6973 148.875 60.5762 148.875 61.9531C148.875 63.3359 148.195 64.209 147.111 64.209ZM153.513 59.6855C154.473 59.6855 155.112 60.4121 155.136 61.4316H151.825C151.889 60.418 152.557 59.6855 153.513 59.6855ZM155.112 63.2539C154.942 63.8281 154.374 64.2207 153.6 64.2207C152.505 64.2207 151.819 63.4531 151.819 62.2871V62.2285H156.19V61.8418C156.19 59.9961 155.177 58.8008 153.53 58.8008C151.848 58.8008 150.77 60.084 150.77 61.9766C150.77 63.8926 151.831 65.1055 153.577 65.1055C154.907 65.1055 155.938 64.3203 156.114 63.2539H155.112ZM162.448 65.1055C164.129 65.1055 165.266 63.8926 165.266 61.9531C165.266 60.0078 164.129 58.8008 162.448 58.8008C160.76 58.8008 159.624 60.0078 159.624 61.9531C159.624 63.8926 160.76 65.1055 162.448 65.1055ZM162.448 64.209C161.37 64.209 160.661 63.3887 160.661 61.9531C160.661 60.5176 161.37 59.6973 162.448 59.6973C163.526 59.6973 164.229 60.5176 164.229 61.9531C164.229 63.3887 163.526 64.209 162.448 64.209ZM166.746 65H167.765V59.7441H169.007V58.9062H167.759V58.2324C167.759 57.6289 168.023 57.3359 168.574 57.3359C168.744 57.3359 168.914 57.3535 169.037 57.3711V56.5449C168.89 56.5215 168.644 56.498 168.415 56.498C167.29 56.498 166.746 57.0547 166.746 58.2266V58.9062H165.896V59.7441H166.746V65ZM180.515 58.9062H179.507L178.288 63.8633H178.265L176.882 58.9062H175.898L174.521 63.8633H174.497L173.279 58.9062H172.265L173.97 65H175.007L176.378 60.2832H176.402L177.779 65H178.816L180.515 58.9062ZM183.998 65.1055C185.68 65.1055 186.816 63.8926 186.816 61.9531C186.816 60.0078 185.68 58.8008 183.998 58.8008C182.311 58.8008 181.174 60.0078 181.174 61.9531C181.174 63.8926 182.311 65.1055 183.998 65.1055ZM183.998 64.209C182.92 64.209 182.211 63.3887 182.211 61.9531C182.211 60.5176 182.92 59.6973 183.998 59.6973C185.076 59.6973 185.779 60.5176 185.779 61.9531C185.779 63.3887 185.076 64.209 183.998 64.209ZM187.968 65H188.987V61.2031C188.987 60.3418 189.503 59.7734 190.294 59.7734C190.54 59.7734 190.757 59.8027 190.839 59.832V58.8418C190.757 58.8301 190.604 58.8008 190.429 58.8008C189.714 58.8008 189.151 59.2285 188.952 59.9023H188.929V58.9062H187.968V65ZM192.863 61.6133V56.5449H191.844V65H192.863V62.7031L193.431 62.1641L195.693 65H196.877L194.152 61.5371L196.795 58.9062H195.558L192.863 61.6133Z" fill="#111827"/>
<line x1="235.5" y1="35.5" x2="212.5" y2="35.5" stroke="#D1D5DB" stroke-linecap="round" stroke-dasharray="3 3"/>
<circle cx="283.5" cy="22" r="21.5" stroke="#9CA3AF"/>
<path d="M281.984 22.8984H283.391C284.875 22.8984 285.797 23.6484 285.797 24.8672C285.797 25.9688 284.812 26.75 283.438 26.75C282.016 26.75 281.125 26.0078 281.016 24.9297H279.336C279.445 26.875 281.008 28.2109 283.438 28.2109C285.789 28.2109 287.578 26.8594 287.578 24.8906C287.578 23.3125 286.484 22.2734 284.789 22.1562V22.125C286.188 21.875 287.109 20.8672 287.109 19.4609C287.109 17.7266 285.555 16.5156 283.422 16.5156C281.188 16.5156 279.695 17.7891 279.562 19.7656H281.211C281.312 18.6562 282.125 17.9531 283.344 17.9531C284.68 17.9531 285.398 18.6484 285.398 19.6953C285.398 20.7578 284.562 21.5234 283.344 21.5234H281.984V22.8984Z" fill="#9CA3AF"/>
<path d="M244.373 56.5449H243.319V62.0352C243.319 63.8398 244.579 65.1406 246.676 65.1406C248.774 65.1406 250.034 63.8398 250.034 62.0352V56.5449H248.979V61.9648C248.979 63.2422 248.141 64.168 246.676 64.168C245.211 64.168 244.373 63.2422 244.373 61.9648V56.5449ZM254.595 58.8008C253.71 58.8008 253.001 59.252 252.626 59.9375H252.603V58.9062H251.636V67.0332H252.656V64.0098H252.679C253.042 64.6777 253.745 65.1055 254.618 65.1055C256.154 65.1055 257.202 63.8633 257.202 61.9531C257.202 60.043 256.148 58.8008 254.595 58.8008ZM254.396 64.209C253.353 64.209 252.65 63.3125 252.65 61.9531C252.65 60.5996 253.353 59.6973 254.396 59.6973C255.48 59.6973 256.159 60.5762 256.159 61.9531C256.159 63.3359 255.48 64.209 254.396 64.209ZM258.406 65H259.426V56.5449H258.406V65ZM263.448 65.1055C265.13 65.1055 266.267 63.8926 266.267 61.9531C266.267 60.0078 265.13 58.8008 263.448 58.8008C261.761 58.8008 260.624 60.0078 260.624 61.9531C260.624 63.8926 261.761 65.1055 263.448 65.1055ZM263.448 64.209C262.37 64.209 261.661 63.3887 261.661 61.9531C261.661 60.5176 262.37 59.6973 263.448 59.6973C264.526 59.6973 265.23 60.5176 265.23 61.9531C265.23 63.3887 264.526 64.209 263.448 64.209ZM269.428 64.2383C268.695 64.2383 268.209 63.8574 268.209 63.2773C268.209 62.7031 268.678 62.3398 269.498 62.2871L271.127 62.1875V62.6855C271.127 63.5645 270.389 64.2383 269.428 64.2383ZM269.199 65.1055C270.019 65.1055 270.793 64.6484 271.156 63.9512H271.18V65H272.146V60.7871C272.146 59.5742 271.244 58.8008 269.814 58.8008C268.373 58.8008 267.471 59.6094 267.4 60.6641H268.385C268.514 60.0664 269.006 59.6973 269.791 59.6973C270.635 59.6973 271.127 60.1426 271.127 60.8867V61.3965L269.381 61.4961C267.975 61.5781 267.172 62.2344 267.172 63.2773C267.172 64.373 267.986 65.1055 269.199 65.1055ZM275.87 65.1055C276.749 65.1055 277.446 64.6719 277.839 63.9688H277.856V65H278.829V56.5449H277.809V59.8965H277.786C277.423 59.2285 276.72 58.8008 275.846 58.8008C274.311 58.8008 273.262 60.043 273.262 61.9531C273.262 63.8633 274.317 65.1055 275.87 65.1055ZM276.063 59.6973C277.112 59.6973 277.815 60.5938 277.815 61.9531C277.815 63.3184 277.112 64.209 276.063 64.209C274.985 64.209 274.305 63.3359 274.305 61.9531C274.305 60.5762 274.985 59.6973 276.063 59.6973ZM285.866 58.8008C284.981 58.8008 284.272 59.252 283.897 59.9375H283.874V58.9062H282.907V67.0332H283.926V64.0098H283.95C284.313 64.6777 285.016 65.1055 285.889 65.1055C287.424 65.1055 288.473 63.8633 288.473 61.9531C288.473 60.043 287.419 58.8008 285.866 58.8008ZM285.667 64.209C284.624 64.209 283.92 63.3125 283.92 61.9531C283.92 60.5996 284.624 59.6973 285.667 59.6973C286.751 59.6973 287.43 60.5762 287.43 61.9531C287.43 63.3359 286.751 64.209 285.667 64.209ZM292.15 65.1055C293.831 65.1055 294.968 63.8926 294.968 61.9531C294.968 60.0078 293.831 58.8008 292.15 58.8008C290.462 58.8008 289.326 60.0078 289.326 61.9531C289.326 63.8926 290.462 65.1055 292.15 65.1055ZM292.15 64.209C291.072 64.209 290.363 63.3887 290.363 61.9531C290.363 60.5176 291.072 59.6973 292.15 59.6973C293.228 59.6973 293.931 60.5176 293.931 61.9531C293.931 63.3887 293.228 64.209 292.15 64.209ZM296.119 65H297.139V61.2031C297.139 60.3418 297.655 59.7734 298.446 59.7734C298.692 59.7734 298.909 59.8027 298.991 59.832V58.8418C298.909 58.8301 298.756 58.8008 298.58 58.8008C297.866 58.8008 297.303 59.2285 297.104 59.9023H297.08V58.9062H296.119V65ZM300.271 57.4355V58.9062H299.362V59.7441H300.271V63.418C300.271 64.5898 300.704 65.0469 301.823 65.0469C302.064 65.0469 302.345 65.0293 302.468 65V64.1445C302.398 64.1562 302.163 64.1738 302.046 64.1738C301.525 64.1738 301.29 63.9219 301.29 63.3652V59.7441H302.474V58.9062H301.29V57.4355H300.271ZM304.012 65H305.031V59.7441H306.274V58.9062H305.025V58.2324C305.025 57.6289 305.289 57.3359 305.84 57.3359C306.01 57.3359 306.18 57.3535 306.303 57.3711V56.5449C306.156 56.5215 305.91 56.498 305.682 56.498C304.557 56.498 304.012 57.0547 304.012 58.2266V58.9062H303.162V59.7441H304.012V65ZM309.681 65.1055C311.362 65.1055 312.499 63.8926 312.499 61.9531C312.499 60.0078 311.362 58.8008 309.681 58.8008C307.993 58.8008 306.856 60.0078 306.856 61.9531C306.856 63.8926 307.993 65.1055 309.681 65.1055ZM309.681 64.209C308.602 64.209 307.894 63.3887 307.894 61.9531C307.894 60.5176 308.602 59.6973 309.681 59.6973C310.759 59.6973 311.462 60.5176 311.462 61.9531C311.462 63.3887 310.759 64.209 309.681 64.209ZM313.703 65H314.722V56.5449H313.703V65ZM316.272 65H317.292V58.9062H316.272V65ZM316.782 57.8809C317.134 57.8809 317.421 57.5938 317.421 57.248C317.421 56.8965 317.134 56.6152 316.782 56.6152C316.436 56.6152 316.149 56.8965 316.149 57.248C316.149 57.5938 316.436 57.8809 316.782 57.8809ZM321.314 65.1055C322.996 65.1055 324.132 63.8926 324.132 61.9531C324.132 60.0078 322.996 58.8008 321.314 58.8008C319.627 58.8008 318.49 60.0078 318.49 61.9531C318.49 63.8926 319.627 65.1055 321.314 65.1055ZM321.314 64.209C320.236 64.209 319.527 63.3887 319.527 61.9531C319.527 60.5176 320.236 59.6973 321.314 59.6973C322.392 59.6973 323.095 60.5176 323.095 61.9531C323.095 63.3887 322.392 64.209 321.314 64.209Z" fill="#111827"/>
</svg>
