<svg width="330" height="55" viewBox="0 0 330 55" fill="none" xmlns="http://www.w3.org/2000/svg">
<rect x="0.5" y="0.5" width="326" height="74" rx="7.5" stroke="#D1D5DB"/>
<rect x="26" y="12" width="24" height="24" rx="12" fill="#3366FF"/>
<path d="M37.8418 28H38.8613V19.5449H37.8301L35.5801 21.1621V22.2754L37.8184 20.6641H37.8418V28Z" fill="#F4F4F5"/>
<path d="M22.517 58C24.3158 58 25.3822 57.1152 25.3822 55.627C25.3822 54.502 24.6439 53.6934 23.4955 53.5469V53.5C24.3099 53.3535 24.9545 52.5332 24.9545 51.6543C24.9545 50.3887 23.9759 49.5449 22.5287 49.5449H19.3236V58H22.517ZM20.3783 50.4766H22.2884C23.3138 50.4766 23.888 50.9395 23.888 51.7773C23.888 52.6914 23.2084 53.1895 21.9603 53.1895H20.3783V50.4766ZM20.3783 57.0684V54.0977H22.2591C23.6068 54.0977 24.2982 54.5957 24.2982 55.5742C24.2982 56.5527 23.6302 57.0684 22.3587 57.0684H20.3783ZM26.592 58H27.6116V51.9062H26.592V58ZM27.1018 50.8809C27.4534 50.8809 27.7405 50.5938 27.7405 50.248C27.7405 49.8965 27.4534 49.6152 27.1018 49.6152C26.7561 49.6152 26.469 49.8965 26.469 50.248C26.469 50.5938 26.7561 50.8809 27.1018 50.8809ZM31.6339 58.1055C33.3155 58.1055 34.4523 56.8926 34.4523 54.9531C34.4523 53.0078 33.3155 51.8008 31.6339 51.8008C29.9464 51.8008 28.8097 53.0078 28.8097 54.9531C28.8097 56.8926 29.9464 58.1055 31.6339 58.1055ZM31.6339 57.209C30.5558 57.209 29.8468 56.3887 29.8468 54.9531C29.8468 53.5176 30.5558 52.6973 31.6339 52.6973C32.712 52.6973 33.4152 53.5176 33.4152 54.9531C33.4152 56.3887 32.712 57.209 31.6339 57.209ZM37.9121 58.1055C38.791 58.1055 39.4883 57.6719 39.8809 56.9688H39.8984V58H40.8711V49.5449H39.8516V52.8965H39.8281C39.4648 52.2285 38.7617 51.8008 37.8887 51.8008C36.3535 51.8008 35.3047 53.043 35.3047 54.9531C35.3047 56.8633 36.3594 58.1055 37.9121 58.1055ZM38.1055 52.6973C39.1543 52.6973 39.8574 53.5938 39.8574 54.9531C39.8574 56.3184 39.1543 57.209 38.1055 57.209C37.0273 57.209 36.3477 56.3359 36.3477 54.9531C36.3477 53.5762 37.0273 52.6973 38.1055 52.6973ZM44.3778 57.2383C43.6454 57.2383 43.1591 56.8574 43.1591 56.2773C43.1591 55.7031 43.6278 55.3398 44.4481 55.2871L46.077 55.1875V55.6855C46.077 56.5645 45.3387 57.2383 44.3778 57.2383ZM44.1493 58.1055C44.9696 58.1055 45.743 57.6484 46.1063 56.9512H46.1298V58H47.0966V53.7871C47.0966 52.5742 46.1942 51.8008 44.7645 51.8008C43.3231 51.8008 42.4208 52.6094 42.3505 53.6641H43.3348C43.4637 53.0664 43.9559 52.6973 44.7411 52.6973C45.5848 52.6973 46.077 53.1426 46.077 53.8867V54.3965L44.3309 54.4961C42.9247 54.5781 42.122 55.2344 42.122 56.2773C42.122 57.373 42.9364 58.1055 44.1493 58.1055ZM48.8396 50.4355V51.9062H47.9314V52.7441H48.8396V56.418C48.8396 57.5898 49.2732 58.0469 50.3923 58.0469C50.6326 58.0469 50.9138 58.0293 51.0369 58V57.1445C50.9666 57.1562 50.7322 57.1738 50.615 57.1738C50.0935 57.1738 49.8591 56.9219 49.8591 56.3652V52.7441H51.0427V51.9062H49.8591V50.4355H48.8396ZM54.1452 57.2383C53.4127 57.2383 52.9264 56.8574 52.9264 56.2773C52.9264 55.7031 53.3952 55.3398 54.2155 55.2871L55.8444 55.1875V55.6855C55.8444 56.5645 55.1061 57.2383 54.1452 57.2383ZM53.9166 58.1055C54.737 58.1055 55.5104 57.6484 55.8737 56.9512H55.8971V58H56.8639V53.7871C56.8639 52.5742 55.9616 51.8008 54.5319 51.8008C53.0905 51.8008 52.1881 52.6094 52.1178 53.6641H53.1022C53.2311 53.0664 53.7233 52.6973 54.5084 52.6973C55.3522 52.6973 55.8444 53.1426 55.8444 53.8867V54.3965L54.0983 54.4961C52.692 54.5781 51.8893 55.2344 51.8893 56.2773C51.8893 57.373 52.7038 58.1055 53.9166 58.1055Z" fill="#3366FF"/>
<line x1="112.25" y1="38" x2="89.25" y2="38" stroke="#3366FF" stroke-linecap="round" stroke-dasharray="3 3"/>
<rect x="151.5" y="12" width="24" height="24" rx="12" fill="#3366FF"/>
<path d="M160.633 21.9824V21.9883H161.652V21.9824C161.652 21.0391 162.402 20.3242 163.393 20.3242C164.324 20.3242 165.068 20.9746 165.068 21.7891C165.068 22.4922 164.799 22.9434 163.662 24.1387L160.686 27.2734V28H166.264V27.0625H162.145V27.0391L164.283 24.8301C165.695 23.3711 166.123 22.668 166.123 21.7246C166.123 20.4297 164.934 19.4043 163.422 19.4043C161.828 19.4043 160.633 20.5059 160.633 21.9824Z" fill="#F4F4F5"/>
<path d="M135.061 58V50.4941H137.727V49.5449H131.34V50.4941H134.006V58H135.061ZM137.899 60.2793C139.001 60.2793 139.505 59.8516 140.026 58.4277L142.423 51.9062H141.351L139.663 56.9805H139.646L137.958 51.9062H136.868L139.118 58.0059L138.978 58.4336C138.743 59.1426 138.427 59.418 137.858 59.418C137.73 59.418 137.571 59.4121 137.46 59.3887V60.2441C137.571 60.2676 137.776 60.2793 137.899 60.2793ZM146.31 51.8008C145.426 51.8008 144.717 52.252 144.342 52.9375H144.318V51.9062H143.351V60.0332H144.371V57.0098H144.394C144.758 57.6777 145.461 58.1055 146.334 58.1055C147.869 58.1055 148.918 56.8633 148.918 54.9531C148.918 53.043 147.863 51.8008 146.31 51.8008ZM146.111 57.209C145.068 57.209 144.365 56.3125 144.365 54.9531C144.365 53.5996 145.068 52.6973 146.111 52.6973C147.195 52.6973 147.875 53.5762 147.875 54.9531C147.875 56.3359 147.195 57.209 146.111 57.209ZM152.513 52.6855C153.473 52.6855 154.112 53.4121 154.136 54.4316H150.825C150.889 53.418 151.557 52.6855 152.513 52.6855ZM154.112 56.2539C153.942 56.8281 153.374 57.2207 152.6 57.2207C151.505 57.2207 150.819 56.4531 150.819 55.2871V55.2285H155.19V54.8418C155.19 52.9961 154.177 51.8008 152.53 51.8008C150.848 51.8008 149.77 53.084 149.77 54.9766C149.77 56.8926 150.831 58.1055 152.577 58.1055C153.907 58.1055 154.938 57.3203 155.114 56.2539H154.112ZM161.448 58.1055C163.129 58.1055 164.266 56.8926 164.266 54.9531C164.266 53.0078 163.129 51.8008 161.448 51.8008C159.76 51.8008 158.624 53.0078 158.624 54.9531C158.624 56.8926 159.76 58.1055 161.448 58.1055ZM161.448 57.209C160.37 57.209 159.661 56.3887 159.661 54.9531C159.661 53.5176 160.37 52.6973 161.448 52.6973C162.526 52.6973 163.229 53.5176 163.229 54.9531C163.229 56.3887 162.526 57.209 161.448 57.209ZM165.746 58H166.765V52.7441H168.007V51.9062H166.759V51.2324C166.759 50.6289 167.023 50.3359 167.574 50.3359C167.744 50.3359 167.914 50.3535 168.037 50.3711V49.5449C167.89 49.5215 167.644 49.498 167.415 49.498C166.29 49.498 165.746 50.0547 165.746 51.2266V51.9062H164.896V52.7441H165.746V58ZM179.515 51.9062H178.507L177.288 56.8633H177.265L175.882 51.9062H174.898L173.521 56.8633H173.497L172.279 51.9062H171.265L172.97 58H174.007L175.378 53.2832H175.402L176.779 58H177.816L179.515 51.9062ZM182.998 58.1055C184.68 58.1055 185.816 56.8926 185.816 54.9531C185.816 53.0078 184.68 51.8008 182.998 51.8008C181.311 51.8008 180.174 53.0078 180.174 54.9531C180.174 56.8926 181.311 58.1055 182.998 58.1055ZM182.998 57.209C181.92 57.209 181.211 56.3887 181.211 54.9531C181.211 53.5176 181.92 52.6973 182.998 52.6973C184.076 52.6973 184.779 53.5176 184.779 54.9531C184.779 56.3887 184.076 57.209 182.998 57.209ZM186.968 58H187.987V54.2031C187.987 53.3418 188.503 52.7734 189.294 52.7734C189.54 52.7734 189.757 52.8027 189.839 52.832V51.8418C189.757 51.8301 189.604 51.8008 189.429 51.8008C188.714 51.8008 188.151 52.2285 187.952 52.9023H187.929V51.9062H186.968V58ZM191.863 54.6133V49.5449H190.844V58H191.863V55.7031L192.431 55.1641L194.693 58H195.877L193.152 54.5371L195.795 51.9062H194.558L191.863 54.6133Z" fill="#3366FF"/>
<line x1="237.75" y1="38" x2="214.75" y2="38" stroke="#9CA3AF" stroke-linecap="round" stroke-dasharray="3 3"/>
<rect x="277" y="12" width="24" height="24" rx="12" fill="#3366FF"/>
<path d="M287.408 24.0977H288.469C289.676 24.0977 290.426 24.7129 290.426 25.709C290.426 26.5938 289.623 27.2266 288.504 27.2266C287.367 27.2266 286.646 26.6289 286.553 25.7617H285.539C285.615 27.1621 286.746 28.1406 288.516 28.1406C290.174 28.1406 291.498 27.127 291.498 25.6738C291.498 24.4844 290.678 23.6934 289.4 23.6172V23.5938C290.455 23.4062 291.135 22.6445 291.135 21.584C291.135 20.3125 289.992 19.4043 288.48 19.4043C286.893 19.4043 285.826 20.3242 285.709 21.7598H286.723C286.816 20.875 287.461 20.3184 288.434 20.3184C289.506 20.3184 290.074 20.8867 290.074 21.7246C290.074 22.5801 289.395 23.207 288.422 23.207H287.408V24.0977Z" fill="#F4F4F5"/>
<path d="M249.873 49.5449H248.819V55.0352C248.819 56.8398 250.079 58.1406 252.176 58.1406C254.274 58.1406 255.534 56.8398 255.534 55.0352V49.5449H254.479V54.9648C254.479 56.2422 253.641 57.168 252.176 57.168C250.711 57.168 249.873 56.2422 249.873 54.9648V49.5449ZM260.095 51.8008C259.21 51.8008 258.501 52.252 258.126 52.9375H258.103V51.9062H257.136V60.0332H258.156V57.0098H258.179C258.542 57.6777 259.245 58.1055 260.118 58.1055C261.654 58.1055 262.702 56.8633 262.702 54.9531C262.702 53.043 261.648 51.8008 260.095 51.8008ZM259.896 57.209C258.853 57.209 258.15 56.3125 258.15 54.9531C258.15 53.5996 258.853 52.6973 259.896 52.6973C260.98 52.6973 261.659 53.5762 261.659 54.9531C261.659 56.3359 260.98 57.209 259.896 57.209ZM263.906 58H264.926V49.5449H263.906V58ZM268.948 58.1055C270.63 58.1055 271.767 56.8926 271.767 54.9531C271.767 53.0078 270.63 51.8008 268.948 51.8008C267.261 51.8008 266.124 53.0078 266.124 54.9531C266.124 56.8926 267.261 58.1055 268.948 58.1055ZM268.948 57.209C267.87 57.209 267.161 56.3887 267.161 54.9531C267.161 53.5176 267.87 52.6973 268.948 52.6973C270.026 52.6973 270.73 53.5176 270.73 54.9531C270.73 56.3887 270.026 57.209 268.948 57.209ZM274.928 57.2383C274.195 57.2383 273.709 56.8574 273.709 56.2773C273.709 55.7031 274.178 55.3398 274.998 55.2871L276.627 55.1875V55.6855C276.627 56.5645 275.889 57.2383 274.928 57.2383ZM274.699 58.1055C275.519 58.1055 276.293 57.6484 276.656 56.9512H276.68V58H277.646V53.7871C277.646 52.5742 276.744 51.8008 275.314 51.8008C273.873 51.8008 272.971 52.6094 272.9 53.6641H273.885C274.014 53.0664 274.506 52.6973 275.291 52.6973C276.135 52.6973 276.627 53.1426 276.627 53.8867V54.3965L274.881 54.4961C273.475 54.5781 272.672 55.2344 272.672 56.2773C272.672 57.373 273.486 58.1055 274.699 58.1055ZM281.37 58.1055C282.249 58.1055 282.946 57.6719 283.339 56.9688H283.356V58H284.329V49.5449H283.309V52.8965H283.286C282.923 52.2285 282.22 51.8008 281.346 51.8008C279.811 51.8008 278.762 53.043 278.762 54.9531C278.762 56.8633 279.817 58.1055 281.37 58.1055ZM281.563 52.6973C282.612 52.6973 283.315 53.5938 283.315 54.9531C283.315 56.3184 282.612 57.209 281.563 57.209C280.485 57.209 279.805 56.3359 279.805 54.9531C279.805 53.5762 280.485 52.6973 281.563 52.6973ZM291.366 51.8008C290.481 51.8008 289.772 52.252 289.397 52.9375H289.374V51.9062H288.407V60.0332H289.426V57.0098H289.45C289.813 57.6777 290.516 58.1055 291.389 58.1055C292.924 58.1055 293.973 56.8633 293.973 54.9531C293.973 53.043 292.919 51.8008 291.366 51.8008ZM291.167 57.209C290.124 57.209 289.42 56.3125 289.42 54.9531C289.42 53.5996 290.124 52.6973 291.167 52.6973C292.251 52.6973 292.93 53.5762 292.93 54.9531C292.93 56.3359 292.251 57.209 291.167 57.209ZM297.65 58.1055C299.331 58.1055 300.468 56.8926 300.468 54.9531C300.468 53.0078 299.331 51.8008 297.65 51.8008C295.962 51.8008 294.826 53.0078 294.826 54.9531C294.826 56.8926 295.962 58.1055 297.65 58.1055ZM297.65 57.209C296.572 57.209 295.863 56.3887 295.863 54.9531C295.863 53.5176 296.572 52.6973 297.65 52.6973C298.728 52.6973 299.431 53.5176 299.431 54.9531C299.431 56.3887 298.728 57.209 297.65 57.209ZM301.619 58H302.639V54.2031C302.639 53.3418 303.155 52.7734 303.946 52.7734C304.192 52.7734 304.409 52.8027 304.491 52.832V51.8418C304.409 51.8301 304.256 51.8008 304.08 51.8008C303.366 51.8008 302.803 52.2285 302.604 52.9023H302.58V51.9062H301.619V58ZM305.771 50.4355V51.9062H304.862V52.7441H305.771V56.418C305.771 57.5898 306.204 58.0469 307.323 58.0469C307.564 58.0469 307.845 58.0293 307.968 58V57.1445C307.898 57.1562 307.663 57.1738 307.546 57.1738C307.025 57.1738 306.79 56.9219 306.79 56.3652V52.7441H307.974V51.9062H306.79V50.4355H305.771ZM309.512 58H310.531V52.7441H311.774V51.9062H310.525V51.2324C310.525 50.6289 310.789 50.3359 311.34 50.3359C311.51 50.3359 311.68 50.3535 311.803 50.3711V49.5449C311.656 49.5215 311.41 49.498 311.182 49.498C310.057 49.498 309.512 50.0547 309.512 51.2266V51.9062H308.662V52.7441H309.512V58ZM315.181 58.1055C316.862 58.1055 317.999 56.8926 317.999 54.9531C317.999 53.0078 316.862 51.8008 315.181 51.8008C313.493 51.8008 312.356 53.0078 312.356 54.9531C312.356 56.8926 313.493 58.1055 315.181 58.1055ZM315.181 57.209C314.102 57.209 313.394 56.3887 313.394 54.9531C313.394 53.5176 314.102 52.6973 315.181 52.6973C316.259 52.6973 316.962 53.5176 316.962 54.9531C316.962 56.3887 316.259 57.209 315.181 57.209ZM319.203 58H320.222V49.5449H319.203V58ZM321.772 58H322.792V51.9062H321.772V58ZM322.282 50.8809C322.634 50.8809 322.921 50.5938 322.921 50.248C322.921 49.8965 322.634 49.6152 322.282 49.6152C321.936 49.6152 321.649 49.8965 321.649 50.248C321.649 50.5938 321.936 50.8809 322.282 50.8809ZM326.814 58.1055C328.496 58.1055 329.632 56.8926 329.632 54.9531C329.632 53.0078 328.496 51.8008 326.814 51.8008C325.127 51.8008 323.99 53.0078 323.99 54.9531C323.99 56.8926 325.127 58.1055 326.814 58.1055ZM326.814 57.209C325.736 57.209 325.027 56.3887 325.027 54.9531C325.027 53.5176 325.736 52.6973 326.814 52.6973C327.892 52.6973 328.595 53.5176 328.595 54.9531C328.595 56.3887 327.892 57.209 326.814 57.209Z" fill="#3366FF"/>
</svg>
