<svg width="327" height="75" viewBox="0 0 327 75" fill="none" xmlns="http://www.w3.org/2000/svg">
<rect x="0.5" y="0.5" width="326" height="74" rx="7.5" stroke="#D1D5DB"/>
<rect x="26" y="12" width="24" height="24" rx="12" fill="#3366FF"/>
<path d="M37.8418 28H38.8613V19.5449H37.8301L35.5801 21.1621V22.2754L37.8184 20.6641H37.8418V28Z" fill="#F4F4F5"/>
<path d="M22.517 58C24.3158 58 25.3822 57.1152 25.3822 55.627C25.3822 54.502 24.6439 53.6934 23.4955 53.5469V53.5C24.3099 53.3535 24.9545 52.5332 24.9545 51.6543C24.9545 50.3887 23.9759 49.5449 22.5287 49.5449H19.3236V58H22.517ZM20.3783 50.4766H22.2884C23.3138 50.4766 23.888 50.9395 23.888 51.7773C23.888 52.6914 23.2084 53.1895 21.9603 53.1895H20.3783V50.4766ZM20.3783 57.0684V54.0977H22.2591C23.6068 54.0977 24.2982 54.5957 24.2982 55.5742C24.2982 56.5527 23.6302 57.0684 22.3587 57.0684H20.3783ZM26.592 58H27.6116V51.9062H26.592V58ZM27.1018 50.8809C27.4534 50.8809 27.7405 50.5938 27.7405 50.248C27.7405 49.8965 27.4534 49.6152 27.1018 49.6152C26.7561 49.6152 26.469 49.8965 26.469 50.248C26.469 50.5938 26.7561 50.8809 27.1018 50.8809ZM31.6339 58.1055C33.3155 58.1055 34.4523 56.8926 34.4523 54.9531C34.4523 53.0078 33.3155 51.8008 31.6339 51.8008C29.9464 51.8008 28.8097 53.0078 28.8097 54.9531C28.8097 56.8926 29.9464 58.1055 31.6339 58.1055ZM31.6339 57.209C30.5558 57.209 29.8468 56.3887 29.8468 54.9531C29.8468 53.5176 30.5558 52.6973 31.6339 52.6973C32.712 52.6973 33.4152 53.5176 33.4152 54.9531C33.4152 56.3887 32.712 57.209 31.6339 57.209ZM37.9121 58.1055C38.791 58.1055 39.4883 57.6719 39.8809 56.9688H39.8984V58H40.8711V49.5449H39.8516V52.8965H39.8281C39.4648 52.2285 38.7617 51.8008 37.8887 51.8008C36.3535 51.8008 35.3047 53.043 35.3047 54.9531C35.3047 56.8633 36.3594 58.1055 37.9121 58.1055ZM38.1055 52.6973C39.1543 52.6973 39.8574 53.5938 39.8574 54.9531C39.8574 56.3184 39.1543 57.209 38.1055 57.209C37.0273 57.209 36.3477 56.3359 36.3477 54.9531C36.3477 53.5762 37.0273 52.6973 38.1055 52.6973ZM44.3778 57.2383C43.6454 57.2383 43.1591 56.8574 43.1591 56.2773C43.1591 55.7031 43.6278 55.3398 44.4481 55.2871L46.077 55.1875V55.6855C46.077 56.5645 45.3387 57.2383 44.3778 57.2383ZM44.1493 58.1055C44.9696 58.1055 45.743 57.6484 46.1063 56.9512H46.1298V58H47.0966V53.7871C47.0966 52.5742 46.1942 51.8008 44.7645 51.8008C43.3231 51.8008 42.4208 52.6094 42.3505 53.6641H43.3348C43.4637 53.0664 43.9559 52.6973 44.7411 52.6973C45.5848 52.6973 46.077 53.1426 46.077 53.8867V54.3965L44.3309 54.4961C42.9247 54.5781 42.122 55.2344 42.122 56.2773C42.122 57.373 42.9364 58.1055 44.1493 58.1055ZM48.8396 50.4355V51.9062H47.9314V52.7441H48.8396V56.418C48.8396 57.5898 49.2732 58.0469 50.3923 58.0469C50.6326 58.0469 50.9138 58.0293 51.0369 58V57.1445C50.9666 57.1562 50.7322 57.1738 50.615 57.1738C50.0935 57.1738 49.8591 56.9219 49.8591 56.3652V52.7441H51.0427V51.9062H49.8591V50.4355H48.8396ZM54.1452 57.2383C53.4127 57.2383 52.9264 56.8574 52.9264 56.2773C52.9264 55.7031 53.3952 55.3398 54.2155 55.2871L55.8444 55.1875V55.6855C55.8444 56.5645 55.1061 57.2383 54.1452 57.2383ZM53.9166 58.1055C54.737 58.1055 55.5104 57.6484 55.8737 56.9512H55.8971V58H56.8639V53.7871C56.8639 52.5742 55.9616 51.8008 54.5319 51.8008C53.0905 51.8008 52.1881 52.6094 52.1178 53.6641H53.1022C53.2311 53.0664 53.7233 52.6973 54.5084 52.6973C55.3522 52.6973 55.8444 53.1426 55.8444 53.8867V54.3965L54.0983 54.4961C52.692 54.5781 51.8893 55.2344 51.8893 56.2773C51.8893 57.373 52.7038 58.1055 53.9166 58.1055Z" fill="#3366FF"/>
<line x1="107.5" y1="38" x2="84.5" y2="38" stroke="#3366FF" stroke-linecap="round" stroke-dasharray="3 3"/>
<rect x="142.5" y="12.5" width="23" height="23" rx="11.5" stroke="#9CA3AF"/>
<path d="M151.133 21.9824V21.9883H152.152V21.9824C152.152 21.0391 152.902 20.3242 153.893 20.3242C154.824 20.3242 155.568 20.9746 155.568 21.7891C155.568 22.4922 155.299 22.9434 154.162 24.1387L151.186 27.2734V28H156.764V27.0625H152.645V27.0391L154.783 24.8301C156.195 23.3711 156.623 22.668 156.623 21.7246C156.623 20.4297 155.434 19.4043 153.922 19.4043C152.328 19.4043 151.133 20.5059 151.133 21.9824Z" fill="#9CA3AF"/>
<path d="M125.561 58V50.4941H128.227V49.5449H121.84V50.4941H124.506V58H125.561ZM128.399 60.2793C129.501 60.2793 130.005 59.8516 130.526 58.4277L132.923 51.9062H131.851L130.163 56.9805H130.146L128.458 51.9062H127.368L129.618 58.0059L129.478 58.4336C129.243 59.1426 128.927 59.418 128.358 59.418C128.23 59.418 128.071 59.4121 127.96 59.3887V60.2441C128.071 60.2676 128.276 60.2793 128.399 60.2793ZM136.81 51.8008C135.926 51.8008 135.217 52.252 134.842 52.9375H134.818V51.9062H133.851V60.0332H134.871V57.0098H134.894C135.258 57.6777 135.961 58.1055 136.834 58.1055C138.369 58.1055 139.418 56.8633 139.418 54.9531C139.418 53.043 138.363 51.8008 136.81 51.8008ZM136.611 57.209C135.568 57.209 134.865 56.3125 134.865 54.9531C134.865 53.5996 135.568 52.6973 136.611 52.6973C137.695 52.6973 138.375 53.5762 138.375 54.9531C138.375 56.3359 137.695 57.209 136.611 57.209ZM143.013 52.6855C143.973 52.6855 144.612 53.4121 144.636 54.4316H141.325C141.389 53.418 142.057 52.6855 143.013 52.6855ZM144.612 56.2539C144.442 56.8281 143.874 57.2207 143.1 57.2207C142.005 57.2207 141.319 56.4531 141.319 55.2871V55.2285H145.69V54.8418C145.69 52.9961 144.677 51.8008 143.03 51.8008C141.348 51.8008 140.27 53.084 140.27 54.9766C140.27 56.8926 141.331 58.1055 143.077 58.1055C144.407 58.1055 145.438 57.3203 145.614 56.2539H144.612ZM151.948 58.1055C153.629 58.1055 154.766 56.8926 154.766 54.9531C154.766 53.0078 153.629 51.8008 151.948 51.8008C150.26 51.8008 149.124 53.0078 149.124 54.9531C149.124 56.8926 150.26 58.1055 151.948 58.1055ZM151.948 57.209C150.87 57.209 150.161 56.3887 150.161 54.9531C150.161 53.5176 150.87 52.6973 151.948 52.6973C153.026 52.6973 153.729 53.5176 153.729 54.9531C153.729 56.3887 153.026 57.209 151.948 57.209ZM156.246 58H157.265V52.7441H158.507V51.9062H157.259V51.2324C157.259 50.6289 157.523 50.3359 158.074 50.3359C158.244 50.3359 158.414 50.3535 158.537 50.3711V49.5449C158.39 49.5215 158.144 49.498 157.915 49.498C156.79 49.498 156.246 50.0547 156.246 51.2266V51.9062H155.396V52.7441H156.246V58ZM170.015 51.9062H169.007L167.788 56.8633H167.765L166.382 51.9062H165.398L164.021 56.8633H163.997L162.779 51.9062H161.765L163.47 58H164.507L165.878 53.2832H165.902L167.279 58H168.316L170.015 51.9062ZM173.498 58.1055C175.18 58.1055 176.316 56.8926 176.316 54.9531C176.316 53.0078 175.18 51.8008 173.498 51.8008C171.811 51.8008 170.674 53.0078 170.674 54.9531C170.674 56.8926 171.811 58.1055 173.498 58.1055ZM173.498 57.209C172.42 57.209 171.711 56.3887 171.711 54.9531C171.711 53.5176 172.42 52.6973 173.498 52.6973C174.576 52.6973 175.279 53.5176 175.279 54.9531C175.279 56.3887 174.576 57.209 173.498 57.209ZM177.468 58H178.487V54.2031C178.487 53.3418 179.003 52.7734 179.794 52.7734C180.04 52.7734 180.257 52.8027 180.339 52.832V51.8418C180.257 51.8301 180.104 51.8008 179.929 51.8008C179.214 51.8008 178.651 52.2285 178.452 52.9023H178.429V51.9062H177.468V58ZM182.363 54.6133V49.5449H181.344V58H182.363V55.7031L182.931 55.1641L185.193 58H186.377L183.652 54.5371L186.295 51.9062H185.058L182.363 54.6133Z" fill="#111827"/>
<line x1="223.5" y1="38" x2="200.5" y2="38" stroke="#9CA3AF" stroke-linecap="round" stroke-dasharray="3 3"/>
<rect x="258.5" y="12.5" width="23" height="23" rx="11.5" stroke="#9CA3AF"/>
<path d="M268.408 24.0977H269.469C270.676 24.0977 271.426 24.7129 271.426 25.709C271.426 26.5938 270.623 27.2266 269.504 27.2266C268.367 27.2266 267.646 26.6289 267.553 25.7617H266.539C266.615 27.1621 267.746 28.1406 269.516 28.1406C271.174 28.1406 272.498 27.127 272.498 25.6738C272.498 24.4844 271.678 23.6934 270.4 23.6172V23.5938C271.455 23.4062 272.135 22.6445 272.135 21.584C272.135 20.3125 270.992 19.4043 269.48 19.4043C267.893 19.4043 266.826 20.3242 266.709 21.7598H267.723C267.816 20.875 268.461 20.3184 269.434 20.3184C270.506 20.3184 271.074 20.8867 271.074 21.7246C271.074 22.5801 270.395 23.207 269.422 23.207H268.408V24.0977Z" fill="#9CA3AF"/>
<path d="M230.873 49.5449H229.819V55.0352C229.819 56.8398 231.079 58.1406 233.176 58.1406C235.274 58.1406 236.534 56.8398 236.534 55.0352V49.5449H235.479V54.9648C235.479 56.2422 234.641 57.168 233.176 57.168C231.711 57.168 230.873 56.2422 230.873 54.9648V49.5449ZM241.095 51.8008C240.21 51.8008 239.501 52.252 239.126 52.9375H239.103V51.9062H238.136V60.0332H239.156V57.0098H239.179C239.542 57.6777 240.245 58.1055 241.118 58.1055C242.654 58.1055 243.702 56.8633 243.702 54.9531C243.702 53.043 242.648 51.8008 241.095 51.8008ZM240.896 57.209C239.853 57.209 239.15 56.3125 239.15 54.9531C239.15 53.5996 239.853 52.6973 240.896 52.6973C241.98 52.6973 242.659 53.5762 242.659 54.9531C242.659 56.3359 241.98 57.209 240.896 57.209ZM244.906 58H245.926V49.5449H244.906V58ZM249.948 58.1055C251.63 58.1055 252.767 56.8926 252.767 54.9531C252.767 53.0078 251.63 51.8008 249.948 51.8008C248.261 51.8008 247.124 53.0078 247.124 54.9531C247.124 56.8926 248.261 58.1055 249.948 58.1055ZM249.948 57.209C248.87 57.209 248.161 56.3887 248.161 54.9531C248.161 53.5176 248.87 52.6973 249.948 52.6973C251.026 52.6973 251.73 53.5176 251.73 54.9531C251.73 56.3887 251.026 57.209 249.948 57.209ZM255.928 57.2383C255.195 57.2383 254.709 56.8574 254.709 56.2773C254.709 55.7031 255.178 55.3398 255.998 55.2871L257.627 55.1875V55.6855C257.627 56.5645 256.889 57.2383 255.928 57.2383ZM255.699 58.1055C256.519 58.1055 257.293 57.6484 257.656 56.9512H257.68V58H258.646V53.7871C258.646 52.5742 257.744 51.8008 256.314 51.8008C254.873 51.8008 253.971 52.6094 253.9 53.6641H254.885C255.014 53.0664 255.506 52.6973 256.291 52.6973C257.135 52.6973 257.627 53.1426 257.627 53.8867V54.3965L255.881 54.4961C254.475 54.5781 253.672 55.2344 253.672 56.2773C253.672 57.373 254.486 58.1055 255.699 58.1055ZM262.37 58.1055C263.249 58.1055 263.946 57.6719 264.339 56.9688H264.356V58H265.329V49.5449H264.309V52.8965H264.286C263.923 52.2285 263.22 51.8008 262.346 51.8008C260.811 51.8008 259.762 53.043 259.762 54.9531C259.762 56.8633 260.817 58.1055 262.37 58.1055ZM262.563 52.6973C263.612 52.6973 264.315 53.5938 264.315 54.9531C264.315 56.3184 263.612 57.209 262.563 57.209C261.485 57.209 260.805 56.3359 260.805 54.9531C260.805 53.5762 261.485 52.6973 262.563 52.6973ZM272.366 51.8008C271.481 51.8008 270.772 52.252 270.397 52.9375H270.374V51.9062H269.407V60.0332H270.426V57.0098H270.45C270.813 57.6777 271.516 58.1055 272.389 58.1055C273.924 58.1055 274.973 56.8633 274.973 54.9531C274.973 53.043 273.919 51.8008 272.366 51.8008ZM272.167 57.209C271.124 57.209 270.42 56.3125 270.42 54.9531C270.42 53.5996 271.124 52.6973 272.167 52.6973C273.251 52.6973 273.93 53.5762 273.93 54.9531C273.93 56.3359 273.251 57.209 272.167 57.209ZM278.65 58.1055C280.331 58.1055 281.468 56.8926 281.468 54.9531C281.468 53.0078 280.331 51.8008 278.65 51.8008C276.962 51.8008 275.826 53.0078 275.826 54.9531C275.826 56.8926 276.962 58.1055 278.65 58.1055ZM278.65 57.209C277.572 57.209 276.863 56.3887 276.863 54.9531C276.863 53.5176 277.572 52.6973 278.65 52.6973C279.728 52.6973 280.431 53.5176 280.431 54.9531C280.431 56.3887 279.728 57.209 278.65 57.209ZM282.619 58H283.639V54.2031C283.639 53.3418 284.155 52.7734 284.946 52.7734C285.192 52.7734 285.409 52.8027 285.491 52.832V51.8418C285.409 51.8301 285.256 51.8008 285.08 51.8008C284.366 51.8008 283.803 52.2285 283.604 52.9023H283.58V51.9062H282.619V58ZM286.771 50.4355V51.9062H285.862V52.7441H286.771V56.418C286.771 57.5898 287.204 58.0469 288.323 58.0469C288.564 58.0469 288.845 58.0293 288.968 58V57.1445C288.898 57.1562 288.663 57.1738 288.546 57.1738C288.025 57.1738 287.79 56.9219 287.79 56.3652V52.7441H288.974V51.9062H287.79V50.4355H286.771ZM290.512 58H291.531V52.7441H292.774V51.9062H291.525V51.2324C291.525 50.6289 291.789 50.3359 292.34 50.3359C292.51 50.3359 292.68 50.3535 292.803 50.3711V49.5449C292.656 49.5215 292.41 49.498 292.182 49.498C291.057 49.498 290.512 50.0547 290.512 51.2266V51.9062H289.662V52.7441H290.512V58ZM296.181 58.1055C297.862 58.1055 298.999 56.8926 298.999 54.9531C298.999 53.0078 297.862 51.8008 296.181 51.8008C294.493 51.8008 293.356 53.0078 293.356 54.9531C293.356 56.8926 294.493 58.1055 296.181 58.1055ZM296.181 57.209C295.102 57.209 294.394 56.3887 294.394 54.9531C294.394 53.5176 295.102 52.6973 296.181 52.6973C297.259 52.6973 297.962 53.5176 297.962 54.9531C297.962 56.3887 297.259 57.209 296.181 57.209ZM300.203 58H301.222V49.5449H300.203V58ZM302.772 58H303.792V51.9062H302.772V58ZM303.282 50.8809C303.634 50.8809 303.921 50.5938 303.921 50.248C303.921 49.8965 303.634 49.6152 303.282 49.6152C302.936 49.6152 302.649 49.8965 302.649 50.248C302.649 50.5938 302.936 50.8809 303.282 50.8809ZM307.814 58.1055C309.496 58.1055 310.632 56.8926 310.632 54.9531C310.632 53.0078 309.496 51.8008 307.814 51.8008C306.127 51.8008 304.99 53.0078 304.99 54.9531C304.99 56.8926 306.127 58.1055 307.814 58.1055ZM307.814 57.209C306.736 57.209 306.027 56.3887 306.027 54.9531C306.027 53.5176 306.736 52.6973 307.814 52.6973C308.892 52.6973 309.595 53.5176 309.595 54.9531C309.595 56.3887 308.892 57.209 307.814 57.209Z" fill="#111827"/>
</svg>
