<svg width="74" height="31" viewBox="0 0 74 31" fill="none" xmlns="http://www.w3.org/2000/svg">
<rect y="0.5" width="74" height="30" rx="15" fill="#ADC8FF"/>
<path d="M12.416 17.1738C12.5156 18.668 13.7578 19.6406 15.5508 19.6406C17.4961 19.6406 18.7148 18.6738 18.7148 17.127C18.7148 15.9141 18.0059 15.2402 16.2539 14.8008L15.3691 14.5664C14.2207 14.2676 13.752 13.8867 13.752 13.248C13.752 12.4219 14.5137 11.8535 15.6094 11.8535C16.7109 11.8535 17.4434 12.4102 17.5371 13.3184H18.5918C18.5449 11.9004 17.3262 10.9043 15.6445 10.9043C13.8867 10.9043 12.6562 11.8887 12.6562 13.2949C12.6562 14.4434 13.3477 15.1289 14.9062 15.5273L15.9902 15.8086C17.127 16.1016 17.625 16.541 17.625 17.2559C17.625 18.0879 16.793 18.6914 15.6504 18.6914C14.4434 18.6914 13.5762 18.0879 13.4766 17.1738H12.416ZM24.911 13.4062H23.8915V16.9863C23.8915 18.0234 23.2938 18.7031 22.3036 18.7031C21.3602 18.7031 20.8973 18.1699 20.8973 17.1797V13.4062H19.8778V17.3613C19.8778 18.7441 20.6571 19.6055 21.9872 19.6055C22.9247 19.6055 23.5575 19.2129 23.9208 18.5098H23.9442V19.5H24.911V13.4062ZM29.3845 19.6055C30.9431 19.6055 31.9744 18.3691 31.9744 16.4531C31.9744 14.543 30.9373 13.3008 29.4021 13.3008C28.5408 13.3008 27.8318 13.7285 27.4509 14.4258H27.4275V11.0449H26.408V19.5H27.3806V18.4688H27.4041C27.7966 19.1719 28.4939 19.6055 29.3845 19.6055ZM29.1853 14.1973C30.2634 14.1973 30.9314 15.0703 30.9314 16.4531C30.9314 17.8477 30.2634 18.709 29.1853 18.709C28.1541 18.709 27.4216 17.8125 27.4216 16.4531C27.4216 15.0996 28.1541 14.1973 29.1853 14.1973ZM33.1315 19.5H34.151V15.6797C34.151 14.8359 34.737 14.2031 35.5455 14.2031C36.3014 14.2031 36.7936 14.6836 36.7936 15.416V19.5H37.8131V15.627C37.8131 14.8008 38.3815 14.2031 39.1901 14.2031C39.9928 14.2031 40.4557 14.6953 40.4557 15.5273V19.5H41.4752V15.293C41.4752 14.0859 40.6959 13.3008 39.4889 13.3008C38.6334 13.3008 37.9186 13.7344 37.5788 14.4609H37.5553C37.2916 13.7227 36.6764 13.3008 35.8444 13.3008C35.0241 13.3008 34.403 13.7344 34.1159 14.3789H34.0924V13.4062H33.1315V19.5ZM42.9487 19.5H43.9683V13.4062H42.9487V19.5ZM43.4585 12.3809C43.8101 12.3809 44.0972 12.0938 44.0972 11.748C44.0972 11.3965 43.8101 11.1152 43.4585 11.1152C43.1128 11.1152 42.8257 11.3965 42.8257 11.748C42.8257 12.0938 43.1128 12.3809 43.4585 12.3809ZM45.7934 11.9355V13.4062H44.8852V14.2441H45.7934V17.918C45.7934 19.0898 46.227 19.5469 47.3461 19.5469C47.5863 19.5469 47.8676 19.5293 47.9906 19.5V18.6445C47.9203 18.6562 47.6859 18.6738 47.5687 18.6738C47.0473 18.6738 46.8129 18.4219 46.8129 17.8652V14.2441H47.9965V13.4062H46.8129V11.9355H45.7934ZM51.4739 14.1855C52.4348 14.1855 53.0735 14.9121 53.097 15.9316H49.7864C49.8509 14.918 50.5188 14.1855 51.4739 14.1855ZM53.0735 17.7539C52.9036 18.3281 52.3352 18.7207 51.5618 18.7207C50.4661 18.7207 49.7805 17.9531 49.7805 16.7871V16.7285H54.1516V16.3418C54.1516 14.4961 53.138 13.3008 51.4915 13.3008C49.8098 13.3008 48.7317 14.584 48.7317 16.4766C48.7317 18.3926 49.7923 19.6055 51.5384 19.6055C52.8684 19.6055 53.8997 18.8203 54.0755 17.7539H53.0735ZM57.6115 19.6055C58.4904 19.6055 59.1877 19.1719 59.5802 18.4688H59.5978V19.5H60.5705V11.0449H59.5509V14.3965H59.5275C59.1642 13.7285 58.4611 13.3008 57.588 13.3008C56.0529 13.3008 55.0041 14.543 55.0041 16.4531C55.0041 18.3633 56.0588 19.6055 57.6115 19.6055ZM57.8048 14.1973C58.8537 14.1973 59.5568 15.0938 59.5568 16.4531C59.5568 17.8184 58.8537 18.709 57.8048 18.709C56.7267 18.709 56.047 17.8359 56.047 16.4531C56.047 15.0762 56.7267 14.1973 57.8048 14.1973Z" fill="#1939B7"/>
</svg>
