<svg width="28" height="29" viewBox="0 0 28 29" fill="none" xmlns="http://www.w3.org/2000/svg">
<path d="M14.0002 2.8335C7.57183 2.8335 2.3335 8.07183 2.3335 14.5002C2.3335 20.9285 7.57183 26.1668 14.0002 26.1668C20.4285 26.1668 25.6668 20.9285 25.6668 14.5002C25.6668 8.07183 20.4285 2.8335 14.0002 2.8335ZM19.5768 11.8168L12.9618 18.4318C12.7985 18.5952 12.5768 18.6885 12.3435 18.6885C12.1102 18.6885 11.8885 18.5952 11.7252 18.4318L8.4235 15.1302C8.08516 14.7918 8.08516 14.2318 8.4235 13.8935C8.76183 13.5552 9.32183 13.5552 9.66016 13.8935L12.3435 16.5768L18.3402 10.5802C18.6785 10.2418 19.2385 10.2418 19.5768 10.5802C19.9152 10.9185 19.9152 11.4668 19.5768 11.8168Z" fill="#9CA3AF"/>
</svg>
