<svg width="44" height="44" viewBox="0 0 44 44" fill="none" xmlns="http://www.w3.org/2000/svg">
<circle cx="22" cy="22" r="22" fill="#D6E4FF"/>
<path d="M26 32.75H19C15.56 32.75 13.25 30.44 13.25 27V17C13.25 13.56 15.56 11.25 19 11.25H26C29.44 11.25 31.75 13.56 31.75 17V27C31.75 30.44 29.44 32.75 26 32.75ZM19 12.75C16.42 12.75 14.75 14.42 14.75 17V27C14.75 29.58 16.42 31.25 19 31.25H26C28.58 31.25 30.25 29.58 30.25 27V17C30.25 14.42 28.58 12.75 26 12.75H19Z" fill="#3366FF"/>
<path d="M31 25.75H14C13.59 25.75 13.25 25.41 13.25 25C13.25 24.59 13.59 24.25 14 24.25H31C31.41 24.25 31.75 24.59 31.75 25C31.75 25.41 31.41 25.75 31 25.75Z" fill="#3366FF"/>
<path d="M18 22.75H17C16.59 22.75 16.25 22.41 16.25 22C16.25 21.59 16.59 21.25 17 21.25H18C18.41 21.25 18.75 21.59 18.75 22C18.75 22.41 18.41 22.75 18 22.75Z" fill="#3366FF"/>
<path d="M18 20.25H17C16.59 20.25 16.25 19.91 16.25 19.5C16.25 19.09 16.59 18.75 17 18.75H18C18.41 18.75 18.75 19.09 18.75 19.5C18.75 19.91 18.41 20.25 18 20.25Z" fill="#3366FF"/>
<path d="M18 17.75H17C16.59 17.75 16.25 17.41 16.25 17C16.25 16.59 16.59 16.25 17 16.25H18C18.41 16.25 18.75 16.59 18.75 17C18.75 17.41 18.41 17.75 18 17.75Z" fill="#3366FF"/>
<path d="M27 29.5C26.74 29.5 26.48 29.39 26.29 29.21C26.11 29.02 26 28.76 26 28.5C26 28.23 26.11 27.98 26.29 27.79C26.57 27.51 27.01 27.42 27.38 27.58C27.5 27.63 27.61 27.7 27.71 27.79C27.89 27.98 28 28.24 28 28.5C28 28.76 27.89 29.02 27.71 29.21C27.61 29.3 27.51 29.37 27.38 29.42C27.26 29.47 27.13 29.5 27 29.5Z" fill="#3366FF"/>
</svg>
