<svg width="44" height="44" viewBox="0 0 44 44" fill="none" xmlns="http://www.w3.org/2000/svg">
<circle cx="22" cy="22" r="22" fill="#D6E4FF"/>
<path d="M28 20.75C27.59 20.75 27.25 20.41 27.25 20V18C27.25 14.85 26.36 12.75 22 12.75C17.64 12.75 16.75 14.85 16.75 18V20C16.75 20.41 16.41 20.75 16 20.75C15.59 20.75 15.25 20.41 15.25 20V18C15.25 15.1 15.95 11.25 22 11.25C28.05 11.25 28.75 15.1 28.75 18V20C28.75 20.41 28.41 20.75 28 20.75Z" fill="#3366FF"/>
<path d="M22 29.25C20.21 29.25 18.75 27.79 18.75 26C18.75 24.21 20.21 22.75 22 22.75C23.79 22.75 25.25 24.21 25.25 26C25.25 27.79 23.79 29.25 22 29.25ZM22 24.25C21.04 24.25 20.25 25.04 20.25 26C20.25 26.96 21.04 27.75 22 27.75C22.96 27.75 23.75 26.96 23.75 26C23.75 25.04 22.96 24.25 22 24.25Z" fill="#3366FF"/>
<path d="M27 32.75H17C12.59 32.75 11.25 31.41 11.25 27V25C11.25 20.59 12.59 19.25 17 19.25H27C31.41 19.25 32.75 20.59 32.75 25V27C32.75 31.41 31.41 32.75 27 32.75ZM17 20.75C13.42 20.75 12.75 21.43 12.75 25V27C12.75 30.57 13.42 31.25 17 31.25H27C30.58 31.25 31.25 30.57 31.25 27V25C31.25 21.43 30.58 20.75 27 20.75H17Z" fill="#3366FF"/>
</svg>
