<svg width="327" height="49" viewBox="0 0 327 49" fill="none" xmlns="http://www.w3.org/2000/svg">
<rect x="0.5" y="0.5" width="326" height="48" rx="24" stroke="#D1D5DB"/>
<path d="M16.7891 18.7266H15.0391V26.0391C15.0391 28.4688 16.7734 30.1875 19.6016 30.1875C22.4297 30.1875 24.1641 28.4688 24.1641 26.0391V18.7266H22.4219V25.8906C22.4219 27.5 21.3984 28.6328 19.6016 28.6328C17.8047 28.6328 16.7891 27.5 16.7891 25.8906V18.7266ZM26.1991 30H27.8866V25.2109C27.8866 23.9375 28.6522 23.0938 29.8397 23.0938C31.0116 23.0938 31.5897 23.7734 31.5897 25.0078V30H33.285V24.6797C33.285 22.7969 32.2459 21.6406 30.4334 21.6406C29.1678 21.6406 28.2928 22.2188 27.8475 23.1562H27.8084V21.7812H26.1991V30ZM35.0778 30H36.7653V25.0781C36.7653 23.9141 37.4372 23.1875 38.5231 23.1875C38.8512 23.1875 39.1481 23.2266 39.2809 23.2812V21.7109C39.1559 21.6875 38.945 21.6484 38.7028 21.6484C37.7341 21.6484 36.9997 22.2188 36.7262 23.1797H36.6872V21.7812H35.0778V30ZM43.5659 22.9922C44.7456 22.9922 45.5425 23.875 45.5816 25.1328H41.4722C41.5581 23.8906 42.3862 22.9922 43.5659 22.9922ZM45.5737 27.5859C45.3472 28.3047 44.6362 28.7891 43.6753 28.7891C42.3237 28.7891 41.4644 27.8438 41.4644 26.4141V26.3125H47.2691V25.7344C47.2691 23.2422 45.8472 21.6328 43.5659 21.6328C41.2456 21.6328 39.7612 23.3516 39.7612 25.9297C39.7612 28.5234 41.2222 30.1562 43.6362 30.1562C45.5191 30.1562 46.9409 29.0859 47.1753 27.5859H45.5737ZM51.6166 28.8047C50.7103 28.8047 50.1166 28.3359 50.1166 27.6172C50.1166 26.9141 50.6869 26.4688 51.6947 26.3984L53.7181 26.2734V26.9219C53.7181 27.9922 52.7962 28.8047 51.6166 28.8047ZM51.1478 30.1406C52.2259 30.1406 53.265 29.5625 53.7416 28.6484H53.7806V30H55.3978V24.3359C55.3978 22.6875 54.1244 21.6328 52.1322 21.6328C50.1009 21.6328 48.8353 22.7266 48.7416 24.2109H50.3353C50.4837 23.4766 51.0931 23.0078 52.0697 23.0078C53.1009 23.0078 53.7181 23.5547 53.7181 24.4688V25.1016L51.4681 25.2344C49.515 25.3438 48.4134 26.2266 48.4134 27.6641C48.4134 29.1406 49.5384 30.1406 51.1478 30.1406ZM60.2844 30.1406C61.4797 30.1406 62.4172 29.5391 62.9016 28.6016H62.9328V30H64.5734V18.7266H62.8781V23.1484H62.8469C62.3859 22.2422 61.4484 21.6484 60.2687 21.6484C58.2062 21.6484 56.8312 23.2969 56.8312 25.8906C56.8312 28.4844 58.2062 30.1406 60.2844 30.1406ZM60.7297 23.0703C62.0266 23.0703 62.8937 24.1875 62.8937 25.8906C62.8937 27.6094 62.0266 28.7109 60.7297 28.7109C59.3937 28.7109 58.5578 27.625 58.5578 25.8906C58.5578 24.1641 59.3937 23.0703 60.7297 23.0703Z" fill="#374151"/>
<path d="M302.94 32.78C302.813 32.78 302.687 32.7333 302.587 32.6333C302.393 32.44 302.393 32.12 302.587 31.9267L306.933 27.58C307.253 27.26 307.253 26.74 306.933 26.42L302.587 22.0733C302.393 21.88 302.393 21.56 302.587 21.3667C302.78 21.1733 303.1 21.1733 303.293 21.3667L307.64 25.7133C307.98 26.0533 308.173 26.5133 308.173 27C308.173 27.4867 307.987 27.9467 307.64 28.2867L303.293 32.6333C303.193 32.7267 303.067 32.78 302.94 32.78Z" fill="#111827"/>
</svg>
