<svg width="327" height="221" viewBox="0 0 327 221" fill="none" xmlns="http://www.w3.org/2000/svg">
<rect x="0.75" y="0.75" width="325.5" height="219.5" rx="7.25" fill="#ECF2FF"/>
<rect x="0.75" y="0.75" width="325.5" height="219.5" rx="7.25" stroke="#6690FF" stroke-width="1.5" stroke-dasharray="5 5"/>
<rect x="135.5" y="16" width="56" height="56" rx="28" fill="#D6E4FF"/>
<path d="M174.833 41.5866H170.98C167.82 41.5866 165.247 39.0133 165.247 35.8533V32C165.247 31.2666 164.647 30.6666 163.913 30.6666H158.26C154.153 30.6666 150.833 33.3333 150.833 38.0933V49.9066C150.833 54.6666 154.153 57.3333 158.26 57.3333H168.74C172.847 57.3333 176.167 54.6666 176.167 49.9066V42.92C176.167 42.1866 175.567 41.5866 174.833 41.5866ZM162.873 46.04C162.673 46.24 162.42 46.3333 162.167 46.3333C161.913 46.3333 161.66 46.24 161.46 46.04L160.5 45.08V50.6666C160.5 51.2133 160.047 51.6666 159.5 51.6666C158.953 51.6666 158.5 51.2133 158.5 50.6666V45.08L157.54 46.04C157.153 46.4266 156.513 46.4266 156.127 46.04C155.74 45.6533 155.74 45.0133 156.127 44.6266L158.793 41.96C158.887 41.88 158.98 41.8133 159.087 41.76C159.113 41.7466 159.153 41.7333 159.18 41.72C159.26 41.6933 159.34 41.68 159.433 41.6666C159.473 41.6666 159.5 41.6666 159.54 41.6666C159.647 41.6666 159.753 41.6933 159.86 41.7333C159.873 41.7333 159.873 41.7333 159.887 41.7333C159.993 41.7733 160.1 41.8533 160.18 41.9333C160.193 41.9466 160.207 41.9466 160.207 41.96L162.873 44.6266C163.26 45.0133 163.26 45.6533 162.873 46.04Z" fill="#3366FF"/>
<path d="M170.74 39.7467C172.007 39.76 173.767 39.76 175.273 39.76C176.033 39.76 176.433 38.8667 175.9 38.3334C173.98 36.4 170.54 32.92 168.567 30.9467C168.02 30.4 167.073 30.7734 167.073 31.5334V36.1867C167.073 38.1334 168.727 39.7467 170.74 39.7467Z" fill="#3366FF"/>
<path d="M81.9284 93.3174H79.9596V101.544C79.9596 104.277 81.9108 106.211 85.0924 106.211C88.2741 106.211 90.2252 104.277 90.2252 101.544V93.3174H88.2653V101.377C88.2653 103.188 87.1139 104.462 85.0924 104.462C83.0709 104.462 81.9284 103.188 81.9284 101.377V93.3174ZM97.331 96.6045C95.9951 96.6045 94.9316 97.2812 94.3867 98.3447H94.3515V96.7539H92.5146V109.059H94.413V104.479H94.457C94.9843 105.508 96.039 106.158 97.3662 106.158C99.6865 106.158 101.225 104.304 101.225 101.377C101.225 98.4502 99.6777 96.6045 97.331 96.6045ZM96.83 104.55C95.3711 104.55 94.4043 103.302 94.4043 101.377C94.4043 99.4697 95.3798 98.2041 96.83 98.2041C98.333 98.2041 99.2734 99.4434 99.2734 101.377C99.2734 103.319 98.333 104.55 96.83 104.55ZM102.943 106H104.841V93.3174H102.943V106ZM110.945 106.176C113.59 106.176 115.331 104.356 115.331 101.377C115.331 98.4062 113.582 96.5869 110.945 96.5869C108.308 96.5869 106.559 98.4062 106.559 101.377C106.559 104.356 108.299 106.176 110.945 106.176ZM110.945 104.611C109.46 104.611 108.493 103.434 108.493 101.377C108.493 99.3291 109.46 98.1514 110.945 98.1514C112.43 98.1514 113.397 99.3291 113.397 101.377C113.397 103.434 112.439 104.611 110.945 104.611ZM120.213 104.655C119.193 104.655 118.525 104.128 118.525 103.319C118.525 102.528 119.167 102.027 120.301 101.948L122.577 101.808V102.537C122.577 103.741 121.54 104.655 120.213 104.655ZM119.685 106.158C120.898 106.158 122.067 105.508 122.603 104.479H122.647V106H124.467V99.6279C124.467 97.7734 123.034 96.5869 120.793 96.5869C118.508 96.5869 117.084 97.8174 116.978 99.4873H118.771C118.938 98.6611 119.624 98.1338 120.723 98.1338C121.883 98.1338 122.577 98.749 122.577 99.7773V100.489L120.046 100.639C117.849 100.762 116.609 101.755 116.609 103.372C116.609 105.033 117.875 106.158 119.685 106.158ZM129.964 106.158C131.309 106.158 132.364 105.481 132.908 104.427H132.944V106H134.789V93.3174H132.882V98.292H132.847C132.328 97.2725 131.274 96.6045 129.947 96.6045C127.626 96.6045 126.079 98.459 126.079 101.377C126.079 104.295 127.626 106.158 129.964 106.158ZM130.465 98.2041C131.924 98.2041 132.9 99.4609 132.9 101.377C132.9 103.311 131.924 104.55 130.465 104.55C128.962 104.55 128.022 103.328 128.022 101.377C128.022 99.4346 128.962 98.2041 130.465 98.2041ZM141.671 109.445C143.596 109.445 144.501 108.725 145.292 106.483L148.764 96.7539H146.76L144.413 104.277H144.387L142.04 96.7539H139.983L143.323 106.009C143.323 106.018 143.156 106.562 143.156 106.58C142.866 107.529 142.4 107.898 141.513 107.898C141.354 107.898 141.038 107.898 140.897 107.863V109.401C141.038 109.428 141.521 109.445 141.671 109.445ZM153.769 106.176C156.414 106.176 158.154 104.356 158.154 101.377C158.154 98.4062 156.405 96.5869 153.769 96.5869C151.132 96.5869 149.383 98.4062 149.383 101.377C149.383 104.356 151.123 106.176 153.769 106.176ZM153.769 104.611C152.283 104.611 151.317 103.434 151.317 101.377C151.317 99.3291 152.283 98.1514 153.769 98.1514C155.254 98.1514 156.221 99.3291 156.221 101.377C156.221 103.434 155.263 104.611 153.769 104.611ZM167.73 96.7539H165.832V102.142C165.832 103.583 165.005 104.532 163.634 104.532C162.325 104.532 161.657 103.776 161.657 102.37V96.7539H159.758V102.739C159.758 104.857 160.989 106.167 163.001 106.167C164.417 106.167 165.357 105.543 165.867 104.436H165.911V106H167.73V96.7539ZM169.791 106H171.689V100.463C171.689 99.1533 172.445 98.3359 173.667 98.3359C174.036 98.3359 174.37 98.3799 174.519 98.4414V96.6748C174.379 96.6484 174.141 96.6045 173.869 96.6045C172.779 96.6045 171.953 97.2461 171.645 98.3271H171.601V96.7539H169.791V106ZM183.686 106.176C186.332 106.176 188.072 104.356 188.072 101.377C188.072 98.4062 186.323 96.5869 183.686 96.5869C181.049 96.5869 179.3 98.4062 179.3 101.377C179.3 104.356 181.041 106.176 183.686 106.176ZM183.686 104.611C182.201 104.611 181.234 103.434 181.234 101.377C181.234 99.3291 182.201 98.1514 183.686 98.1514C185.171 98.1514 186.138 99.3291 186.138 101.377C186.138 103.434 185.18 104.611 183.686 104.611ZM190.273 94.5654V96.7539H188.929V98.2568H190.273V103.565C190.273 105.35 191.003 106.062 192.875 106.062C193.297 106.062 193.719 106.026 193.929 105.974V104.471C193.806 104.497 193.499 104.515 193.305 104.515C192.532 104.515 192.18 104.154 192.18 103.354V98.2568H193.938V96.7539H192.18V94.5654H190.273ZM195.753 106H197.651V100.656C197.651 99.1973 198.513 98.2305 199.919 98.2305C201.255 98.2305 201.941 99.0479 201.941 100.41V106H203.848V100.041C203.848 97.9492 202.635 96.5957 200.605 96.5957C199.198 96.5957 198.188 97.2197 197.678 98.3008H197.634V93.3174H195.753V106ZM209.732 98.1162C211.059 98.1162 211.956 99.1094 211.999 100.524H207.376C207.473 99.127 208.405 98.1162 209.732 98.1162ZM211.991 103.284C211.736 104.093 210.936 104.638 209.855 104.638C208.334 104.638 207.368 103.574 207.368 101.966V101.852H213.898V101.201C213.898 98.3975 212.298 96.5869 209.732 96.5869C207.122 96.5869 205.452 98.5205 205.452 101.421C205.452 104.339 207.095 106.176 209.811 106.176C211.929 106.176 213.529 104.972 213.792 103.284H211.991ZM215.554 106H217.453V100.463C217.453 99.1533 218.209 98.3359 219.43 98.3359C219.8 98.3359 220.134 98.3799 220.283 98.4414V96.6748C220.142 96.6484 219.905 96.6045 219.633 96.6045C218.543 96.6045 217.717 97.2461 217.409 98.3271H217.365V96.7539H215.554V106ZM226.031 106H227.938V98.2568H229.784V96.7715H227.912V95.9014C227.912 95.084 228.298 94.6709 229.124 94.6709C229.379 94.6709 229.634 94.6885 229.819 94.7236V93.3174C229.573 93.2734 229.142 93.2295 228.755 93.2295C226.874 93.2295 226.031 94.0732 226.031 95.8662V96.7715H224.756V98.2568H226.031V106ZM231.519 106H233.418V96.7539H231.519V106ZM232.468 95.4004C233.084 95.4004 233.576 94.917 233.576 94.3193C233.576 93.7129 233.084 93.2295 232.468 93.2295C231.862 93.2295 231.37 93.7129 231.37 94.3193C231.37 94.917 231.862 95.4004 232.468 95.4004ZM235.61 106H237.509V93.3174H235.61V106ZM243.507 98.1162C244.834 98.1162 245.731 99.1094 245.775 100.524H241.152C241.248 99.127 242.18 98.1162 243.507 98.1162ZM245.766 103.284C245.511 104.093 244.711 104.638 243.63 104.638C242.11 104.638 241.143 103.574 241.143 101.966V101.852H247.673V101.201C247.673 98.3975 246.074 96.5869 243.507 96.5869C240.897 96.5869 239.227 98.5205 239.227 101.421C239.227 104.339 240.87 106.176 243.586 106.176C245.704 106.176 247.304 104.972 247.568 103.284H245.766Z" fill="#111827"/>
<path d="M122.587 132V123.545H121.362L118.444 130.6H118.397L115.479 123.545H114.255V132H115.239V125.484H115.28L117.975 131.941H118.866L121.561 125.484H121.602V132H122.587ZM126.023 131.238C125.291 131.238 124.804 130.857 124.804 130.277C124.804 129.703 125.273 129.34 126.093 129.287L127.722 129.188V129.686C127.722 130.564 126.984 131.238 126.023 131.238ZM125.794 132.105C126.615 132.105 127.388 131.648 127.751 130.951H127.775V132H128.742V127.787C128.742 126.574 127.839 125.801 126.41 125.801C124.968 125.801 124.066 126.609 123.996 127.664H124.98C125.109 127.066 125.601 126.697 126.386 126.697C127.23 126.697 127.722 127.143 127.722 127.887V128.396L125.976 128.496C124.57 128.578 123.767 129.234 123.767 130.277C123.767 131.373 124.582 132.105 125.794 132.105ZM132.313 129.68L133.772 132H134.903L132.875 128.912L134.932 125.906H133.795L132.348 128.191H132.325L130.86 125.906H129.723L131.762 128.953L129.688 132H130.819L132.289 129.68H132.313ZM136.775 132.059C137.15 132.059 137.443 131.766 137.443 131.391C137.443 131.016 137.15 130.723 136.775 130.723C136.4 130.723 136.107 131.016 136.107 131.391C136.107 131.766 136.4 132.059 136.775 132.059ZM141.403 132H142.423V126.744H143.665V125.906H142.417V125.232C142.417 124.629 142.681 124.336 143.231 124.336C143.401 124.336 143.571 124.354 143.694 124.371V123.545C143.548 123.521 143.302 123.498 143.073 123.498C141.948 123.498 141.403 124.055 141.403 125.227V125.906H140.554V126.744H141.403V132ZM144.893 132H145.912V125.906H144.893V132ZM145.402 124.881C145.754 124.881 146.041 124.594 146.041 124.248C146.041 123.896 145.754 123.615 145.402 123.615C145.057 123.615 144.769 123.896 144.769 124.248C144.769 124.594 145.057 124.881 145.402 124.881ZM147.462 132H148.481V123.545H147.462V132ZM152.422 126.686C153.383 126.686 154.021 127.412 154.045 128.432H150.734C150.799 127.418 151.466 126.686 152.422 126.686ZM154.021 130.254C153.851 130.828 153.283 131.221 152.509 131.221C151.414 131.221 150.728 130.453 150.728 129.287V129.229H155.099V128.842C155.099 126.996 154.086 125.801 152.439 125.801C150.758 125.801 149.679 127.084 149.679 128.977C149.679 130.893 150.74 132.105 152.486 132.105C153.816 132.105 154.847 131.32 155.023 130.254H154.021ZM158.726 127.588C158.726 128.42 159.253 128.971 160.326 129.246L161.398 129.521C162.083 129.703 162.335 129.938 162.335 130.371C162.335 130.922 161.826 131.273 160.999 131.273C160.173 131.273 159.693 130.934 159.581 130.301H158.562C158.667 131.379 159.599 132.105 160.935 132.105C162.359 132.105 163.361 131.355 163.361 130.295C163.361 129.398 162.915 128.953 161.685 128.643L160.742 128.414C160.05 128.238 159.728 127.957 159.728 127.535C159.728 127.002 160.22 126.633 160.964 126.633C161.714 126.633 162.189 126.996 162.259 127.582H163.232C163.185 126.551 162.259 125.801 160.999 125.801C159.658 125.801 158.726 126.545 158.726 127.588ZM164.594 132H165.614V125.906H164.594V132ZM165.104 124.881C165.455 124.881 165.742 124.594 165.742 124.248C165.742 123.896 165.455 123.615 165.104 123.615C164.758 123.615 164.471 123.896 164.471 124.248C164.471 124.594 164.758 124.881 165.104 124.881ZM166.982 132H171.529V131.162H168.159V131.145L171.511 126.65V125.906H166.988V126.744H170.357V126.762L166.982 131.273V132ZM175.053 126.686C176.014 126.686 176.652 127.412 176.676 128.432H173.365C173.43 127.418 174.098 126.686 175.053 126.686ZM176.652 130.254C176.482 130.828 175.914 131.221 175.141 131.221C174.045 131.221 173.359 130.453 173.359 129.287V129.229H177.731V128.842C177.731 126.996 176.717 125.801 175.07 125.801C173.389 125.801 172.311 127.084 172.311 128.977C172.311 130.893 173.371 132.105 175.117 132.105C176.447 132.105 177.479 131.32 177.654 130.254H176.652ZM183.642 132H184.662V123.545H183.631L181.381 125.162V126.275L183.619 124.664H183.642V132ZM189.885 132.141C191.854 132.141 192.991 130.436 192.991 127.764C192.991 125.109 191.848 123.404 189.885 123.404C187.923 123.404 186.768 125.121 186.768 127.77C186.768 130.441 187.911 132.141 189.885 132.141ZM189.885 131.221C188.561 131.221 187.829 129.873 187.829 127.764C187.829 125.701 188.579 124.33 189.885 124.33C191.192 124.33 191.93 125.689 191.93 127.77C191.93 129.879 191.204 131.221 189.885 131.221ZM205.372 132V123.545H204.147L201.229 130.6H201.182L198.264 123.545H197.04V132H198.024V125.484H198.065L200.76 131.941H201.651L204.346 125.484H204.387V132H205.372ZM210.326 132C212.124 132 213.191 131.115 213.191 129.627C213.191 128.502 212.452 127.693 211.304 127.547V127.5C212.119 127.354 212.763 126.533 212.763 125.654C212.763 124.389 211.785 123.545 210.337 123.545H207.132V132H210.326ZM208.187 124.477H210.097C211.122 124.477 211.697 124.939 211.697 125.777C211.697 126.691 211.017 127.189 209.769 127.189H208.187V124.477ZM208.187 131.068V128.098H210.068C211.415 128.098 212.107 128.596 212.107 129.574C212.107 130.553 211.439 131.068 210.167 131.068H208.187Z" fill="#6B7280"/>
<rect x="16.5" y="161.5" width="294" height="39" rx="19.5" fill="#D6E4FF"/>
<rect x="16.5" y="161.5" width="294" height="39" rx="19.5" stroke="#3366FF"/>
<path d="M134.217 189.542H128.784C124.692 189.542 122.942 187.792 122.942 183.7V183.592C122.942 179.892 124.4 178.108 127.667 177.8C128 177.775 128.317 178.025 128.35 178.367C128.384 178.708 128.134 179.017 127.784 179.05C125.167 179.292 124.192 180.525 124.192 183.6V183.708C124.192 187.1 125.392 188.3 128.784 188.3H134.217C137.609 188.3 138.809 187.1 138.809 183.708V183.6C138.809 180.508 137.817 179.275 135.15 179.05C134.809 179.017 134.55 178.717 134.584 178.375C134.617 178.033 134.909 177.775 135.259 177.808C138.575 178.092 140.059 179.883 140.059 183.608V183.717C140.059 187.792 138.309 189.542 134.217 189.542Z" fill="#3366FF"/>
<path d="M131.5 184.125C131.158 184.125 130.875 183.842 130.875 183.5V174.017C130.875 173.675 131.158 173.392 131.5 173.392C131.842 173.392 132.125 173.675 132.125 174.017V183.5C132.125 183.842 131.842 184.125 131.5 184.125Z" fill="#3366FF"/>
<path d="M134.292 176.5C134.133 176.5 133.975 176.442 133.85 176.317L131.5 173.967L129.15 176.317C128.908 176.558 128.508 176.558 128.267 176.317C128.025 176.075 128.025 175.675 128.267 175.433L131.058 172.642C131.3 172.4 131.7 172.4 131.942 172.642L134.733 175.433C134.975 175.675 134.975 176.075 134.733 176.317C134.617 176.442 134.45 176.5 134.292 176.5Z" fill="#3366FF"/>
<path d="M160.198 186.5H162.049L157.979 175.227H156.088L152.018 186.5H153.838L154.87 183.453H159.167L160.198 186.5ZM156.995 177.102H157.042L158.721 182.047H155.315L156.995 177.102ZM166.116 186.641C167.311 186.641 168.248 186.039 168.733 185.102H168.764V186.5H170.405V175.227H168.709V179.648H168.678C168.217 178.742 167.28 178.148 166.1 178.148C164.038 178.148 162.663 179.797 162.663 182.391C162.663 184.984 164.038 186.641 166.116 186.641ZM166.561 179.57C167.858 179.57 168.725 180.688 168.725 182.391C168.725 184.109 167.858 185.211 166.561 185.211C165.225 185.211 164.389 184.125 164.389 182.391C164.389 180.664 165.225 179.57 166.561 179.57ZM175.385 186.641C176.58 186.641 177.518 186.039 178.002 185.102H178.033V186.5H179.674V175.227H177.979V179.648H177.948C177.487 178.742 176.549 178.148 175.369 178.148C173.307 178.148 171.932 179.797 171.932 182.391C171.932 184.984 173.307 186.641 175.385 186.641ZM175.83 179.57C177.127 179.57 177.994 180.688 177.994 182.391C177.994 184.109 177.127 185.211 175.83 185.211C174.494 185.211 173.658 184.125 173.658 182.391C173.658 180.664 174.494 179.57 175.83 179.57ZM185.471 186.5H187.166V179.617H188.807V178.297H187.143V177.523C187.143 176.797 187.486 176.43 188.221 176.43C188.447 176.43 188.674 176.445 188.838 176.477V175.227C188.619 175.188 188.236 175.148 187.893 175.148C186.221 175.148 185.471 175.898 185.471 177.492V178.297H184.338V179.617H185.471V186.5ZM190.349 186.5H192.037V178.281H190.349V186.5ZM191.193 177.078C191.74 177.078 192.177 176.648 192.177 176.117C192.177 175.578 191.74 175.148 191.193 175.148C190.654 175.148 190.217 175.578 190.217 176.117C190.217 176.648 190.654 177.078 191.193 177.078ZM193.986 186.5H195.673V175.227H193.986V186.5ZM201.005 179.492C202.185 179.492 202.982 180.375 203.021 181.633H198.912C198.997 180.391 199.826 179.492 201.005 179.492ZM203.013 184.086C202.787 184.805 202.076 185.289 201.115 185.289C199.763 185.289 198.904 184.344 198.904 182.914V182.812H204.708V182.234C204.708 179.742 203.287 178.133 201.005 178.133C198.685 178.133 197.201 179.852 197.201 182.43C197.201 185.023 198.662 186.656 201.076 186.656C202.958 186.656 204.38 185.586 204.615 184.086H203.013Z" fill="#3366FF"/>
</svg>
