<svg width="327" height="52" viewBox="0 0 327 52" fill="none" xmlns="http://www.w3.org/2000/svg">
<rect x="0.5" y="0.5" width="326" height="51" rx="25.5" stroke="#D1D5DB"/>
<path d="M30 36.75H22C18.98 36.75 17.25 35.02 17.25 32V22.25C17.25 19.1 18.85 17.5 22 17.5C22.41 17.5 22.75 17.84 22.75 18.25C22.75 18.65 22.91 19.03 23.19 19.31C23.47 19.59 23.85 19.75 24.25 19.75H27.75C28.58 19.75 29.25 19.08 29.25 18.25C29.25 17.84 29.59 17.5 30 17.5C33.15 17.5 34.75 19.1 34.75 22.25V32C34.75 35.02 33.02 36.75 30 36.75ZM21.35 19.02C19.77 19.15 18.75 19.86 18.75 22.25V32C18.75 34.22 19.78 35.25 22 35.25H30C32.22 35.25 33.25 34.22 33.25 32V22.25C33.25 19.86 32.23 19.16 30.65 19.02C30.31 20.3 29.14 21.25 27.75 21.25H24.25C23.45 21.25 22.7 20.94 22.13 20.37C21.75 19.99 21.49 19.53 21.35 19.02Z" fill="#374151"/>
<path d="M27.75 21.25H24.25C23.45 21.25 22.7 20.94 22.13 20.37C21.56 19.8 21.25 19.05 21.25 18.25C21.25 16.6 22.6 15.25 24.25 15.25H27.75C28.55 15.25 29.3 15.56 29.87 16.13C30.44 16.7 30.75 17.45 30.75 18.25C30.75 19.9 29.4 21.25 27.75 21.25ZM24.25 16.75C23.42 16.75 22.75 17.42 22.75 18.25C22.75 18.65 22.91 19.03 23.19 19.31C23.47 19.59 23.85 19.75 24.25 19.75H27.75C28.58 19.75 29.25 19.08 29.25 18.25C29.25 17.85 29.09 17.47 28.81 17.19C28.53 16.91 28.15 16.75 27.75 16.75H24.25Z" fill="#374151"/>
<path d="M26 27.75H22C21.59 27.75 21.25 27.41 21.25 27C21.25 26.59 21.59 26.25 22 26.25H26C26.41 26.25 26.75 26.59 26.75 27C26.75 27.41 26.41 27.75 26 27.75Z" fill="#374151"/>
<path d="M30 31.75H22C21.59 31.75 21.25 31.41 21.25 31C21.25 30.59 21.59 30.25 22 30.25H30C30.41 30.25 30.75 30.59 30.75 31C30.75 31.41 30.41 31.75 30 31.75Z" fill="#374151"/>
<path d="M56.1406 31.5L60.1641 20.2266H58.2969L55.2188 29.5312H55.1719L52.1016 20.2266H50.2031L54.2266 31.5H56.1406ZM61.2225 31.5H62.91V23.2812H61.2225V31.5ZM62.0662 22.0781C62.6131 22.0781 63.0506 21.6484 63.0506 21.1172C63.0506 20.5781 62.6131 20.1484 62.0662 20.1484C61.5272 20.1484 61.0897 20.5781 61.0897 21.1172C61.0897 21.6484 61.5272 22.0781 62.0662 22.0781ZM68.2341 24.4922C69.4137 24.4922 70.2106 25.375 70.2497 26.6328H66.1403C66.2262 25.3906 67.0544 24.4922 68.2341 24.4922ZM70.2419 29.0859C70.0153 29.8047 69.3044 30.2891 68.3434 30.2891C66.9919 30.2891 66.1325 29.3438 66.1325 27.9141V27.8125H71.9372V27.2344C71.9372 24.7422 70.5153 23.1328 68.2341 23.1328C65.9137 23.1328 64.4294 24.8516 64.4294 27.4297C64.4294 30.0234 65.8903 31.6562 68.3044 31.6562C70.1872 31.6562 71.6091 30.5859 71.8434 29.0859H70.2419ZM84.2534 23.2812H82.5816L81.0816 29.75H81.0425L79.3237 23.2812H77.6987L75.9878 29.75H75.9566L74.4566 23.2812H72.7691L75.0269 31.5H76.7691L78.48 25.3438H78.5191L80.2456 31.5H82.0034L84.2534 23.2812ZM88.8547 31.5H90.5422V26.4219C90.5422 25.3672 91.2531 24.5859 92.2531 24.5859C93.2062 24.5859 93.8078 25.1875 93.8078 26.1328V31.5H95.4641V26.3672C95.4641 25.3281 96.1594 24.5859 97.1594 24.5859C98.1594 24.5859 98.7297 25.1953 98.7297 26.2578V31.5H100.425V25.8516C100.425 24.2188 99.3625 23.1406 97.7375 23.1406C96.5656 23.1406 95.5969 23.75 95.175 24.75H95.1359C94.8078 23.7266 93.9797 23.1406 92.8391 23.1406C91.7297 23.1406 90.8703 23.75 90.5031 24.6641H90.4641V23.2812H88.8547V31.5ZM103.03 34.5625C104.741 34.5625 105.546 33.9219 106.249 31.9297L109.335 23.2812H107.554L105.468 29.9688H105.444L103.358 23.2812H101.53L104.499 31.5078C104.499 31.5156 104.351 32 104.351 32.0156C104.093 32.8594 103.679 33.1875 102.89 33.1875C102.749 33.1875 102.468 33.1875 102.343 33.1562V34.5234C102.468 34.5469 102.897 34.5625 103.03 34.5625ZM116.772 30.3047C115.866 30.3047 115.272 29.8359 115.272 29.1172C115.272 28.4141 115.842 27.9688 116.85 27.8984L118.874 27.7734V28.4219C118.874 29.4922 117.952 30.3047 116.772 30.3047ZM116.303 31.6406C117.382 31.6406 118.421 31.0625 118.897 30.1484H118.936V31.5H120.553V25.8359C120.553 24.1875 119.28 23.1328 117.288 23.1328C115.257 23.1328 113.991 24.2266 113.897 25.7109H115.491C115.639 24.9766 116.249 24.5078 117.225 24.5078C118.257 24.5078 118.874 25.0547 118.874 25.9688V26.6016L116.624 26.7344C114.671 26.8438 113.569 27.7266 113.569 29.1641C113.569 30.6406 114.694 31.6406 116.303 31.6406ZM126.635 23.1484C125.448 23.1484 124.503 23.75 124.018 24.6953H123.987V23.2812H122.354V34.2188H124.042V30.1484H124.081C124.549 31.0625 125.487 31.6406 126.667 31.6406C128.729 31.6406 130.096 29.9922 130.096 27.3906C130.096 24.7891 128.721 23.1484 126.635 23.1484ZM126.19 30.2109C124.893 30.2109 124.034 29.1016 124.034 27.3906C124.034 25.6953 124.901 24.5703 126.19 24.5703C127.526 24.5703 128.362 25.6719 128.362 27.3906C128.362 29.1172 127.526 30.2109 126.19 30.2109ZM135.842 23.1484C134.655 23.1484 133.709 23.75 133.225 24.6953H133.194V23.2812H131.561V34.2188H133.248V30.1484H133.287C133.756 31.0625 134.694 31.6406 135.873 31.6406C137.936 31.6406 139.303 29.9922 139.303 27.3906C139.303 24.7891 137.928 23.1484 135.842 23.1484ZM135.397 30.2109C134.1 30.2109 133.241 29.1016 133.241 27.3906C133.241 25.6953 134.108 24.5703 135.397 24.5703C136.733 24.5703 137.569 25.6719 137.569 27.3906C137.569 29.1172 136.733 30.2109 135.397 30.2109ZM140.83 31.5H142.518V20.2266H140.83V31.5ZM144.467 31.5H146.154V23.2812H144.467V31.5ZM145.311 22.0781C145.857 22.0781 146.295 21.6484 146.295 21.1172C146.295 20.5781 145.857 20.1484 145.311 20.1484C144.772 20.1484 144.334 20.5781 144.334 21.1172C144.334 21.6484 144.772 22.0781 145.311 22.0781ZM155.096 26.1094C154.947 24.4922 153.658 23.1328 151.541 23.1328C149.205 23.1328 147.674 24.7812 147.674 27.3906C147.674 30.0469 149.205 31.6562 151.557 31.6562C153.533 31.6562 154.932 30.4688 155.111 28.7188H153.486C153.291 29.6719 152.611 30.2422 151.572 30.2422C150.26 30.2422 149.393 29.1953 149.393 27.3906C149.393 25.625 150.252 24.5391 151.557 24.5391C152.658 24.5391 153.314 25.2344 153.486 26.1094H155.096ZM159.342 30.3047C158.435 30.3047 157.842 29.8359 157.842 29.1172C157.842 28.4141 158.412 27.9688 159.42 27.8984L161.443 27.7734V28.4219C161.443 29.4922 160.521 30.3047 159.342 30.3047ZM158.873 31.6406C159.951 31.6406 160.99 31.0625 161.467 30.1484H161.506V31.5H163.123V25.8359C163.123 24.1875 161.849 23.1328 159.857 23.1328C157.826 23.1328 156.56 24.2266 156.467 25.7109H158.06C158.209 24.9766 158.818 24.5078 159.795 24.5078C160.826 24.5078 161.443 25.0547 161.443 25.9688V26.6016L159.193 26.7344C157.24 26.8438 156.138 27.7266 156.138 29.1641C156.138 30.6406 157.263 31.6406 158.873 31.6406ZM165.416 21.3359V23.2812H164.22V24.6172H165.416V29.3359C165.416 30.9219 166.064 31.5547 167.728 31.5547C168.103 31.5547 168.478 31.5234 168.666 31.4766V30.1406C168.556 30.1641 168.283 30.1797 168.111 30.1797C167.423 30.1797 167.111 29.8594 167.111 29.1484V24.6172H168.673V23.2812H167.111V21.3359H165.416ZM170.279 31.5H171.966V23.2812H170.279V31.5ZM171.122 22.0781C171.669 22.0781 172.107 21.6484 172.107 21.1172C172.107 20.5781 171.669 20.1484 171.122 20.1484C170.583 20.1484 170.146 20.5781 170.146 21.1172C170.146 21.6484 170.583 22.0781 171.122 22.0781ZM177.384 31.6562C179.736 31.6562 181.283 30.0391 181.283 27.3906C181.283 24.75 179.728 23.1328 177.384 23.1328C175.04 23.1328 173.486 24.75 173.486 27.3906C173.486 30.0391 175.033 31.6562 177.384 31.6562ZM177.384 30.2656C176.064 30.2656 175.204 29.2188 175.204 27.3906C175.204 25.5703 176.064 24.5234 177.384 24.5234C178.704 24.5234 179.564 25.5703 179.564 27.3906C179.564 29.2188 178.712 30.2656 177.384 30.2656ZM182.747 31.5H184.435V26.7109C184.435 25.4375 185.2 24.5938 186.388 24.5938C187.56 24.5938 188.138 25.2734 188.138 26.5078V31.5H189.833V26.1797C189.833 24.2969 188.794 23.1406 186.982 23.1406C185.716 23.1406 184.841 23.7188 184.396 24.6562H184.357V23.2812H182.747V31.5Z" fill="#374151"/>
<path d="M302.94 31.78C302.814 31.78 302.687 31.7333 302.587 31.6333C302.394 31.44 302.394 31.12 302.587 30.9267L306.934 26.58C307.254 26.26 307.254 25.74 306.934 25.42L302.587 21.0733C302.394 20.88 302.394 20.56 302.587 20.3667C302.78 20.1733 303.1 20.1733 303.294 20.3667L307.64 24.7133C307.98 25.0533 308.174 25.5133 308.174 26C308.174 26.4867 307.987 26.9467 307.64 27.2867L303.294 31.6333C303.194 31.7267 303.067 31.78 302.94 31.78Z" fill="#111827"/>
</svg>
