<svg width="327" height="52" viewBox="0 0 327 52" fill="none" xmlns="http://www.w3.org/2000/svg">
<rect x="0.5" y="0.5" width="326" height="51" rx="25.5" stroke="#D1D5DB"/>
<path d="M30.0002 36.7498H22.0002C17.3802 36.7498 16.5202 34.5998 16.3002 32.5098L15.5502 24.4998C15.4402 23.4498 15.4102 21.8998 16.4502 20.7398C17.3502 19.7398 18.8402 19.2598 21.0002 19.2598H31.0002C33.1702 19.2598 34.6602 19.7498 35.5502 20.7398C36.5902 21.8998 36.5602 23.4498 36.4502 24.5098L35.7002 32.4998C35.4802 34.5998 34.6202 36.7498 30.0002 36.7498ZM21.0002 20.7498C19.3102 20.7498 18.1502 21.0798 17.5602 21.7398C17.0702 22.2798 16.9102 23.1098 17.0402 24.3498L17.7902 32.3598C17.9602 33.9398 18.3902 35.2498 22.0002 35.2498H30.0002C33.6002 35.2498 34.0402 33.9398 34.2102 32.3498L34.9602 24.3598C35.0902 23.1098 34.9302 22.2798 34.4402 21.7398C33.8502 21.0798 32.6902 20.7498 31.0002 20.7498H21.0002Z" fill="#374151"/>
<path d="M30 20.75C29.59 20.75 29.25 20.41 29.25 20V19.2C29.25 17.42 29.25 16.75 26.8 16.75H25.2C22.75 16.75 22.75 17.42 22.75 19.2V20C22.75 20.41 22.41 20.75 22 20.75C21.59 20.75 21.25 20.41 21.25 20V19.2C21.25 17.44 21.25 15.25 25.2 15.25H26.8C30.75 15.25 30.75 17.44 30.75 19.2V20C30.75 20.41 30.41 20.75 30 20.75Z" fill="#374151"/>
<path d="M26 30.75C23.25 30.75 23.25 29.05 23.25 28.03V27C23.25 25.59 23.59 25.25 25 25.25H27C28.41 25.25 28.75 25.59 28.75 27V28C28.75 29.04 28.75 30.75 26 30.75ZM24.75 26.75C24.75 26.83 24.75 26.92 24.75 27V28.03C24.75 29.06 24.75 29.25 26 29.25C27.25 29.25 27.25 29.09 27.25 28.02V27C27.25 26.92 27.25 26.83 27.25 26.75C27.17 26.75 27.08 26.75 27 26.75H25C24.92 26.75 24.83 26.75 24.75 26.75Z" fill="#374151"/>
<path d="M28 28.7702C27.63 28.7702 27.3 28.4902 27.26 28.1102C27.21 27.7002 27.5 27.3202 27.91 27.2702C30.55 26.9402 33.08 25.9402 35.21 24.3902C35.54 24.1402 36.01 24.2202 36.26 24.5602C36.5 24.8902 36.43 25.3602 36.09 25.6102C33.75 27.3102 30.99 28.4002 28.09 28.7702C28.06 28.7702 28.03 28.7702 28 28.7702Z" fill="#374151"/>
<path d="M24.0002 28.7799C23.9702 28.7799 23.9402 28.7799 23.9102 28.7799C21.1702 28.4699 18.5002 27.4699 16.1902 25.8899C15.8502 25.6599 15.7602 25.1899 15.9902 24.8499C16.2202 24.5099 16.6902 24.4199 17.0302 24.6499C19.1402 26.0899 21.5702 26.9999 24.0702 27.2899C24.4802 27.3399 24.7802 27.7099 24.7302 28.1199C24.7002 28.4999 24.3802 28.7799 24.0002 28.7799Z" fill="#374151"/>
<path d="M56.1406 31.5L60.1641 20.2266H58.2969L55.2188 29.5312H55.1719L52.1016 20.2266H50.2031L54.2266 31.5H56.1406ZM61.2225 31.5H62.91V23.2812H61.2225V31.5ZM62.0662 22.0781C62.6131 22.0781 63.0506 21.6484 63.0506 21.1172C63.0506 20.5781 62.6131 20.1484 62.0662 20.1484C61.5272 20.1484 61.0897 20.5781 61.0897 21.1172C61.0897 21.6484 61.5272 22.0781 62.0662 22.0781ZM64.6481 25.6094C64.6481 26.7578 65.3981 27.5312 66.8825 27.8906L68.3512 28.25C69.2106 28.4688 69.5231 28.7578 69.5231 29.2812C69.5231 29.9453 68.8981 30.3672 67.8825 30.3672C66.8512 30.3672 66.2419 29.9297 66.1091 29.1406H64.4372C64.57 30.6484 65.8591 31.6562 67.8044 31.6562C69.82 31.6562 71.2184 30.625 71.2184 29.125C71.2184 27.9141 70.5934 27.2891 68.9372 26.8906L67.5544 26.5703C66.7028 26.3594 66.2966 26.0156 66.2966 25.5078C66.2966 24.8594 66.9059 24.4141 67.82 24.4141C68.7653 24.4141 69.3669 24.875 69.445 25.6172H71.0309C70.9762 24.1562 69.695 23.1328 67.8669 23.1328C65.945 23.1328 64.6481 24.1406 64.6481 25.6094ZM72.7456 31.5H74.4331V23.2812H72.7456V31.5ZM73.5894 22.0781C74.1362 22.0781 74.5737 21.6484 74.5737 21.1172C74.5737 20.5781 74.1362 20.1484 73.5894 20.1484C73.0503 20.1484 72.6128 20.5781 72.6128 21.1172C72.6128 21.6484 73.0503 22.0781 73.5894 22.0781ZM76.8119 21.3359V23.2812H75.6166V24.6172H76.8119V29.3359C76.8119 30.9219 77.4603 31.5547 79.1244 31.5547C79.4994 31.5547 79.8744 31.5234 80.0619 31.4766V30.1406C79.9525 30.1641 79.6791 30.1797 79.5072 30.1797C78.8197 30.1797 78.5072 29.8594 78.5072 29.1484V24.6172H80.0697V23.2812H78.5072V21.3359H76.8119ZM86.7725 23.2812H85.085V31.8828C85.085 32.7109 84.7725 33.0234 83.9366 33.0234C83.9053 33.0234 83.7256 33.0156 83.6944 33.0156V34.3438C83.7412 34.3594 84.0069 34.3594 84.085 34.3594C85.9053 34.3594 86.7725 33.5625 86.7725 31.8906V23.2812ZM85.9287 22.0781C86.4756 22.0781 86.9131 21.6484 86.9131 21.1172C86.9131 20.5781 86.4756 20.1484 85.9287 20.1484C85.3897 20.1484 84.9522 20.5781 84.9522 21.1172C84.9522 21.6484 85.3897 22.0781 85.9287 22.0781ZM92.1903 31.6562C94.5419 31.6562 96.0887 30.0391 96.0887 27.3906C96.0887 24.75 94.5341 23.1328 92.1903 23.1328C89.8466 23.1328 88.2919 24.75 88.2919 27.3906C88.2919 30.0391 89.8387 31.6562 92.1903 31.6562ZM92.1903 30.2656C90.87 30.2656 90.0106 29.2188 90.0106 27.3906C90.0106 25.5703 90.87 24.5234 92.1903 24.5234C93.5106 24.5234 94.37 25.5703 94.37 27.3906C94.37 29.2188 93.5184 30.2656 92.1903 30.2656ZM101.928 31.6406C104.014 31.6406 105.358 30 105.358 27.3906C105.358 24.7891 104.007 23.1484 101.936 23.1484C100.772 23.1484 99.8347 23.7266 99.3425 24.6797H99.3034V20.2266H97.6159V31.5H99.2566V30.1016H99.2878C99.7956 31.0547 100.725 31.6406 101.928 31.6406ZM101.475 24.5703C102.803 24.5703 103.624 25.6641 103.624 27.3906C103.624 29.1328 102.803 30.2109 101.475 30.2109C100.194 30.2109 99.2956 29.1016 99.2956 27.3906C99.2956 25.6953 100.194 24.5703 101.475 24.5703ZM114.53 23.1484C113.342 23.1484 112.397 23.75 111.912 24.6953H111.881V23.2812H110.248V34.2188H111.936V30.1484H111.975C112.444 31.0625 113.381 31.6406 114.561 31.6406C116.623 31.6406 117.991 29.9922 117.991 27.3906C117.991 24.7891 116.616 23.1484 114.53 23.1484ZM114.084 30.2109C112.787 30.2109 111.928 29.1016 111.928 27.3906C111.928 25.6953 112.795 24.5703 114.084 24.5703C115.42 24.5703 116.256 25.6719 116.256 27.3906C116.256 29.1172 115.42 30.2109 114.084 30.2109ZM122.987 31.6562C125.338 31.6562 126.885 30.0391 126.885 27.3906C126.885 24.75 125.33 23.1328 122.987 23.1328C120.643 23.1328 119.088 24.75 119.088 27.3906C119.088 30.0391 120.635 31.6562 122.987 31.6562ZM122.987 30.2656C121.666 30.2656 120.807 29.2188 120.807 27.3906C120.807 25.5703 121.666 24.5234 122.987 24.5234C124.307 24.5234 125.166 25.5703 125.166 27.3906C125.166 29.2188 124.315 30.2656 122.987 30.2656ZM128.201 25.6094C128.201 26.7578 128.951 27.5312 130.436 27.8906L131.904 28.25C132.764 28.4688 133.076 28.7578 133.076 29.2812C133.076 29.9453 132.451 30.3672 131.436 30.3672C130.404 30.3672 129.795 29.9297 129.662 29.1406H127.99C128.123 30.6484 129.412 31.6562 131.357 31.6562C133.373 31.6562 134.772 30.625 134.772 29.125C134.772 27.9141 134.147 27.2891 132.49 26.8906L131.107 26.5703C130.256 26.3594 129.85 26.0156 129.85 25.5078C129.85 24.8594 130.459 24.4141 131.373 24.4141C132.318 24.4141 132.92 24.875 132.998 25.6172H134.584C134.529 24.1562 133.248 23.1328 131.42 23.1328C129.498 23.1328 128.201 24.1406 128.201 25.6094ZM136.736 21.3359V23.2812H135.541V24.6172H136.736V29.3359C136.736 30.9219 137.385 31.5547 139.049 31.5547C139.424 31.5547 139.799 31.5234 139.986 31.4766V30.1406C139.877 30.1641 139.603 30.1797 139.432 30.1797C138.744 30.1797 138.432 29.8594 138.432 29.1484V24.6172H139.994V23.2812H138.432V21.3359H136.736Z" fill="#374151"/>
<path d="M302.94 31.78C302.814 31.78 302.687 31.7333 302.587 31.6333C302.394 31.44 302.394 31.12 302.587 30.9267L306.934 26.58C307.254 26.26 307.254 25.74 306.934 25.42L302.587 21.0733C302.394 20.88 302.394 20.56 302.587 20.3667C302.78 20.1733 303.1 20.1733 303.294 20.3667L307.64 24.7133C307.98 25.0533 308.174 25.5133 308.174 26C308.174 26.4867 307.987 26.9467 307.64 27.2867L303.294 31.6333C303.194 31.7267 303.067 31.78 302.94 31.78Z" fill="#111827"/>
</svg>
