<svg width="40" height="41" viewBox="0 0 40 41" fill="none" xmlns="http://www.w3.org/2000/svg">
<rect y="0.5" width="40" height="40" rx="8" fill="#0077FF"/>
<path d="M19.4167 35H20.5833C26.93 35 30.0917 35 32.0517 33.04C34 31.08 34 27.9067 34 21.5833V20.3933C34 14.0933 34 10.92 32.0517 8.96C30.0917 7 26.9183 7 20.5833 7H19.4167C13.07 7 9.90833 7 7.94833 8.96C6 10.92 6 14.0933 6 20.4167V21.6067C6 27.9067 6 31.08 7.96 33.04C9.92 35 13.0933 35 19.4167 35Z" fill="#0077FF"/>
<path d="M20.8039 27C14.654 27 11.1462 22.8709 11 16H14.0806C14.1818 21.043 16.4528 23.1792 18.2517 23.6196V16H21.1524V20.3493C22.9288 20.1622 24.7951 18.1802 25.4247 16H28.3254C28.0882 17.1307 27.6152 18.2013 26.9362 19.1448C26.2572 20.0883 25.3867 20.8845 24.3791 21.4835C25.5038 22.0308 26.4972 22.8055 27.2937 23.7564C28.0902 24.7073 28.6718 25.8128 29 27H25.807C25.5124 25.9688 24.9135 25.0458 24.0855 24.3465C23.2575 23.6472 22.2372 23.2029 21.1524 23.0691V27H20.8039Z" fill="white"/>
</svg>
