<svg width="48" height="48" viewBox="0 0 48 48" fill="none" xmlns="http://www.w3.org/2000/svg">
<rect x="0.5" y="0.5" width="47" height="47" rx="23.5" stroke="#D1D5DB"/>
<path d="M21 29.75C20.89 29.75 20.77 29.72 20.67 29.67C19.9 29.28 19.24 28.7 18.76 27.98C18.36 27.38 18.36 26.61 18.76 26.01C19.24 25.29 19.9 24.71 20.67 24.33C21.04 24.14 21.49 24.3 21.68 24.67C21.87 25.04 21.72 25.49 21.34 25.68C20.8 25.95 20.34 26.36 20.01 26.86C19.95 26.95 19.95 27.07 20.01 27.17C20.34 27.67 20.8 28.08 21.34 28.35C21.71 28.54 21.86 28.99 21.68 29.36C21.54 29.6 21.27 29.75 21 29.75Z" fill="#292D32"/>
<path d="M27.21 29.75C26.93 29.75 26.67 29.6 26.54 29.34C26.35 28.97 26.5 28.52 26.88 28.33C27.42 28.06 27.88 27.65 28.21 27.15C28.27 27.06 28.27 26.94 28.21 26.84C27.88 26.34 27.42 25.93 26.88 25.66C26.51 25.47 26.36 25.02 26.54 24.65C26.73 24.28 27.18 24.13 27.55 24.31C28.32 24.7 28.98 25.28 29.46 26C29.86 26.6 29.86 27.37 29.46 27.97C28.98 28.69 28.32 29.27 27.55 29.65C27.43 29.72 27.32 29.75 27.21 29.75Z" fill="#292D32"/>
<path d="M27 34.75H21C15.57 34.75 13.25 32.43 13.25 27V21C13.25 15.57 15.57 13.25 21 13.25H27C32.43 13.25 34.75 15.57 34.75 21V27C34.75 32.43 32.43 34.75 27 34.75ZM21 14.75C16.39 14.75 14.75 16.39 14.75 21V27C14.75 31.61 16.39 33.25 21 33.25H27C31.61 33.25 33.25 31.61 33.25 27V21C33.25 16.39 31.61 14.75 27 14.75H21Z" fill="#292D32"/>
<path d="M14.23 20.76C13.82 20.76 13.48 20.42 13.48 20.01C13.48 19.6 13.81 19.26 14.23 19.26L33.45 19.25C33.86 19.25 34.2 19.59 34.2 20C34.2 20.41 33.87 20.75 33.45 20.75L14.23 20.76Z" fill="#292D32"/>
</svg>
