<svg width="17" height="16" viewBox="0 0 17 16" fill="none" xmlns="http://www.w3.org/2000/svg">
<g clip-path="url(#clip0_26090_5582)">
<path d="M4.01066 6.51C4.32258 5.5663 4.92457 4.74521 5.73074 4.16387C6.53691 3.58252 7.50608 3.27062 8.49999 3.27267C9.62666 3.27267 10.6453 3.67267 11.4453 4.32733L13.7733 2C12.3547 0.763333 10.5367 0 8.49999 0C5.34666 0 2.63199 1.79867 1.32666 4.43333L4.01066 6.51Z" fill="#EA4335"/>
<path d="M11.1933 12.0086C10.4666 12.4773 9.54398 12.7273 8.49998 12.7273C7.51003 12.7293 6.54451 12.4199 5.74014 11.8429C4.93576 11.2658 4.33327 10.4504 4.01798 9.51196L1.32465 11.5566C1.98548 12.8942 3.00816 14.0196 4.27653 14.805C5.5449 15.5904 7.00812 16.0044 8.49998 16C10.4553 16 12.3233 15.3046 13.7226 14L11.194 12.0086H11.1933Z" fill="#34A853"/>
<path d="M13.7227 14C15.186 12.6346 16.136 10.6026 16.136 7.99995C16.136 7.52662 16.0633 7.01795 15.9547 6.54529H8.5V9.63662H12.7907C12.5793 10.676 12.0107 11.4806 11.194 12.0086L13.7227 14Z" fill="#4A90E2"/>
<path d="M4.01802 9.51202C3.85492 9.02462 3.77206 8.51397 3.77268 8.00002C3.77268 7.47868 3.85602 6.97802 4.01068 6.51002L1.32668 4.43335C0.777602 5.54181 0.494552 6.76303 0.500017 8.00002C0.500017 9.28002 0.796683 10.4867 1.32468 11.5567L4.01802 9.51202Z" fill="#FBBC05"/>
</g>
<defs>
<clipPath id="clip0_26090_5582">
<rect width="16" height="16" fill="white" transform="translate(0.5)"/>
</clipPath>
</defs>
</svg>
