<svg width="48" height="48" viewBox="0 0 48 48" fill="none" xmlns="http://www.w3.org/2000/svg">
<rect x="0.5" y="0.5" width="47" height="47" rx="23.5" stroke="#D1D5DB"/>
<path d="M25.2698 35.25H22.7498C22.0498 35.25 21.4198 34.9499 20.9998 34.4399C20.6298 33.9799 20.4898 33.39 20.6198 32.83L21.0298 31.02C21.1098 30.68 21.4098 30.4399 21.7598 30.4399H26.2598C26.6098 30.4399 26.9098 30.68 26.9898 31.02L27.3998 32.83C27.5298 33.43 27.4098 34.01 27.0398 34.47C26.6298 34.96 25.9898 35.25 25.2698 35.25ZM22.3598 31.92L22.0798 33.15C22.0498 33.3 22.1098 33.42 22.1698 33.49C22.2998 33.65 22.5098 33.74 22.7498 33.74H25.2698C25.5298 33.74 25.7498 33.66 25.8698 33.51C25.9498 33.41 25.9698 33.29 25.9398 33.14L25.6598 31.91H22.3598V31.92Z" fill="#292D32"/>
<path d="M26.26 31.92C26.05 31.92 25.85 31.84 25.7 31.67C25.43 31.36 25.45 30.89 25.76 30.61L27.49 29.0699C28.18 28.4599 28.15 28.31 27.64 27.67L24.59 23.8C24.42 23.59 24.22 23.47 24.01 23.47C23.8 23.47 23.6 23.59 23.43 23.8L20.38 27.67C19.84 28.36 19.85 28.51 20.51 29.05L22.26 30.61C22.57 30.88 22.6 31.36 22.32 31.67C22.04 31.98 21.57 32.01 21.26 31.73L19.53 30.1899C18.27 29.1599 18.16 28.06 19.2 26.74L22.25 22.87C22.7 22.3 23.34 21.97 24.01 21.97C24.68 21.97 25.32 22.3 25.77 22.87L28.82 26.74C29.85 28.04 29.75 29.0799 28.49 30.1899L26.76 31.73C26.61 31.86 26.43 31.92 26.26 31.92Z" fill="#292D32"/>
<path d="M24.0098 26.4C23.5998 26.4 23.2598 26.06 23.2598 25.65V23.12C23.2598 22.71 23.5998 22.37 24.0098 22.37C24.4198 22.37 24.7598 22.71 24.7598 23.12V25.65C24.7598 26.07 24.4198 26.4 24.0098 26.4Z" fill="#292D32"/>
<path d="M24.52 17.75H23.52C22.56 17.75 21.77 16.96 21.77 16V15C21.77 14.04 22.56 13.25 23.52 13.25H24.52C25.48 13.25 26.27 14.04 26.27 15V16C26.27 16.96 25.49 17.75 24.52 17.75ZM23.52 14.75C23.38 14.75 23.27 14.86 23.27 15V16C23.27 16.14 23.38 16.25 23.52 16.25H24.52C24.66 16.25 24.77 16.14 24.77 16V15C24.77 14.86 24.66 14.75 24.52 14.75H23.52Z" fill="#292D32"/>
<path d="M16.27 26.92H15.27C14.31 26.92 13.52 26.13 13.52 25.17V24.17C13.52 23.21 14.31 22.4199 15.27 22.4199H16.27C17.23 22.4199 18.02 23.21 18.02 24.17V25.17C18.02 26.13 17.23 26.92 16.27 26.92ZM15.27 23.9199C15.13 23.9199 15.02 24.03 15.02 24.17V25.17C15.02 25.31 15.13 25.42 15.27 25.42H16.27C16.41 25.42 16.52 25.31 16.52 25.17V24.17C16.52 24.03 16.41 23.9199 16.27 23.9199H15.27Z" fill="#292D32"/>
<path d="M32.73 26.92H31.73C30.77 26.92 29.98 26.13 29.98 25.17V24.17C29.98 23.21 30.77 22.4199 31.73 22.4199H32.73C33.69 22.4199 34.48 23.21 34.48 24.17V25.17C34.48 26.13 33.7 26.92 32.73 26.92ZM31.73 23.9199C31.59 23.9199 31.48 24.03 31.48 24.17V25.17C31.48 25.31 31.59 25.42 31.73 25.42H32.73C32.87 25.42 32.98 25.31 32.98 25.17V24.17C32.98 24.03 32.87 23.9199 32.73 23.9199H31.73Z" fill="#292D32"/>
<path d="M15.75 23.9201C15.34 23.9201 15 23.5801 15 23.1701C15 18.9001 18.2 15.3101 22.44 14.8101C22.85 14.7701 23.22 15.0601 23.27 15.4701C23.32 15.8801 23.02 16.2501 22.61 16.3001C19.13 16.7101 16.5 19.6601 16.5 23.1701C16.5 23.5801 16.16 23.9201 15.75 23.9201Z" fill="#292D32"/>
<path d="M32.25 23.92C31.84 23.92 31.5 23.58 31.5 23.17C31.5 19.68 28.89 16.73 25.43 16.31C25.02 16.26 24.73 15.89 24.78 15.48C24.83 15.07 25.2 14.77 25.62 14.83C29.83 15.34 33.01 18.93 33.01 23.18C33 23.58 32.67 23.92 32.25 23.92Z" fill="#292D32"/>
</svg>
