<svg width="48" height="48" viewBox="0 0 48 48" fill="none" xmlns="http://www.w3.org/2000/svg">
<rect x="0.5" y="0.5" width="47" height="47" rx="23.5" stroke="#D1D5DB"/>
<path d="M22 29.7H18.21C14.41 29.7 13.25 28.54 13.25 24.74V18.74C13.25 14.94 14.41 13.78 18.21 13.78H28.74C32.54 13.78 33.7 14.94 33.7 18.74C33.7 19.15 33.36 19.49 32.95 19.49C32.54 19.49 32.2 19.15 32.2 18.74C32.2 15.8 31.68 15.28 28.74 15.28H18.21C15.27 15.28 14.75 15.8 14.75 18.74V24.74C14.75 27.68 15.27 28.2 18.21 28.2H22C22.41 28.2 22.75 28.54 22.75 28.95C22.75 29.36 22.41 29.7 22 29.7Z" fill="#292D32"/>
<path d="M22 34.2199C21.59 34.2199 21.25 33.8799 21.25 33.4699V28.9399C21.25 28.5299 21.59 28.1899 22 28.1899C22.41 28.1899 22.75 28.5299 22.75 28.9399V33.4699C22.75 33.8899 22.41 34.2199 22 34.2199Z" fill="#292D32"/>
<path d="M22 25.7H14C13.59 25.7 13.25 25.36 13.25 24.95C13.25 24.54 13.59 24.2 14 24.2H22C22.41 24.2 22.75 24.54 22.75 24.95C22.75 25.36 22.41 25.7 22 25.7Z" fill="#292D32"/>
<path d="M22 34.22H18.74C18.33 34.22 17.99 33.88 17.99 33.47C17.99 33.06 18.33 32.72 18.74 32.72H22C22.41 32.72 22.75 33.06 22.75 33.47C22.75 33.88 22.41 34.22 22 34.22Z" fill="#292D32"/>
<path d="M31.04 34.22H27.49C24.72 34.22 23.78 33.28 23.78 30.51V24.8C23.78 22.03 24.72 21.09 27.49 21.09H31.04C33.81 21.09 34.75 22.03 34.75 24.8V30.51C34.75 33.29 33.81 34.22 31.04 34.22ZM27.49 22.59C25.53 22.59 25.28 22.84 25.28 24.8V30.51C25.28 32.47 25.53 32.72 27.49 32.72H31.04C33 32.72 33.25 32.47 33.25 30.51V24.8C33.25 22.84 33 22.59 31.04 22.59H27.49Z" fill="#292D32"/>
<path d="M29.3 30.97C29.04 30.97 28.78 30.87 28.59 30.68C28.5 30.59 28.43 30.48 28.38 30.36C28.33 30.23 28.3 30.1 28.3 29.97C28.3 29.71 28.41 29.45 28.59 29.27C28.82 29.04 29.17 28.93 29.5 28.99C29.56 29.01 29.62 29.03 29.68 29.05C29.74 29.08 29.8001 29.11 29.85 29.14C29.91 29.18 29.96 29.22 30.01 29.27C30.19 29.45 30.3 29.71 30.3 29.97C30.3 30.1 30.27 30.23 30.22 30.36C30.17 30.48 30.1 30.59 30.01 30.68C29.96 30.73 29.91 30.77 29.85 30.8C29.8001 30.84 29.74 30.87 29.68 30.9C29.62 30.92 29.56 30.94 29.5 30.95C29.43 30.97 29.37 30.97 29.3 30.97Z" fill="#292D32"/>
</svg>
