<svg width="48" height="48" viewBox="0 0 48 48" fill="none" xmlns="http://www.w3.org/2000/svg">
<rect x="0.5" y="0.5" width="47" height="47" rx="23.5" stroke="#D1D5DB"/>
<path d="M30.32 24.75H27C24.51 24.75 23.25 23.34 23.25 20.55V17.68C23.25 16.66 23.37 15.2 24.43 14.4C25.32 13.74 26.6 13.69 28.49 14.24C30.97 14.96 33.04 17.03 33.76 19.51C34.31 21.39 34.26 22.68 33.6 23.56C32.8 24.63 31.34 24.75 30.32 24.75ZM26.28 15.36C25.87 15.36 25.55 15.44 25.34 15.6C24.95 15.89 24.76 16.57 24.76 17.68V20.56C24.76 22.8 25.62 23.26 27.01 23.26H30.33C31.43 23.26 32.11 23.07 32.41 22.68C32.76 22.22 32.73 21.3 32.34 19.95C31.76 17.98 30.06 16.27 28.09 15.7C27.35 15.47 26.75 15.36 26.28 15.36Z" fill="#292D32"/>
<path d="M23.07 34.75C22.54 34.75 22 34.71 21.46 34.62C17.37 33.96 14.04 30.64 13.38 26.55C12.53 21.29 15.92 16.33 21.11 15.27C21.52 15.19 21.91 15.45 22 15.85C22.08 16.26 21.82 16.65 21.42 16.74C17.03 17.64 14.15 21.84 14.88 26.31C15.44 29.77 18.25 32.58 21.71 33.14C26.2 33.86 30.39 30.97 31.28 26.56C31.36 26.15 31.76 25.89 32.16 25.97C32.57 26.05 32.83 26.45 32.75 26.85C31.8 31.52 27.72 34.75 23.07 34.75Z" fill="#292D32"/>
</svg>
