<svg width="327" height="46" viewBox="0 0 327 46" fill="none" xmlns="http://www.w3.org/2000/svg">
<rect width="327" height="46" rx="23" fill="#F4F4F5"/>
<path d="M3 23C3 11.9543 11.9543 3 23 3H143.5C154.546 3 163.5 11.9543 163.5 23C163.5 34.0457 154.546 43 143.5 43H23C11.9543 43 3 34.0457 3 23Z" fill="#F4F4F5"/>
<path d="M36.0506 20.5625H36.1189L38.2518 28H39.6941L42.3602 18.1357H40.7674L38.9422 25.8604H38.8875L36.7957 18.1357H35.3738L33.2889 25.8604H33.2342L31.409 18.1357H29.8162L32.4754 28H33.9246L36.0506 20.5625ZM45.8498 28.1367C47.9074 28.1367 49.2609 26.7217 49.2609 24.4043C49.2609 22.0938 47.9005 20.6787 45.8498 20.6787C43.799 20.6787 42.4386 22.0938 42.4386 24.4043C42.4386 26.7217 43.7921 28.1367 45.8498 28.1367ZM45.8498 26.9199C44.6945 26.9199 43.9425 26.0039 43.9425 24.4043C43.9425 22.8115 44.6945 21.8955 45.8498 21.8955C47.005 21.8955 47.757 22.8115 47.757 24.4043C47.757 26.0039 47.0119 26.9199 45.8498 26.9199ZM50.5425 28H52.0191V23.6934C52.0191 22.6748 52.607 22.0391 53.5571 22.0391C53.8443 22.0391 54.104 22.0732 54.2202 22.1211V20.7471C54.1109 20.7266 53.9263 20.6924 53.7144 20.6924C52.8667 20.6924 52.2241 21.1914 51.9849 22.0322H51.9507V20.8086H50.5425V28ZM56.8212 23.8916H56.8075V18.1357H55.3309V28H56.8075V25.416L57.4227 24.8076L59.8632 28H61.579L58.4823 23.9053L61.4628 20.8086H59.7264L56.8212 23.8916ZM67.1773 28V23.8711H71.4156V22.5791H67.1773V19.4551H71.8053V18.1357H65.6461V28H67.1773ZM73.1005 28H74.5771V23.6934C74.5771 22.6748 75.165 22.0391 76.1152 22.0391C76.4023 22.0391 76.6621 22.0732 76.7783 22.1211V20.7471C76.6689 20.7266 76.4843 20.6924 76.2724 20.6924C75.4248 20.6924 74.7822 21.1914 74.5429 22.0322H74.5088V20.8086H73.1005V28ZM80.6097 28.1367C82.6673 28.1367 84.0208 26.7217 84.0208 24.4043C84.0208 22.0938 82.6605 20.6787 80.6097 20.6787C78.5589 20.6787 77.1986 22.0938 77.1986 24.4043C77.1986 26.7217 78.5521 28.1367 80.6097 28.1367ZM80.6097 26.9199C79.4544 26.9199 78.7025 26.0039 78.7025 24.4043C78.7025 22.8115 79.4544 21.8955 80.6097 21.8955C81.765 21.8955 82.5169 22.8115 82.5169 24.4043C82.5169 26.0039 81.7718 26.9199 80.6097 26.9199ZM85.3024 28H86.779V23.5566C86.779 22.6338 87.4011 21.9502 88.2761 21.9502C89.11 21.9502 89.6364 22.4766 89.6364 23.3037V28H91.0856V23.5088C91.0856 22.5996 91.694 21.9502 92.569 21.9502C93.444 21.9502 93.943 22.4834 93.943 23.4131V28H95.4264V23.0576C95.4264 21.6289 94.4968 20.6855 93.0749 20.6855C92.0495 20.6855 91.2018 21.2188 90.8327 22.0938H90.7985C90.5114 21.1982 89.7868 20.6855 88.7887 20.6855C87.818 20.6855 87.0661 21.2188 86.7448 22.0186H86.7106V20.8086H85.3024V28ZM104.422 17.9717C101.579 17.9717 99.8012 19.9336 99.8012 23.0713C99.8012 26.209 101.579 28.1641 104.422 28.1641C107.259 28.1641 109.043 26.209 109.043 23.0713C109.043 19.9336 107.259 17.9717 104.422 17.9717ZM104.422 19.3184C106.295 19.3184 107.471 20.7676 107.471 23.0713C107.471 25.3682 106.295 26.8174 104.422 26.8174C102.549 26.8174 101.367 25.3682 101.367 23.0713C101.367 20.7676 102.549 19.3184 104.422 19.3184ZM110.899 28H112.383V21.9775H113.818V20.8223H112.362V20.1455C112.362 19.5098 112.663 19.1885 113.305 19.1885C113.504 19.1885 113.702 19.2021 113.845 19.2295V18.1357C113.654 18.1016 113.319 18.0674 113.018 18.0674C111.555 18.0674 110.899 18.7236 110.899 20.1182V20.8223H109.908V21.9775H110.899V28ZM115.551 28H117.034V21.9775H118.47V20.8223H117.014V20.1455C117.014 19.5098 117.315 19.1885 117.957 19.1885C118.155 19.1885 118.354 19.2021 118.497 19.2295V18.1357C118.306 18.1016 117.971 18.0674 117.67 18.0674C116.207 18.0674 115.551 18.7236 115.551 20.1182V20.8223H114.56V21.9775H115.551V28ZM119.82 28H121.296V20.8086H119.82V28ZM120.558 19.7559C121.037 19.7559 121.419 19.3799 121.419 18.915C121.419 18.4434 121.037 18.0674 120.558 18.0674C120.086 18.0674 119.704 18.4434 119.704 18.915C119.704 19.3799 120.086 19.7559 120.558 19.7559ZM129.12 23.2832C128.99 21.8682 127.862 20.6787 126.01 20.6787C123.966 20.6787 122.626 22.1211 122.626 24.4043C122.626 26.7285 123.966 28.1367 126.023 28.1367C127.753 28.1367 128.976 27.0977 129.134 25.5664H127.712C127.541 26.4004 126.946 26.8994 126.037 26.8994C124.889 26.8994 124.13 25.9834 124.13 24.4043C124.13 22.8594 124.882 21.9092 126.023 21.9092C126.987 21.9092 127.561 22.5176 127.712 23.2832H129.12ZM133.327 21.8682C134.36 21.8682 135.057 22.6406 135.091 23.7412H131.495C131.571 22.6543 132.295 21.8682 133.327 21.8682ZM135.084 25.8877C134.886 26.5166 134.264 26.9404 133.423 26.9404C132.24 26.9404 131.488 26.1133 131.488 24.8623V24.7734H136.568V24.2676C136.568 22.0869 135.323 20.6787 133.327 20.6787C131.297 20.6787 129.998 22.1826 129.998 24.4385C129.998 26.708 131.277 28.1367 133.389 28.1367C135.036 28.1367 136.28 27.2002 136.486 25.8877H135.084Z" fill="#6B7280"/>
<path d="M163.5 23C163.5 11.9543 172.454 3 183.5 3H304C315.046 3 324 11.9543 324 23C324 34.0457 315.046 43 304 43H183.5C172.454 43 163.5 34.0457 163.5 23Z" fill="#091A7A"/>
<path d="M204.789 19.4209H206.895C208.077 19.4209 208.795 20.0908 208.795 21.1914C208.795 22.3193 208.118 22.9688 206.936 22.9688H204.789V19.4209ZM204.789 24.2061H206.895L208.904 28H210.668L208.46 23.9668C209.663 23.5635 210.374 22.4834 210.374 21.1504C210.374 19.3115 209.11 18.1357 207.079 18.1357H203.258V28H204.789V24.2061ZM214.8 21.8682C215.833 21.8682 216.53 22.6406 216.564 23.7412H212.968C213.044 22.6543 213.768 21.8682 214.8 21.8682ZM216.557 25.8877C216.359 26.5166 215.737 26.9404 214.896 26.9404C213.713 26.9404 212.961 26.1133 212.961 24.8623V24.7734H218.041V24.2676C218.041 22.0869 216.796 20.6787 214.8 20.6787C212.77 20.6787 211.471 22.1826 211.471 24.4385C211.471 26.708 212.75 28.1367 214.862 28.1367C216.509 28.1367 217.753 27.2002 217.959 25.8877H216.557ZM219.329 28H220.806V23.5566C220.806 22.6338 221.428 21.9502 222.303 21.9502C223.137 21.9502 223.663 22.4766 223.663 23.3037V28H225.112V23.5088C225.112 22.5996 225.721 21.9502 226.596 21.9502C227.471 21.9502 227.97 22.4834 227.97 23.4131V28H229.453V23.0576C229.453 21.6289 228.523 20.6855 227.101 20.6855C226.076 20.6855 225.228 21.2188 224.859 22.0938H224.825C224.538 21.1982 223.813 20.6855 222.815 20.6855C221.845 20.6855 221.093 21.2188 220.771 22.0186H220.737V20.8086H219.329V28ZM234.112 28.1367C236.169 28.1367 237.523 26.7217 237.523 24.4043C237.523 22.0938 236.162 20.6787 234.112 20.6787C232.061 20.6787 230.7 22.0938 230.7 24.4043C230.7 26.7217 232.054 28.1367 234.112 28.1367ZM234.112 26.9199C232.956 26.9199 232.204 26.0039 232.204 24.4043C232.204 22.8115 232.956 21.8955 234.112 21.8955C235.267 21.8955 236.019 22.8115 236.019 24.4043C236.019 26.0039 235.274 26.9199 234.112 26.9199ZM239.235 19.1064V20.8086H238.189V21.9775H239.235V26.1064C239.235 27.4941 239.802 28.0479 241.258 28.0479C241.587 28.0479 241.915 28.0205 242.079 27.9795V26.8105C241.983 26.8311 241.744 26.8447 241.593 26.8447C240.992 26.8447 240.718 26.5645 240.718 25.9424V21.9775H242.086V20.8086H240.718V19.1064H239.235ZM246.272 21.8682C247.305 21.8682 248.002 22.6406 248.036 23.7412H244.44C244.516 22.6543 245.24 21.8682 246.272 21.8682ZM248.029 25.8877C247.831 26.5166 247.209 26.9404 246.368 26.9404C245.186 26.9404 244.434 26.1133 244.434 24.8623V24.7734H249.513V24.2676C249.513 22.0869 248.269 20.6787 246.272 20.6787C244.242 20.6787 242.943 22.1826 242.943 24.4385C242.943 26.708 244.222 28.1367 246.334 28.1367C247.981 28.1367 249.226 27.2002 249.431 25.8877H248.029ZM259.589 20.5625H259.657L261.79 28H263.232L265.898 18.1357H264.305L262.48 25.8604H262.426L260.334 18.1357H258.912L256.827 25.8604H256.772L254.947 18.1357H253.354L256.013 28H257.463L259.589 20.5625ZM269.388 28.1367C271.445 28.1367 272.799 26.7217 272.799 24.4043C272.799 22.0938 271.439 20.6787 269.388 20.6787C267.337 20.6787 265.977 22.0938 265.977 24.4043C265.977 26.7217 267.33 28.1367 269.388 28.1367ZM269.388 26.9199C268.232 26.9199 267.481 26.0039 267.481 24.4043C267.481 22.8115 268.232 21.8955 269.388 21.8955C270.543 21.8955 271.295 22.8115 271.295 24.4043C271.295 26.0039 270.55 26.9199 269.388 26.9199ZM274.081 28H275.557V23.6934C275.557 22.6748 276.145 22.0391 277.095 22.0391C277.382 22.0391 277.642 22.0732 277.758 22.1211V20.7471C277.649 20.7266 277.464 20.6924 277.252 20.6924C276.405 20.6924 275.762 21.1914 275.523 22.0322H275.489V20.8086H274.081V28ZM280.359 23.8916H280.346V18.1357H278.869V28H280.346V25.416L280.961 24.8076L283.401 28H285.117L282.02 23.9053L285.001 20.8086H283.264L280.359 23.8916Z" fill="white"/>
</svg>
