<svg width="48" height="48" viewBox="0 0 48 48" fill="none" xmlns="http://www.w3.org/2000/svg">
<rect x="0.5" y="0.5" width="47" height="47" rx="23.5" fill="white"/>
<rect x="0.5" y="0.5" width="47" height="47" rx="23.5" stroke="#3366FF"/>
<path d="M24 23.53C21.24 23.53 19 25.77 19 28.53C19 29.27 19.16 29.97 19.46 30.59C19.54 30.77 19.63 30.94 19.73 31.1C20.59 32.55 22.18 33.53 24 33.53C25.82 33.53 27.41 32.55 28.27 31.1C28.37 30.94 28.46 30.77 28.54 30.59C28.84 29.97 29 29.27 29 28.53C29 25.77 26.76 23.53 24 23.53ZM26.07 28.1L23.94 30.07C23.8 30.2 23.61 30.27 23.43 30.27C23.24 30.27 23.05 30.2 22.9 30.05L21.91 29.06C21.62 28.77 21.62 28.29 21.91 28C22.2 27.71 22.68 27.71 22.97 28L23.45 28.48L25.05 27C25.36 26.72 25.83 26.74 26.11 27.04C26.39 27.34 26.37 27.81 26.07 28.1Z" fill="#3366FF"/>
<path d="M32.1999 29.07C31.8399 29.39 31.4499 29.66 31.0299 29.88C30.6699 30.06 30.3099 29.71 30.3699 29.31C30.41 29.02 30.4299 28.72 30.4299 28.41C30.4299 24.83 27.5099 21.91 23.9299 21.91C20.3499 21.91 17.4299 24.83 17.4299 28.41C17.4299 28.87 17.4799 29.31 17.5699 29.74C17.6399 30.09 17.3699 30.44 17.0199 30.35C13.0699 29.39 13.0499 23.31 17.4699 23H17.5199C14.3099 14.07 27.8499 10.5 29.3999 19.88C33.7299 20.43 35.4799 26.2 32.1999 29.07Z" fill="#3366FF"/>
</svg>
