<svg width="48" height="48" viewBox="0 0 48 48" fill="none" xmlns="http://www.w3.org/2000/svg">
<rect x="0.5" y="0.5" width="47" height="47" rx="23.5" fill="white"/>
<rect x="0.5" y="0.5" width="47" height="47" rx="23.5" stroke="#3366FF"/>
<path d="M31.14 19.72C31.43 20.47 32.15 21 33 21C34.1 21 35 20.1 35 19C35 17.9 34.1 17 33 17C32.15 17 31.43 17.53 31.14 18.28C31.09 18.27 31.05 18.25 31 18.25H27V17.5C27 16.68 26.32 16 25.5 16H22.5C21.68 16 21 16.68 21 17.5V18.25H17C16.95 18.25 16.91 18.27 16.86 18.28C16.57 17.53 15.85 17 15 17C13.9 17 13 17.9 13 19C13 20.1 13.9 21 15 21C15.85 21 16.57 20.47 16.86 19.72C16.91 19.73 16.95 19.75 17 19.75H19.57C17.52 21.27 16.25 23.79 16.25 26.5C16.25 26.67 16.26 26.83 16.28 27H16C15.17 27 14.5 27.67 14.5 28.5V30.5C14.5 31.33 15.17 32 16 32H18C18.22 32 18.42 31.95 18.61 31.86C19.13 31.64 19.5 31.11 19.5 30.5V28.5C19.5 27.67 18.83 27 18 27H17.77C17.77 26.97 17.78 26.94 17.78 26.91C17.76 26.77 17.76 26.64 17.76 26.5C17.76 24.03 19.03 21.77 21.02 20.6C21.06 21.37 21.71 22 22.5 22H25.5C26.29 22 26.94 21.37 26.99 20.6C28.98 21.77 30.25 24.04 30.25 26.5C30.25 26.64 30.24 26.77 30.23 26.91C30.23 26.94 30.24 26.97 30.24 27H30C29.17 27 28.5 27.67 28.5 28.5V30.5C28.5 31.11 28.87 31.64 29.39 31.86C29.58 31.95 29.78 32 30 32H32C32.83 32 33.5 31.33 33.5 30.5V28.5C33.5 27.67 32.83 27 32 27H31.72C31.74 26.83 31.75 26.67 31.75 26.5C31.75 23.79 30.48 21.27 28.43 19.75H31C31.05 19.75 31.09 19.73 31.14 19.72Z" fill="#3366FF"/>
</svg>
